G04*
G04 #@! TF.GenerationSoftware,Altium Limited,Altium Designer,25.8.1 (18)*
G04*
G04 Layer_Physical_Order=2*
G04 Layer_Color=36540*
%FSLAX44Y44*%
%MOMM*%
G71*
G04*
G04 #@! TF.SameCoordinates,25FCF4F7-ABCC-4757-B9A5-3A53D095655E*
G04*
G04*
G04 #@! TF.FilePolarity,Positive*
G04*
G01*
G75*
%ADD23C,0.1500*%
%ADD24C,0.6000*%
%ADD25C,0.8000*%
G36*
X220745Y234856D02*
X224578Y233268D01*
X228029Y230963D01*
X230963Y228029D01*
X233268Y224578D01*
X234856Y220745D01*
X235666Y216675D01*
Y214600D01*
Y25400D01*
Y23325D01*
X234856Y19255D01*
X233268Y15422D01*
X230963Y11971D01*
X228029Y9037D01*
X224578Y6732D01*
X221796Y5579D01*
X221185Y5959D01*
X220212Y7088D01*
X220294Y7500D01*
Y23500D01*
X220119Y24378D01*
X219622Y25122D01*
X218878Y25619D01*
X218000Y25794D01*
X166000D01*
X165122Y25619D01*
X164378Y25122D01*
X163881Y24378D01*
X163706Y23500D01*
Y7500D01*
X163881Y6622D01*
X164054Y6363D01*
X163448Y4714D01*
X163168Y4363D01*
X23264Y4442D01*
X21528Y4601D01*
X17770Y5668D01*
X14272Y7407D01*
X11154Y9759D01*
X8521Y12645D01*
X6464Y15965D01*
X5052Y19607D01*
X4334Y23447D01*
Y25400D01*
Y107494D01*
X6334Y107892D01*
X6337Y107885D01*
X7885Y106337D01*
X9906Y105500D01*
X12094D01*
X14116Y106337D01*
X15663Y107885D01*
X16500Y109906D01*
Y112094D01*
X15663Y114115D01*
X14116Y115663D01*
X12094Y116500D01*
X9906D01*
X7885Y115663D01*
X6337Y114115D01*
X6334Y114108D01*
X4334Y114506D01*
Y214600D01*
Y216675D01*
X5144Y220745D01*
X6732Y224578D01*
X9037Y228029D01*
X11971Y230963D01*
X15422Y233268D01*
X19255Y234856D01*
X23325Y235666D01*
X25403Y235666D01*
X214600Y235666D01*
X216675D01*
X220745Y234856D01*
D02*
G37*
%LPC*%
G36*
X47395Y233000D02*
X45605D01*
X43951Y232315D01*
X42685Y231049D01*
X42457Y230499D01*
X40293D01*
X40065Y231049D01*
X38799Y232315D01*
X37145Y233000D01*
X35355D01*
X33701Y232315D01*
X32435Y231049D01*
X32207Y230499D01*
X30043D01*
X29815Y231049D01*
X28549Y232315D01*
X26895Y233000D01*
X25105D01*
X23451Y232315D01*
X22185Y231049D01*
X21500Y229395D01*
Y227605D01*
X22185Y225951D01*
X23451Y224685D01*
X25105Y224000D01*
X26895D01*
X28549Y224685D01*
X29815Y225951D01*
X30043Y226501D01*
X32207D01*
X32435Y225951D01*
X33701Y224685D01*
X35355Y224000D01*
X37145D01*
X38799Y224685D01*
X40065Y225951D01*
X40293Y226501D01*
X42457D01*
X42685Y225951D01*
X43951Y224685D01*
X45605Y224000D01*
X47395D01*
X49049Y224685D01*
X50315Y225951D01*
X51000Y227605D01*
Y229395D01*
X50315Y231049D01*
X49049Y232315D01*
X47395Y233000D01*
D02*
G37*
G36*
X196094Y181500D02*
X193906D01*
X191884Y180663D01*
X190337Y179116D01*
X189500Y177094D01*
Y174906D01*
X190337Y172885D01*
X191884Y171337D01*
X193906Y170500D01*
X196094D01*
X198116Y171337D01*
X199663Y172885D01*
X200500Y174906D01*
Y177094D01*
X199663Y179116D01*
X198116Y180663D01*
X196094Y181500D01*
D02*
G37*
G36*
X91815Y195339D02*
X90024D01*
X88371Y194654D01*
X87105Y193388D01*
X86420Y191734D01*
Y189944D01*
X87105Y188290D01*
X88015Y187379D01*
X87185Y186549D01*
X86500Y184895D01*
Y183104D01*
X87185Y181451D01*
X87329Y181306D01*
X88312Y180000D01*
X87329Y178693D01*
X87185Y178549D01*
X86500Y176895D01*
Y175105D01*
X87185Y173451D01*
X88136Y172500D01*
X87185Y171549D01*
X86500Y169895D01*
Y168105D01*
X87185Y166451D01*
X88451Y165185D01*
X90105Y164500D01*
X91895D01*
X93549Y165185D01*
X94815Y166451D01*
X95500Y168105D01*
Y169895D01*
X94815Y171549D01*
X93864Y172500D01*
X94815Y173451D01*
X95500Y175105D01*
Y176895D01*
X94815Y178549D01*
X94670Y178693D01*
X93688Y180000D01*
X94670Y181306D01*
X94815Y181451D01*
X95500Y183104D01*
Y184895D01*
X94815Y186549D01*
X93904Y187460D01*
X94734Y188290D01*
X95420Y189944D01*
Y191734D01*
X94734Y193388D01*
X93469Y194654D01*
X91815Y195339D01*
D02*
G37*
G36*
X194094Y166500D02*
X191906D01*
X189884Y165663D01*
X188337Y164116D01*
X187500Y162094D01*
Y159906D01*
X188337Y157885D01*
X189884Y156337D01*
X191906Y155500D01*
X194094D01*
X196115Y156337D01*
X197663Y157885D01*
X198500Y159906D01*
Y162094D01*
X197663Y164116D01*
X196115Y165663D01*
X194094Y166500D01*
D02*
G37*
G36*
X182094Y159500D02*
X179906D01*
X177885Y158663D01*
X176337Y157115D01*
X175500Y155094D01*
Y152906D01*
X176337Y150885D01*
X177885Y149337D01*
X179906Y148500D01*
X182094D01*
X184116Y149337D01*
X185663Y150885D01*
X186500Y152906D01*
Y155094D01*
X185663Y157115D01*
X184116Y158663D01*
X182094Y159500D01*
D02*
G37*
G36*
X56895Y137500D02*
X55105D01*
X53451Y136815D01*
X52185Y135549D01*
X51500Y133895D01*
Y132105D01*
X52185Y130451D01*
X53451Y129185D01*
X55105Y128500D01*
X56895D01*
X58549Y129185D01*
X59815Y130451D01*
X60500Y132105D01*
Y133895D01*
X59815Y135549D01*
X58549Y136815D01*
X56895Y137500D01*
D02*
G37*
G36*
X103594Y120000D02*
X101406D01*
X99384Y119163D01*
X98807Y118585D01*
X97500Y117814D01*
X96193Y118585D01*
X95616Y119163D01*
X93594Y120000D01*
X91406D01*
X89384Y119163D01*
X87837Y117615D01*
X87000Y115594D01*
Y113406D01*
X87837Y111384D01*
X89384Y109837D01*
X91406Y109000D01*
X93594D01*
X95616Y109837D01*
X96193Y110415D01*
X97500Y111186D01*
X98807Y110415D01*
X99384Y109837D01*
X101406Y109000D01*
X103594D01*
X105616Y109837D01*
X107163Y111384D01*
X108000Y113406D01*
Y115594D01*
X107163Y117615D01*
X105616Y119163D01*
X103594Y120000D01*
D02*
G37*
G36*
X35094Y122500D02*
X32906D01*
X30884Y121663D01*
X29337Y120115D01*
X28500Y118094D01*
Y115906D01*
X29337Y113884D01*
X30884Y112337D01*
X32906Y111500D01*
X35094D01*
X37115Y112337D01*
X38663Y113884D01*
X39500Y115906D01*
Y118094D01*
X38663Y120115D01*
X37115Y121663D01*
X35094Y122500D01*
D02*
G37*
G36*
X81094Y100500D02*
X78906D01*
X76884Y99663D01*
X75337Y98116D01*
X74500Y96094D01*
Y93906D01*
X75337Y91884D01*
X76884Y90337D01*
X78906Y89500D01*
X81094D01*
X83116Y90337D01*
X84663Y91884D01*
X85500Y93906D01*
Y96094D01*
X84663Y98116D01*
X83116Y99663D01*
X81094Y100500D01*
D02*
G37*
G36*
X59094D02*
X56906D01*
X54885Y99663D01*
X53337Y98116D01*
X52500Y96094D01*
Y93906D01*
X53337Y91884D01*
X54885Y90337D01*
X56906Y89500D01*
X59094D01*
X61115Y90337D01*
X62663Y91884D01*
X63500Y93906D01*
Y96094D01*
X62663Y98116D01*
X61115Y99663D01*
X59094Y100500D01*
D02*
G37*
G36*
X28387Y85092D02*
X26199D01*
X24177Y84255D01*
X22630Y82708D01*
X22598Y82631D01*
X20433D01*
X20402Y82708D01*
X18855Y84255D01*
X16833Y85092D01*
X14645D01*
X12624Y84255D01*
X11076Y82708D01*
X10239Y80686D01*
Y78498D01*
X11076Y76477D01*
X12624Y74929D01*
X14645Y74092D01*
X16833D01*
X18855Y74929D01*
X20402Y76477D01*
X20433Y76553D01*
X22598D01*
X22630Y76477D01*
X24177Y74929D01*
X26199Y74092D01*
X28387D01*
X30408Y74929D01*
X31955Y76477D01*
X32793Y78498D01*
Y80686D01*
X31955Y82708D01*
X30408Y84255D01*
X28387Y85092D01*
D02*
G37*
G36*
X47895Y23500D02*
X46105D01*
X44451Y22815D01*
X43185Y21549D01*
X42500Y19895D01*
Y18105D01*
X43185Y16451D01*
X44451Y15185D01*
X46105Y14500D01*
X47895D01*
X49549Y15185D01*
X50815Y16451D01*
X51500Y18105D01*
Y19895D01*
X50815Y21549D01*
X49549Y22815D01*
X47895Y23500D01*
D02*
G37*
G36*
X139895Y17500D02*
X138105D01*
X136451Y16815D01*
X135185Y15549D01*
X134500Y13895D01*
Y12105D01*
X135185Y10451D01*
X136451Y9185D01*
X138105Y8500D01*
X139895D01*
X141549Y9185D01*
X142815Y10451D01*
X143500Y12105D01*
Y13895D01*
X142815Y15549D01*
X141549Y16815D01*
X139895Y17500D01*
D02*
G37*
G36*
X126895D02*
X125105D01*
X123451Y16815D01*
X122185Y15549D01*
X121500Y13895D01*
Y12105D01*
X122185Y10451D01*
X123451Y9185D01*
X125105Y8500D01*
X126895D01*
X128549Y9185D01*
X129815Y10451D01*
X130500Y12105D01*
Y13895D01*
X129815Y15549D01*
X128549Y16815D01*
X126895Y17500D01*
D02*
G37*
G36*
X113895D02*
X112105D01*
X110451Y16815D01*
X109185Y15549D01*
X108500Y13895D01*
Y12105D01*
X109185Y10451D01*
X110451Y9185D01*
X112105Y8500D01*
X113895D01*
X115549Y9185D01*
X116815Y10451D01*
X117500Y12105D01*
Y13895D01*
X116815Y15549D01*
X115549Y16815D01*
X113895Y17500D01*
D02*
G37*
%LPD*%
D23*
X188082Y11500D02*
X182750D01*
X188082Y16832D01*
Y18165D01*
X186749Y19497D01*
X184083D01*
X182750Y18165D01*
X166000Y7500D02*
X218000D01*
X166000Y23500D02*
X218000D01*
X179000Y7500D02*
Y23500D01*
X218000Y7500D02*
Y23500D01*
X192000Y7500D02*
Y23500D01*
X205000Y7500D02*
Y23500D01*
X166000Y7500D02*
Y23500D01*
D24*
X8000Y162000D02*
D03*
X88000Y10000D02*
D03*
X132000Y183000D02*
D03*
X184000Y104000D02*
D03*
X227000Y79000D02*
D03*
X85000Y232000D02*
D03*
X226000Y16000D02*
D03*
X158000Y10000D02*
D03*
X10000Y62000D02*
D03*
X22000Y10000D02*
D03*
X114000Y207000D02*
D03*
X38000Y103730D02*
D03*
X224000Y164000D02*
D03*
X223000Y225000D02*
D03*
X63000Y232000D02*
D03*
X17000Y227000D02*
D03*
X126000Y98000D02*
D03*
X158000Y57000D02*
D03*
X80000Y49000D02*
D03*
X59000D02*
D03*
X132000Y174000D02*
D03*
Y156000D02*
D03*
D25*
X127500Y114500D02*
D03*
X117500D02*
D03*
M02*
