G04*
G04 #@! TF.GenerationSoftware,Altium Limited,Altium Designer,25.8.1 (18)*
G04*
G04 Layer_Physical_Order=4*
G04 Layer_Color=65280*
%FSLAX44Y44*%
%MOMM*%
G71*
G04*
G04 #@! TF.SameCoordinates,A3A1C001-1370-45B5-99AB-5CE8E6626C48*
G04*
G04*
G04 #@! TF.FilePolarity,Positive*
G04*
G01*
G75*
%ADD19R,1.0000X0.9000*%
%ADD20R,0.9000X1.0000*%
%ADD21R,1.2000X1.3000*%
%ADD22C,0.4000*%
%ADD23C,0.1500*%
%ADD24C,0.6000*%
%ADD25C,0.8000*%
%ADD26C,1.0000*%
%ADD27R,0.6500X1.5000*%
%ADD28R,1.5000X1.7500*%
%ADD29R,0.9000X0.8000*%
%ADD30R,1.2000X2.4000*%
%ADD31R,2.6000X5.6000*%
%ADD32R,1.3000X1.2000*%
%ADD33C,0.6000*%
G36*
X220745Y234856D02*
X224578Y233268D01*
X228029Y230963D01*
X230963Y228029D01*
X233268Y224578D01*
X234856Y220745D01*
X235666Y216675D01*
Y214600D01*
Y25400D01*
Y23325D01*
X234856Y19255D01*
X233268Y15422D01*
X230963Y11971D01*
X228029Y9037D01*
X224578Y6732D01*
X221796Y5579D01*
X221185Y5959D01*
X220212Y7088D01*
X220294Y7500D01*
Y23500D01*
X220119Y24378D01*
X219622Y25122D01*
X218878Y25619D01*
X218000Y25794D01*
X166000D01*
X165122Y25619D01*
X164378Y25122D01*
X163881Y24378D01*
X163706Y23500D01*
Y7500D01*
X163881Y6622D01*
X164054Y6363D01*
X163448Y4714D01*
X163168Y4363D01*
X23264Y4442D01*
X21528Y4601D01*
X17770Y5668D01*
X14272Y7407D01*
X11154Y9759D01*
X8521Y12645D01*
X6464Y15965D01*
X5052Y19607D01*
X4334Y23447D01*
Y25400D01*
Y102376D01*
X14363D01*
X16000Y101500D01*
X16000Y100376D01*
Y96500D01*
X23000D01*
X30000D01*
Y101207D01*
X30000Y101500D01*
X29500Y103293D01*
X29500Y103898D01*
X31226Y105348D01*
X31549D01*
X31848Y105224D01*
X32146Y105348D01*
X32469D01*
X32697Y105576D01*
X32996Y105700D01*
X40148Y112852D01*
X40624Y114000D01*
Y124048D01*
X51365D01*
Y128412D01*
X61396D01*
X62009Y127799D01*
X63491Y126943D01*
X65144Y126500D01*
X66856D01*
X68509Y126943D01*
X69991Y127799D01*
X71201Y129009D01*
X72057Y130491D01*
X72500Y132144D01*
Y133856D01*
X72057Y135509D01*
X71201Y136991D01*
X69991Y138201D01*
X68509Y139057D01*
X66856Y139500D01*
X65144D01*
X63491Y139057D01*
X62009Y138201D01*
X61396Y137588D01*
X51365D01*
Y139048D01*
X39668D01*
X38728Y140896D01*
X38604Y141194D01*
Y141517D01*
X38376Y141746D01*
X38252Y142044D01*
X37748Y142548D01*
X38576Y144548D01*
X51365D01*
Y159548D01*
X47691D01*
X47536Y159632D01*
X47383Y159648D01*
X47319Y159753D01*
X47227Y159978D01*
X47134Y160323D01*
X47057Y160783D01*
X47007Y161350D01*
X46989Y162060D01*
X46934Y162183D01*
Y162664D01*
X46989Y162786D01*
X47007Y163496D01*
X47057Y164063D01*
X47134Y164523D01*
X47227Y164868D01*
X47319Y165093D01*
X47383Y165198D01*
X47536Y165214D01*
X47691Y165298D01*
X52615D01*
Y185798D01*
X34615D01*
Y165298D01*
X39041D01*
X39195Y165214D01*
X39348Y165198D01*
X39412Y165093D01*
X39504Y164868D01*
X39597Y164523D01*
X39674Y164063D01*
X39724Y163496D01*
X39743Y162786D01*
X39797Y162664D01*
Y162183D01*
X39743Y162060D01*
X39724Y161350D01*
X39674Y160783D01*
X39597Y160323D01*
X39504Y159978D01*
X39412Y159753D01*
X39348Y159648D01*
X39195Y159632D01*
X39041Y159548D01*
X35366D01*
Y146472D01*
X35000Y144624D01*
X33491Y144624D01*
X24087D01*
X22722Y145158D01*
X22366Y146471D01*
Y157297D01*
X20191D01*
X20036Y157381D01*
X19884Y157397D01*
X19820Y157502D01*
X19727Y157727D01*
X19635Y158072D01*
X19558Y158532D01*
X19508Y159099D01*
X19489Y159810D01*
X19435Y159932D01*
Y162664D01*
X19489Y162786D01*
X19508Y163496D01*
X19558Y164063D01*
X19635Y164523D01*
X19728Y164868D01*
X19820Y165093D01*
X19884Y165198D01*
X20036Y165214D01*
X20191Y165298D01*
X27115D01*
Y185798D01*
X9115D01*
Y165298D01*
X11541D01*
X11696Y165214D01*
X11849Y165198D01*
X11913Y165093D01*
X12005Y164868D01*
X12098Y164523D01*
X12175Y164063D01*
X12225Y163496D01*
X12243Y162786D01*
X12298Y162664D01*
Y159932D01*
X12243Y159809D01*
X12225Y159099D01*
X12175Y158532D01*
X12098Y158072D01*
X12005Y157727D01*
X11913Y157502D01*
X11849Y157397D01*
X11696Y157381D01*
X11541Y157297D01*
X9366D01*
Y146471D01*
X9011Y145158D01*
X7645Y144624D01*
X4334D01*
Y214600D01*
Y216675D01*
X5144Y220745D01*
X6732Y224578D01*
X9037Y228029D01*
X11971Y230963D01*
X15422Y233268D01*
X19255Y234856D01*
X23325Y235666D01*
X25403Y235666D01*
X90030D01*
Y209980D01*
X105030D01*
Y235666D01*
X115030D01*
Y209980D01*
X130030D01*
Y235666D01*
X140030D01*
Y209980D01*
X155030D01*
Y235666D01*
X214600D01*
X216675D01*
X220745Y234856D01*
D02*
G37*
G36*
X46986Y166789D02*
X46645Y166669D01*
X46346Y166469D01*
X46086Y166189D01*
X45866Y165829D01*
X45686Y165389D01*
X45546Y164869D01*
X45445Y164269D01*
X45385Y163589D01*
X45366Y162829D01*
X41365D01*
X41346Y163589D01*
X41286Y164269D01*
X41185Y164869D01*
X41045Y165389D01*
X40866Y165829D01*
X40645Y166189D01*
X40385Y166469D01*
X40086Y166669D01*
X39746Y166789D01*
X39365Y166829D01*
X47365D01*
X46986Y166789D01*
D02*
G37*
G36*
X19486D02*
X19146Y166669D01*
X18846Y166469D01*
X18586Y166189D01*
X18366Y165829D01*
X18186Y165389D01*
X18046Y164869D01*
X17946Y164269D01*
X17886Y163589D01*
X17866Y162829D01*
X13866D01*
X13846Y163589D01*
X13786Y164269D01*
X13686Y164869D01*
X13546Y165389D01*
X13366Y165829D01*
X13146Y166189D01*
X12886Y166469D01*
X12586Y166669D01*
X12246Y166789D01*
X11866Y166829D01*
X19866D01*
X19486Y166789D01*
D02*
G37*
G36*
X45385Y161258D02*
X45445Y160578D01*
X45546Y159978D01*
X45686Y159458D01*
X45866Y159018D01*
X46086Y158658D01*
X46346Y158378D01*
X46645Y158178D01*
X46986Y158058D01*
X47365Y158018D01*
X39365D01*
X39746Y158058D01*
X40086Y158178D01*
X40385Y158378D01*
X40645Y158658D01*
X40866Y159018D01*
X41045Y159458D01*
X41185Y159978D01*
X41286Y160578D01*
X41346Y161258D01*
X41365Y162018D01*
X45366D01*
X45385Y161258D01*
D02*
G37*
G36*
X17886Y159007D02*
X17946Y158327D01*
X18046Y157727D01*
X18186Y157207D01*
X18366Y156767D01*
X18586Y156407D01*
X18846Y156127D01*
X19146Y155927D01*
X19486Y155807D01*
X19866Y155767D01*
X11866D01*
X12246Y155807D01*
X12586Y155927D01*
X12886Y156127D01*
X13146Y156407D01*
X13366Y156767D01*
X13546Y157207D01*
X13686Y157727D01*
X13786Y158327D01*
X13846Y159007D01*
X13866Y159767D01*
X17866D01*
X17886Y159007D01*
D02*
G37*
G36*
X37104Y140896D02*
X36339Y139048D01*
X35366D01*
Y124048D01*
X39000D01*
Y114000D01*
X31848Y106848D01*
X30273Y107500D01*
X23000D01*
X16000D01*
Y104000D01*
X4334D01*
Y143000D01*
X8866D01*
Y138797D01*
X15866D01*
X22866D01*
Y143000D01*
X35000D01*
X37104Y140896D01*
D02*
G37*
%LPC*%
G36*
X47395Y233000D02*
X45605D01*
X43951Y232315D01*
X42685Y231049D01*
X42457Y230499D01*
X40293D01*
X40065Y231049D01*
X38799Y232315D01*
X37145Y233000D01*
X35355D01*
X33701Y232315D01*
X32435Y231049D01*
X32207Y230499D01*
X30043D01*
X29815Y231049D01*
X28549Y232315D01*
X26895Y233000D01*
X25105D01*
X23451Y232315D01*
X22185Y231049D01*
X21500Y229395D01*
Y227605D01*
X22185Y225951D01*
X22338Y225798D01*
X21509Y223798D01*
X19615D01*
Y214548D01*
X27615D01*
Y222152D01*
X27615Y223072D01*
X28549Y224685D01*
X29043Y225179D01*
X29815Y225951D01*
X30043Y226501D01*
X32207D01*
X32435Y225951D01*
X33035Y225351D01*
X33799Y224253D01*
X34116Y222857D01*
X34116Y214548D01*
X43615D01*
X53116D01*
Y223798D01*
X50990D01*
X50162Y225798D01*
X50315Y225951D01*
X51000Y227605D01*
Y229395D01*
X50315Y231049D01*
X49049Y232315D01*
X47395Y233000D01*
D02*
G37*
G36*
X16616Y223798D02*
X8615D01*
Y214548D01*
X16616D01*
Y223798D01*
D02*
G37*
G36*
X53116Y211548D02*
X45115D01*
Y202298D01*
X53116D01*
Y211548D01*
D02*
G37*
G36*
X42116D02*
X34116D01*
Y202298D01*
X42116D01*
Y211548D01*
D02*
G37*
G36*
X27615Y211548D02*
X19615D01*
Y202298D01*
X27615D01*
Y211548D01*
D02*
G37*
G36*
X16616D02*
X8615D01*
Y202298D01*
X16616D01*
Y211548D01*
D02*
G37*
G36*
X187030Y225980D02*
X177530D01*
Y201480D01*
X187030D01*
Y225980D01*
D02*
G37*
G36*
X167530D02*
X158030D01*
Y201480D01*
X167530D01*
Y225980D01*
D02*
G37*
G36*
X67530D02*
X58030D01*
Y201480D01*
X67530D01*
Y225980D01*
D02*
G37*
G36*
X196094Y181500D02*
X193906D01*
X191884Y180663D01*
X190337Y179116D01*
X189500Y177094D01*
Y174906D01*
X190337Y172885D01*
X191884Y171337D01*
X193906Y170500D01*
X196094D01*
X198116Y171337D01*
X199663Y172885D01*
X200500Y174906D01*
Y177094D01*
X199663Y179116D01*
X198116Y180663D01*
X196094Y181500D01*
D02*
G37*
G36*
X187030Y191480D02*
X177530D01*
Y166980D01*
X187030D01*
Y191480D01*
D02*
G37*
G36*
X167530D02*
X158030D01*
Y166980D01*
X167530D01*
Y191480D01*
D02*
G37*
G36*
X67530D02*
X58030D01*
Y166980D01*
X67530D01*
Y191480D01*
D02*
G37*
G36*
X87030Y225980D02*
X77530D01*
Y196480D01*
Y166980D01*
X86966D01*
X87185Y166451D01*
X88451Y165185D01*
X90105Y164500D01*
X91895D01*
X93549Y165185D01*
X94815Y166451D01*
X95500Y168105D01*
Y169895D01*
X94815Y171549D01*
X93864Y172500D01*
X94815Y173451D01*
X95500Y175105D01*
Y176895D01*
X94815Y178549D01*
X94670Y178693D01*
X93688Y180000D01*
X94670Y181306D01*
X94815Y181451D01*
X95500Y183104D01*
Y184895D01*
X94815Y186549D01*
X93904Y187460D01*
X94734Y188290D01*
X95420Y189944D01*
Y191734D01*
X94734Y193388D01*
X93469Y194654D01*
X91815Y195339D01*
X90024D01*
X89030Y194927D01*
X87328Y195778D01*
X87030Y196099D01*
Y225980D01*
D02*
G37*
G36*
X194094Y166500D02*
X191906D01*
X189884Y165663D01*
X188337Y164116D01*
X187500Y162094D01*
Y159906D01*
X188337Y157885D01*
X189884Y156337D01*
X191906Y155500D01*
X194094D01*
X196115Y156337D01*
X197663Y157885D01*
X198500Y159906D01*
Y162094D01*
X197663Y164116D01*
X196115Y165663D01*
X194094Y166500D01*
D02*
G37*
G36*
X182094Y159500D02*
X179906D01*
X177885Y158663D01*
X176337Y157115D01*
X175500Y155094D01*
Y152906D01*
X176337Y150885D01*
X177885Y149337D01*
X179906Y148500D01*
X182094D01*
X184116Y149337D01*
X185663Y150885D01*
X186500Y152906D01*
Y155094D01*
X185663Y157115D01*
X184116Y158663D01*
X182094Y159500D01*
D02*
G37*
G36*
X130030Y146980D02*
X125030D01*
Y135980D01*
X130030D01*
Y146980D01*
D02*
G37*
G36*
X120030D02*
X115030D01*
Y135980D01*
X120030D01*
Y146980D01*
D02*
G37*
G36*
X130030Y130980D02*
X125030D01*
Y119980D01*
X130030D01*
Y130980D01*
D02*
G37*
G36*
X120030D02*
X115030D01*
Y119980D01*
X120030D01*
Y130980D01*
D02*
G37*
G36*
X109000Y154124D02*
X87500D01*
X86352Y153648D01*
X85876Y152500D01*
Y110000D01*
X86352Y108852D01*
X87500Y108376D01*
X109000D01*
X110148Y108852D01*
X110624Y110000D01*
Y152500D01*
X110148Y153648D01*
X109000Y154124D01*
D02*
G37*
G36*
X201500Y110500D02*
X196500D01*
Y106000D01*
X201500D01*
Y110500D01*
D02*
G37*
G36*
X193500D02*
X188500D01*
Y106000D01*
X193500D01*
Y110500D01*
D02*
G37*
G36*
X201500Y103000D02*
X196500D01*
Y98500D01*
X201500D01*
Y103000D01*
D02*
G37*
G36*
X193500D02*
X188500D01*
Y98500D01*
X193500D01*
Y103000D01*
D02*
G37*
G36*
X181000Y100500D02*
X169000D01*
Y89500D01*
X181000D01*
Y100500D01*
D02*
G37*
G36*
X30000Y93500D02*
X24500D01*
Y88500D01*
X30000D01*
Y93500D01*
D02*
G37*
G36*
X21500D02*
X16000D01*
Y88500D01*
X21500D01*
Y93500D01*
D02*
G37*
G36*
X155030Y146980D02*
X140030D01*
Y119980D01*
X155030D01*
Y133155D01*
X155114Y133310D01*
X155130Y133463D01*
X155235Y133527D01*
X155460Y133619D01*
X155805Y133712D01*
X156265Y133788D01*
X156832Y133838D01*
X157542Y133857D01*
X157664Y133911D01*
X163042D01*
X171431Y125522D01*
Y122135D01*
X171377Y122012D01*
X171358Y121302D01*
X171308Y120735D01*
X171232Y120275D01*
X171139Y119930D01*
X171047Y119705D01*
X170983Y119600D01*
X170830Y119584D01*
X170675Y119500D01*
X169000D01*
Y117168D01*
X168777Y117125D01*
X167919Y117048D01*
X167384Y117038D01*
X167128Y116927D01*
X166049Y116712D01*
X164892Y115938D01*
X154977Y106023D01*
X154203Y104866D01*
X153931Y103500D01*
Y90500D01*
X151000D01*
Y88825D01*
X150916Y88670D01*
X150900Y88517D01*
X150795Y88453D01*
X150570Y88361D01*
X150225Y88268D01*
X149765Y88192D01*
X149198Y88142D01*
X148488Y88123D01*
X148365Y88069D01*
X146434D01*
X146312Y88123D01*
X145602Y88142D01*
X145035Y88192D01*
X144575Y88268D01*
X144230Y88361D01*
X144005Y88453D01*
X143900Y88517D01*
X143884Y88670D01*
X143800Y88825D01*
Y93500D01*
X134300D01*
Y75500D01*
X143800D01*
Y80175D01*
X143884Y80330D01*
X143900Y80483D01*
X144005Y80547D01*
X144230Y80639D01*
X144575Y80732D01*
X145035Y80808D01*
X145602Y80858D01*
X146312Y80877D01*
X146434Y80931D01*
X148365D01*
X148488Y80877D01*
X149198Y80858D01*
X149765Y80808D01*
X150225Y80732D01*
X150570Y80639D01*
X150795Y80547D01*
X150900Y80483D01*
X150916Y80330D01*
X151000Y80175D01*
X151000Y78793D01*
X150500Y77000D01*
X150500Y76707D01*
Y72000D01*
X157500D01*
X164500D01*
Y76707D01*
X164500Y77000D01*
X164000Y78793D01*
X164000Y79000D01*
Y90500D01*
X161069D01*
Y102022D01*
X167160Y108113D01*
X169000Y108500D01*
Y108500D01*
X181000D01*
Y119500D01*
X179325D01*
X179170Y119584D01*
X179017Y119600D01*
X178953Y119705D01*
X178861Y119930D01*
X178768Y120275D01*
X178692Y120735D01*
X178642Y121302D01*
X178623Y122012D01*
X178569Y122135D01*
Y127000D01*
X178297Y128366D01*
X177523Y129523D01*
X167043Y140003D01*
X165886Y140777D01*
X164520Y141049D01*
X157664D01*
X157542Y141103D01*
X156832Y141122D01*
X156265Y141172D01*
X155805Y141248D01*
X155460Y141341D01*
X155235Y141433D01*
X155130Y141497D01*
X155114Y141650D01*
X155030Y141805D01*
Y146980D01*
D02*
G37*
G36*
X131600Y94000D02*
X127850D01*
Y86000D01*
X131600D01*
Y94000D01*
D02*
G37*
G36*
X124850D02*
X121100D01*
Y86000D01*
X124850D01*
Y94000D01*
D02*
G37*
G36*
X32094Y82500D02*
X29906D01*
X27885Y81663D01*
X27307Y81085D01*
X26000Y80314D01*
X24693Y81085D01*
X24116Y81663D01*
X22094Y82500D01*
X19906D01*
X17885Y81663D01*
X16337Y80115D01*
X15500Y78094D01*
Y75906D01*
X16337Y73885D01*
X17885Y72337D01*
X18500Y72082D01*
Y69918D01*
X17885Y69663D01*
X16337Y68116D01*
X15500Y66094D01*
Y63906D01*
X16337Y61884D01*
X17885Y60337D01*
X19906Y59500D01*
X22094D01*
X24116Y60337D01*
X24693Y60915D01*
X26000Y61686D01*
X27307Y60915D01*
X27885Y60337D01*
X29906Y59500D01*
X32094D01*
X34116Y60337D01*
X35663Y61884D01*
X36500Y63906D01*
Y66094D01*
X35663Y68116D01*
X34116Y69663D01*
X33500Y69918D01*
Y72082D01*
X34116Y72337D01*
X35663Y73885D01*
X36500Y75906D01*
Y78094D01*
X35663Y80115D01*
X34116Y81663D01*
X32094Y82500D01*
D02*
G37*
G36*
X131600Y83000D02*
X127850D01*
Y75000D01*
X131600D01*
Y83000D01*
D02*
G37*
G36*
X124850D02*
X121100D01*
Y75000D01*
X124850D01*
Y83000D01*
D02*
G37*
G36*
X164500Y69000D02*
X159000D01*
Y64000D01*
X164500D01*
Y69000D01*
D02*
G37*
G36*
X156000D02*
X150500D01*
Y64000D01*
X156000D01*
Y69000D01*
D02*
G37*
G36*
X66000Y70250D02*
X59000D01*
Y63750D01*
X66000D01*
Y70250D01*
D02*
G37*
G36*
X56000D02*
X49000D01*
Y63750D01*
X56000D01*
Y70250D01*
D02*
G37*
G36*
X88500D02*
X81500D01*
Y63750D01*
X88500D01*
Y70250D01*
D02*
G37*
G36*
X78500D02*
X71500D01*
Y63750D01*
X78500D01*
Y70250D01*
D02*
G37*
G36*
X88500Y60750D02*
X81500D01*
Y54250D01*
X88500D01*
Y60750D01*
D02*
G37*
G36*
X78500D02*
X71500D01*
Y54250D01*
X78500D01*
Y60750D01*
D02*
G37*
G36*
X66000Y60750D02*
X59000D01*
Y54250D01*
X66000D01*
Y60750D01*
D02*
G37*
G36*
X56000D02*
X49000D01*
Y54250D01*
X56000D01*
Y60750D01*
D02*
G37*
G36*
X65750Y44500D02*
X59250D01*
Y37500D01*
X65750D01*
Y44500D01*
D02*
G37*
G36*
X56250D02*
X49750D01*
Y37500D01*
X56250D01*
Y44500D01*
D02*
G37*
G36*
X102000Y101624D02*
X50000D01*
X48852Y101148D01*
X45852Y98148D01*
X45376Y97000D01*
Y78000D01*
X45852Y76852D01*
X48852Y73852D01*
X50000Y73376D01*
X103000D01*
X104148Y73852D01*
X106900Y76604D01*
X108070Y76399D01*
X108900Y75991D01*
Y75500D01*
X109062D01*
Y69550D01*
X97706Y58194D01*
X96711Y56706D01*
X96362Y54950D01*
Y44072D01*
X96327Y43989D01*
X96272Y39524D01*
X96271Y39500D01*
X96200Y39500D01*
X96115Y38098D01*
X94259Y37209D01*
X92980Y38489D01*
X91491Y39483D01*
X89950Y39790D01*
X89774Y39867D01*
X88772Y39891D01*
X87937Y39959D01*
X87238Y40065D01*
X86684Y40201D01*
X86281Y40351D01*
X86031Y40491D01*
X85913Y40591D01*
X85877Y40640D01*
X85864Y40674D01*
X85832Y40946D01*
X85750Y41094D01*
Y44000D01*
X70750D01*
Y29755D01*
X70657Y29530D01*
X70669Y29501D01*
X70658Y29471D01*
X70752Y26904D01*
X70644Y26251D01*
X70483Y25645D01*
X70302Y25198D01*
X70127Y24908D01*
X69980Y24748D01*
X69863Y24669D01*
X69732Y24623D01*
X69360Y24583D01*
X69205Y24499D01*
X68653D01*
X68653Y24499D01*
X68001Y24499D01*
X68000Y24499D01*
X66696Y24499D01*
Y24499D01*
X66001Y24499D01*
X64558Y24499D01*
X54001D01*
Y22377D01*
X51427D01*
X51333Y22426D01*
X51279Y22409D01*
X51227Y22432D01*
X50106Y22455D01*
X49892Y22472D01*
X49549Y22815D01*
X47895Y23500D01*
X46105D01*
X44451Y22815D01*
X43185Y21549D01*
X42500Y19895D01*
Y18105D01*
X43185Y16451D01*
X44451Y15185D01*
X46105Y14500D01*
X47895D01*
X49474Y15154D01*
X50885Y15186D01*
X51009Y15240D01*
X54001D01*
Y11499D01*
X66001D01*
Y20992D01*
X67157Y21017D01*
X68001Y20581D01*
Y11499D01*
X80001D01*
Y19056D01*
X80089Y19499D01*
Y22949D01*
X80094Y22960D01*
X80096Y23426D01*
X80124Y23488D01*
X80153Y24578D01*
X80233Y25485D01*
X80359Y26245D01*
X80522Y26850D01*
X80704Y27295D01*
X80881Y27585D01*
X81031Y27746D01*
X81153Y27827D01*
X81291Y27876D01*
X81671Y27916D01*
X81826Y28000D01*
X85750D01*
Y29394D01*
X85832Y29542D01*
X85864Y29814D01*
X85877Y29849D01*
X85913Y29897D01*
X86031Y29997D01*
X86281Y30137D01*
X86684Y30288D01*
X87238Y30424D01*
X87937Y30530D01*
X87959Y30532D01*
X91235Y27256D01*
X92724Y26261D01*
X94274Y25953D01*
X94448Y25877D01*
X96200Y25843D01*
Y21500D01*
X105700D01*
Y37745D01*
X105793Y37970D01*
X105781Y37999D01*
X105792Y38029D01*
X105573Y44029D01*
X105538Y44104D01*
Y53050D01*
X116894Y64406D01*
X117889Y65894D01*
X118238Y67650D01*
Y75500D01*
X118400D01*
Y93500D01*
X109624D01*
X108900Y93500D01*
X107624Y94971D01*
Y96000D01*
X107148Y97148D01*
X103148Y101148D01*
X102000Y101624D01*
D02*
G37*
G36*
X65750Y34500D02*
X59250D01*
Y27500D01*
X65750D01*
Y34500D01*
D02*
G37*
G36*
X56250D02*
X49750D01*
Y27500D01*
X56250D01*
Y34500D01*
D02*
G37*
G36*
X131100Y39500D02*
X121600D01*
Y23500D01*
X121600Y23442D01*
X121539Y23351D01*
X121546Y23126D01*
X121507Y23031D01*
X121600Y21500D01*
X122367D01*
X122399Y21350D01*
X122542Y19709D01*
X122551Y19008D01*
X122606Y18881D01*
Y17407D01*
X122556Y17308D01*
X122572Y17260D01*
X122552Y17214D01*
X122529Y16092D01*
X122513Y15877D01*
X122185Y15549D01*
X121500Y13895D01*
Y12105D01*
X122185Y10451D01*
X123451Y9185D01*
X125105Y8500D01*
X126895D01*
X128549Y9185D01*
X129815Y10451D01*
X130500Y12105D01*
Y13895D01*
X129833Y15505D01*
X129798Y16907D01*
X129744Y17030D01*
Y18875D01*
X129798Y19001D01*
X129812Y19726D01*
X129849Y20327D01*
X129907Y20827D01*
X129980Y21217D01*
X130057Y21488D01*
X130062Y21500D01*
X131100Y21500D01*
X131193Y23031D01*
X131167Y23093D01*
X131175Y23273D01*
X131100Y23397D01*
X131100Y23500D01*
Y39500D01*
D02*
G37*
G36*
X118400D02*
X108900D01*
Y23500D01*
X108900Y23417D01*
X108830Y23307D01*
X108838Y23106D01*
X108807Y23031D01*
X108900Y21500D01*
X109804Y21500D01*
X109864Y21262D01*
X109927Y20877D01*
X110015Y19716D01*
X110027Y19004D01*
X110081Y18878D01*
Y17640D01*
X110027Y17516D01*
X110007Y16641D01*
X109982Y16346D01*
X109185Y15549D01*
X108500Y13895D01*
Y12105D01*
X109185Y10451D01*
X110451Y9185D01*
X112105Y8500D01*
X113895D01*
X115549Y9185D01*
X116815Y10451D01*
X117500Y12105D01*
Y13895D01*
X117219Y14575D01*
Y15500D01*
X117268Y16066D01*
X117219Y16221D01*
Y18857D01*
X117273Y18975D01*
X117320Y20361D01*
X117370Y20857D01*
X117437Y21262D01*
X117496Y21500D01*
X118400D01*
X118493Y23031D01*
X118462Y23106D01*
X118469Y23307D01*
X118400Y23417D01*
Y39500D01*
D02*
G37*
G36*
X143800D02*
X134300D01*
Y23500D01*
X134300Y23417D01*
X134230Y23307D01*
X134238Y23106D01*
X134207Y23031D01*
X134300Y21500D01*
X135204Y21500D01*
X135264Y21262D01*
X135327Y20877D01*
X135415Y19716D01*
X135427Y19004D01*
X135481Y18878D01*
Y17240D01*
X135427Y17116D01*
X135430Y17107D01*
X135427Y17098D01*
X135417Y16204D01*
X135394Y15758D01*
X135185Y15549D01*
X134500Y13895D01*
Y12345D01*
X134431Y12000D01*
X134703Y10634D01*
X135477Y9477D01*
X136634Y8703D01*
X138000Y8431D01*
X139000D01*
X139345Y8500D01*
X139895D01*
X141549Y9185D01*
X142815Y10451D01*
X143500Y12105D01*
Y13895D01*
X142815Y15549D01*
X142737Y15627D01*
X142672Y17064D01*
X142619Y17178D01*
Y18857D01*
X142673Y18975D01*
X142720Y20361D01*
X142770Y20857D01*
X142837Y21262D01*
X142896Y21500D01*
X143800D01*
X143893Y23031D01*
X143862Y23106D01*
X143869Y23307D01*
X143800Y23417D01*
Y39500D01*
D02*
G37*
%LPD*%
G36*
X109000Y110000D02*
X87500D01*
Y152500D01*
X109000D01*
Y110000D01*
D02*
G37*
%LPC*%
G36*
X105030Y146980D02*
X100030D01*
Y135980D01*
X105030D01*
Y146980D01*
D02*
G37*
G36*
X95030D02*
X90030D01*
Y135980D01*
X95030D01*
Y146980D01*
D02*
G37*
G36*
X105030Y130980D02*
X100030D01*
Y119980D01*
X105030D01*
Y130980D01*
D02*
G37*
G36*
X95030D02*
X90030D01*
Y119980D01*
X95030D01*
Y130980D01*
D02*
G37*
%LPD*%
G36*
X153539Y141100D02*
X153659Y140760D01*
X153860Y140460D01*
X154139Y140200D01*
X154500Y139980D01*
X154939Y139800D01*
X155459Y139660D01*
X156060Y139560D01*
X156740Y139500D01*
X157500Y139480D01*
Y135480D01*
X156740Y135460D01*
X156060Y135400D01*
X155459Y135300D01*
X154939Y135160D01*
X154500Y134980D01*
X154139Y134760D01*
X153860Y134500D01*
X153659Y134200D01*
X153539Y133860D01*
X153499Y133480D01*
Y141480D01*
X153539Y141100D01*
D02*
G37*
G36*
X177020Y121209D02*
X177080Y120529D01*
X177180Y119930D01*
X177320Y119410D01*
X177500Y118969D01*
X177720Y118610D01*
X177980Y118329D01*
X178280Y118130D01*
X178620Y118010D01*
X179000Y117970D01*
X171000D01*
X171380Y118010D01*
X171720Y118130D01*
X172020Y118329D01*
X172280Y118610D01*
X172500Y118969D01*
X172680Y119410D01*
X172820Y119930D01*
X172920Y120529D01*
X172980Y121209D01*
X173000Y121969D01*
X177000D01*
X177020Y121209D01*
D02*
G37*
G36*
X170530Y110300D02*
X170499Y110512D01*
X170406Y110701D01*
X170250Y110868D01*
X170032Y111013D01*
X169752Y111136D01*
X169409Y111236D01*
X169004Y111315D01*
X168537Y111370D01*
X168007Y111404D01*
X167415Y111415D01*
Y115415D01*
X168007Y115426D01*
X169004Y115515D01*
X169409Y115594D01*
X169752Y115694D01*
X170032Y115817D01*
X170250Y115962D01*
X170406Y116129D01*
X170499Y116319D01*
X170530Y116531D01*
Y110300D01*
D02*
G37*
G36*
X152530Y80500D02*
X152491Y80880D01*
X152371Y81220D01*
X152170Y81520D01*
X151890Y81780D01*
X151531Y82000D01*
X151090Y82180D01*
X150570Y82320D01*
X149971Y82420D01*
X149291Y82480D01*
X148531Y82500D01*
Y86500D01*
X149291Y86520D01*
X149971Y86580D01*
X150570Y86680D01*
X151090Y86820D01*
X151531Y87000D01*
X151890Y87220D01*
X152170Y87480D01*
X152371Y87780D01*
X152491Y88120D01*
X152530Y88500D01*
Y80500D01*
D02*
G37*
G36*
X142310Y88120D02*
X142430Y87780D01*
X142629Y87480D01*
X142909Y87220D01*
X143270Y87000D01*
X143709Y86820D01*
X144229Y86680D01*
X144830Y86580D01*
X145510Y86520D01*
X146270Y86500D01*
Y82500D01*
X145510Y82480D01*
X144830Y82420D01*
X144229Y82320D01*
X143709Y82180D01*
X143270Y82000D01*
X142909Y81780D01*
X142629Y81520D01*
X142430Y81220D01*
X142310Y80880D01*
X142269Y80500D01*
Y88500D01*
X142310Y88120D01*
D02*
G37*
G36*
X106000Y96000D02*
Y78000D01*
X103000Y75000D01*
X50000D01*
X47000Y78000D01*
Y97000D01*
X50000Y100000D01*
X102000D01*
X106000Y96000D01*
D02*
G37*
G36*
X104170Y37970D02*
X97731D01*
X97772Y38029D01*
X97809Y38210D01*
X97842Y38510D01*
X97895Y39469D01*
X97950Y43969D01*
X103950D01*
X104170Y37970D01*
D02*
G37*
G36*
X84275Y40282D02*
X84440Y39854D01*
X84716Y39477D01*
X85102Y39150D01*
X85598Y38873D01*
X86205Y38647D01*
X86922Y38471D01*
X87750Y38345D01*
X88687Y38269D01*
X89735Y38244D01*
Y32244D01*
X88687Y32219D01*
X87750Y32144D01*
X86922Y32018D01*
X86205Y31842D01*
X85598Y31615D01*
X85102Y31339D01*
X84716Y31012D01*
X84440Y30634D01*
X84275Y30206D01*
X84220Y29729D01*
Y40760D01*
X84275Y40282D01*
D02*
G37*
G36*
X97731Y27249D02*
X97698Y27297D01*
X97600Y27339D01*
X97438Y27377D01*
X97210Y27410D01*
X96560Y27460D01*
X94480Y27500D01*
Y33500D01*
X95097Y33503D01*
X97600Y33661D01*
X97698Y33703D01*
X97731Y33751D01*
Y27249D01*
D02*
G37*
G36*
X80931Y29471D02*
X80421Y29290D01*
X79971Y28990D01*
X79581Y28570D01*
X79251Y28031D01*
X78981Y27371D01*
X78771Y26590D01*
X78621Y25691D01*
X78531Y24671D01*
X78501Y23530D01*
X78473D01*
X78470Y22969D01*
X69531D01*
X70096Y23029D01*
X70600Y23209D01*
X71046Y23509D01*
X71432Y23929D01*
X71758Y24469D01*
X72026Y25129D01*
X72234Y25909D01*
X72381Y26800D01*
X72281Y29530D01*
X81501D01*
X80931Y29471D01*
D02*
G37*
G36*
X49315Y20931D02*
X49390Y20905D01*
X49499Y20882D01*
X49642Y20863D01*
X50026Y20833D01*
X51193Y20809D01*
X50849Y16809D01*
X49004Y16768D01*
X49272Y20959D01*
X49315Y20931D01*
D02*
G37*
G36*
X129305Y22991D02*
X129067Y22871D01*
X128858Y22671D01*
X128677Y22390D01*
X128524Y22030D01*
X128398Y21590D01*
X128301Y21070D01*
X128231Y20470D01*
X128189Y19791D01*
X128175Y19030D01*
X124175D01*
X124164Y19791D01*
X124008Y21590D01*
X123914Y22030D01*
X123799Y22390D01*
X123663Y22671D01*
X123506Y22871D01*
X123329Y22991D01*
X123131Y23031D01*
X129570D01*
X129305Y22991D01*
D02*
G37*
G36*
X128175Y16866D02*
X128221Y15016D01*
X124029Y15261D01*
X124056Y15303D01*
X124081Y15379D01*
X124103Y15488D01*
X124122Y15630D01*
X124152Y16014D01*
X124175Y17181D01*
X128175Y16866D01*
D02*
G37*
G36*
X116638Y22991D02*
X116431Y22871D01*
X116248Y22671D01*
X116089Y22390D01*
X115955Y22030D01*
X115845Y21590D01*
X115760Y21070D01*
X115699Y20470D01*
X115650Y19030D01*
X111650D01*
X111638Y19791D01*
X111540Y21070D01*
X111455Y21590D01*
X111345Y22030D01*
X111211Y22390D01*
X111052Y22671D01*
X110870Y22871D01*
X110662Y22991D01*
X110430Y23031D01*
X116869D01*
X116638Y22991D01*
D02*
G37*
G36*
X115650Y16206D02*
X115514Y14636D01*
X111414Y15546D01*
X111459Y15592D01*
X111499Y15671D01*
X111534Y15782D01*
X111565Y15926D01*
X111591Y16103D01*
X111629Y16555D01*
X111650Y17479D01*
X115650Y16206D01*
D02*
G37*
G36*
X142038Y22991D02*
X141831Y22871D01*
X141648Y22671D01*
X141489Y22390D01*
X141355Y22030D01*
X141245Y21590D01*
X141160Y21070D01*
X141099Y20470D01*
X141050Y19030D01*
X137050D01*
X137038Y19791D01*
X136940Y21070D01*
X136855Y21590D01*
X136745Y22030D01*
X136611Y22390D01*
X136452Y22671D01*
X136270Y22871D01*
X136062Y22991D01*
X135830Y23031D01*
X142269D01*
X142038Y22991D01*
D02*
G37*
G36*
X141050Y16990D02*
X141135Y15107D01*
X136936Y15177D01*
X136958Y15216D01*
X136977Y15288D01*
X136994Y15394D01*
X137009Y15533D01*
X137040Y16155D01*
X137050Y17080D01*
X141050Y16990D01*
D02*
G37*
%LPC*%
G36*
X22866Y135797D02*
X17366D01*
Y130797D01*
X22866D01*
Y135797D01*
D02*
G37*
G36*
X14366D02*
X8866D01*
Y130797D01*
X14366D01*
Y135797D01*
D02*
G37*
G36*
X30000Y115500D02*
X24500D01*
Y110500D01*
X30000D01*
Y115500D01*
D02*
G37*
G36*
X21500D02*
X16000D01*
Y110500D01*
X21500D01*
Y115500D01*
D02*
G37*
%LPD*%
D19*
X157500Y70500D02*
D03*
Y84500D02*
D03*
X23000Y95000D02*
D03*
Y109000D02*
D03*
X15866Y151297D02*
D03*
Y137297D02*
D03*
D20*
X60001Y17999D02*
D03*
X74001D02*
D03*
D21*
X57750Y36000D02*
D03*
X78250D02*
D03*
D22*
X174415Y113415D02*
X175000Y114000D01*
X167415Y113415D02*
X174415D01*
X157500Y103500D02*
X167415Y113415D01*
X157500Y84500D02*
Y103500D01*
X175000Y114000D02*
Y127000D01*
X59191Y18809D02*
X60001Y17999D01*
X47191Y18809D02*
X59191D01*
X47000Y19000D02*
X47191Y18809D01*
X113000Y13000D02*
X113650Y13650D01*
Y30500D01*
X126175Y13175D02*
Y30325D01*
X126000Y13000D02*
X126175Y13175D01*
Y30325D02*
X126350Y30500D01*
X164520Y137480D02*
X175000Y127000D01*
X15866Y173299D02*
X18116Y175548D01*
X15866Y151297D02*
Y173299D01*
X147530Y133480D02*
Y137480D01*
X164520D01*
X138000Y12000D02*
X139000D01*
X138000D02*
X139050Y13050D01*
Y30500D01*
X139050Y84500D02*
X157500D01*
X139050Y84500D02*
X139050Y84500D01*
X43366Y175298D02*
X43615Y175548D01*
X43366Y152048D02*
Y175298D01*
D23*
X212749Y11500D02*
Y19497D01*
X208750Y15499D01*
X214082D01*
X166000Y7500D02*
X218000D01*
X166000Y23500D02*
X218000D01*
X179000Y7500D02*
Y23500D01*
X218000Y7500D02*
Y23500D01*
X192000Y7500D02*
Y23500D01*
X205000Y7500D02*
Y23500D01*
X166000Y7500D02*
Y23500D01*
D24*
X11000Y111000D02*
D03*
Y121000D02*
D03*
X8000Y162000D02*
D03*
X47000Y19000D02*
D03*
X113000Y13000D02*
D03*
X88000Y10000D02*
D03*
X126000Y13000D02*
D03*
X132000Y183000D02*
D03*
X90920Y190839D02*
D03*
X184000Y104000D02*
D03*
X227000Y79000D02*
D03*
X85000Y232000D02*
D03*
X226000Y16000D02*
D03*
X158000Y10000D02*
D03*
X31000Y29000D02*
D03*
X22000Y10000D02*
D03*
X114000Y207000D02*
D03*
X91000Y169000D02*
D03*
Y176000D02*
D03*
Y184000D02*
D03*
X41000Y106000D02*
D03*
X224000Y164000D02*
D03*
X223000Y225000D02*
D03*
X139000Y13000D02*
D03*
X63000Y232000D02*
D03*
X17000Y227000D02*
D03*
X126000Y98000D02*
D03*
X158000Y57000D02*
D03*
X80000Y49000D02*
D03*
X59000D02*
D03*
X56000Y133000D02*
D03*
X132000Y174000D02*
D03*
Y156000D02*
D03*
X46500Y228500D02*
D03*
X36250D02*
D03*
X26000D02*
D03*
D25*
X31000Y65000D02*
D03*
X21000D02*
D03*
Y77000D02*
D03*
X195000Y176000D02*
D03*
X92500Y114500D02*
D03*
X193000Y161000D02*
D03*
X181000Y154000D02*
D03*
X80000Y95000D02*
D03*
X58000D02*
D03*
X31000Y77000D02*
D03*
X127500Y114500D02*
D03*
X117500D02*
D03*
X102500D02*
D03*
D26*
X21000Y123000D02*
D03*
X66000Y133000D02*
D03*
D27*
X100950Y84500D02*
D03*
X113650D02*
D03*
X126350D02*
D03*
X139050D02*
D03*
Y30500D02*
D03*
X126350D02*
D03*
X113650D02*
D03*
X100950D02*
D03*
D28*
X18116Y213048D02*
D03*
Y175548D02*
D03*
X43615Y213048D02*
D03*
Y175548D02*
D03*
D29*
X175000Y114000D02*
D03*
Y95000D02*
D03*
X195000Y104500D02*
D03*
D30*
X97530Y133480D02*
D03*
X122530D02*
D03*
X147530D02*
D03*
X97530Y223480D02*
D03*
X122530D02*
D03*
X147530D02*
D03*
D31*
X72530Y196480D02*
D03*
X172530D02*
D03*
D32*
X43366Y131548D02*
D03*
Y152048D02*
D03*
X80000Y62250D02*
D03*
Y82750D02*
D03*
X57500Y62250D02*
D03*
Y82750D02*
D03*
D33*
X74001Y17999D02*
X75501Y19499D01*
Y33251D01*
X78250Y36000D01*
X94480Y30500D02*
X100950D01*
X89735Y35244D02*
X94480Y30500D01*
X100950D02*
Y54950D01*
X78506Y35244D02*
X89735D01*
X78250Y35500D02*
X78506Y35244D01*
X113650Y67650D02*
Y84500D01*
X100950Y54950D02*
X113650Y67650D01*
X44817Y133000D02*
X66000D01*
X43366Y131548D02*
X44817Y133000D01*
M02*
