G04*
G04 #@! TF.GenerationSoftware,Altium Limited,Altium Designer,25.8.1 (18)*
G04*
G04 Layer_Physical_Order=3*
G04 Layer_Color=16440176*
%FSLAX44Y44*%
%MOMM*%
G71*
G04*
G04 #@! TF.SameCoordinates,25FCF4F7-ABCC-4757-B9A5-3A53D095655E*
G04*
G04*
G04 #@! TF.FilePolarity,Positive*
G04*
G01*
G75*
%ADD23C,0.1500*%
%ADD24C,0.6000*%
%ADD25C,0.8000*%
G36*
X25403Y235666D02*
X57648D01*
X57733Y235604D01*
X58930Y233932D01*
X58500Y232895D01*
Y231105D01*
X59185Y229451D01*
X60451Y228185D01*
X62105Y227500D01*
X63895D01*
X65549Y228185D01*
X65666Y228302D01*
X89861Y204158D01*
X89862Y202158D01*
X84875Y197171D01*
X84640Y196604D01*
X84399Y196041D01*
X84295Y186845D01*
X84299Y186836D01*
X84295Y186827D01*
X84529Y186261D01*
X84757Y185692D01*
X84767Y185688D01*
X84770Y185679D01*
X86500Y183950D01*
Y183104D01*
X87185Y181451D01*
X88451Y180185D01*
X90105Y179500D01*
X90950D01*
X91345Y179104D01*
X91644Y178981D01*
X91872Y178752D01*
X92629Y178438D01*
X93438Y177629D01*
X93752Y176872D01*
X93980Y176644D01*
X94104Y176345D01*
X94878Y175572D01*
Y120858D01*
X93594Y120000D01*
X91406D01*
X89384Y119163D01*
X87837Y117615D01*
X87000Y115594D01*
Y113406D01*
X87837Y111384D01*
X89384Y109837D01*
X91406Y109000D01*
X93594D01*
X94878Y108142D01*
Y81174D01*
X89327Y75624D01*
X51673D01*
X47624Y79672D01*
Y120000D01*
X47148Y121148D01*
X37148Y131148D01*
X36000Y131624D01*
X4334D01*
Y156689D01*
X6334Y157819D01*
X7105Y157500D01*
X8895D01*
X10549Y158185D01*
X11815Y159451D01*
X12500Y161105D01*
Y162895D01*
X11815Y164549D01*
X10549Y165815D01*
X8895Y166500D01*
X7105D01*
X6334Y166181D01*
X4334Y167311D01*
Y214600D01*
Y216675D01*
X5144Y220745D01*
X6732Y224578D01*
X9037Y228029D01*
X10854Y229845D01*
X11605Y229661D01*
X12500Y227895D01*
Y226105D01*
X13185Y224451D01*
X14451Y223185D01*
X16105Y222500D01*
X17895D01*
X19549Y223185D01*
X20815Y224451D01*
X21500Y226105D01*
Y227895D01*
X20815Y229549D01*
X19549Y230815D01*
X17895Y231500D01*
X16600Y233003D01*
X16720Y233806D01*
X19255Y234856D01*
X23325Y235666D01*
X25403Y235666D01*
D02*
G37*
G36*
X199000Y190000D02*
X199000Y28000D01*
X196794Y25794D01*
X166000D01*
X165122Y25619D01*
X164378Y25122D01*
X163881Y24378D01*
X163706Y23500D01*
Y13210D01*
X162246Y12700D01*
X161706Y12658D01*
X160549Y13815D01*
X158895Y14500D01*
X157105D01*
X155451Y13815D01*
X154185Y12549D01*
X153500Y10895D01*
Y9105D01*
X154185Y7451D01*
X155268Y6368D01*
X155159Y5518D01*
X154655Y4368D01*
X91381Y4403D01*
X90926Y5377D01*
X90768Y6404D01*
X91815Y7451D01*
X92500Y9105D01*
Y10895D01*
X91815Y12549D01*
X90549Y13815D01*
X88895Y14500D01*
X87105D01*
X85451Y13815D01*
X84185Y12549D01*
X83500Y10895D01*
Y9105D01*
X84185Y7451D01*
X85229Y6407D01*
X85065Y5365D01*
X84616Y4407D01*
X25418Y4441D01*
X25023Y5233D01*
X24805Y6441D01*
X25815Y7451D01*
X26500Y9105D01*
Y10895D01*
X25815Y12549D01*
X24549Y13815D01*
X22895Y14500D01*
X21105D01*
X19451Y13815D01*
X18185Y12549D01*
X17500Y10895D01*
Y9105D01*
X18058Y7758D01*
X17433Y6814D01*
X16704Y6198D01*
X14272Y7407D01*
X11154Y9759D01*
X8521Y12645D01*
X6464Y15965D01*
X5052Y19607D01*
X4334Y23447D01*
Y25400D01*
Y58693D01*
X5643Y59229D01*
X6334Y59302D01*
X7451Y58185D01*
X9105Y57500D01*
X10895D01*
X12549Y58185D01*
X13815Y59451D01*
X14500Y61105D01*
Y62895D01*
X13815Y64549D01*
X12549Y65815D01*
X10895Y66500D01*
X9105D01*
X7451Y65815D01*
X6334Y64698D01*
X5643Y64771D01*
X4334Y65307D01*
Y130000D01*
X36000D01*
X46000Y120000D01*
Y79000D01*
X51000Y74000D01*
X90000D01*
X96501Y80501D01*
Y109892D01*
X98376Y110669D01*
X98807Y110415D01*
X99384Y109837D01*
X101406Y109000D01*
X103594D01*
X105616Y109837D01*
X107163Y111384D01*
X108000Y113406D01*
Y115594D01*
X107163Y117615D01*
X105616Y119163D01*
X103594Y120000D01*
X101406D01*
X99384Y119163D01*
X98807Y118585D01*
X98376Y118331D01*
X96501Y119108D01*
Y176244D01*
X95252Y177493D01*
X94815Y178549D01*
X93549Y179815D01*
X92493Y180252D01*
X85919Y186827D01*
X86023Y196023D01*
X96000Y206000D01*
X109543D01*
X110185Y204450D01*
X111451Y203185D01*
X113105Y202500D01*
X114895D01*
X116549Y203185D01*
X117815Y204450D01*
X118456Y206000D01*
X183000D01*
X199000Y190000D01*
D02*
G37*
G36*
X220745Y234856D02*
X224578Y233268D01*
X228029Y230963D01*
X230963Y228029D01*
X233268Y224578D01*
X234856Y220745D01*
X235666Y216675D01*
Y214600D01*
Y25400D01*
Y23325D01*
X234856Y19255D01*
X233268Y15422D01*
X230963Y11971D01*
X228029Y9037D01*
X224578Y6732D01*
X221796Y5579D01*
X221185Y5959D01*
X220212Y7088D01*
X220294Y7500D01*
Y23500D01*
X220119Y24378D01*
X219622Y25122D01*
X218878Y25619D01*
X218000Y25794D01*
X201703D01*
X200538Y27794D01*
X200624Y28000D01*
X200624Y190000D01*
X200148Y191148D01*
X184148Y207148D01*
X183000Y207624D01*
X118456D01*
X118158Y207500D01*
X117835D01*
X117607Y207272D01*
X117308Y207148D01*
X117185Y206850D01*
X116957Y206621D01*
X116438Y205370D01*
X115629Y204561D01*
X114572Y204123D01*
X113428D01*
X112370Y204561D01*
X111561Y205370D01*
X111043Y206621D01*
X110815Y206850D01*
X110691Y207148D01*
X110393Y207272D01*
X110164Y207500D01*
X109841D01*
X109543Y207624D01*
X96000D01*
X94852Y207148D01*
X93126Y205422D01*
X93029Y205387D01*
X91013Y205307D01*
X91008Y205307D01*
X66813Y229451D01*
X66239Y229688D01*
X65666Y229925D01*
X65665Y229925D01*
X65664Y229925D01*
X65086Y229685D01*
X64928D01*
X63572Y229124D01*
X62428D01*
X61371Y229562D01*
X60561Y230371D01*
X60124Y231428D01*
Y232572D01*
X60430Y233311D01*
Y233503D01*
X60531Y233667D01*
X61348Y235217D01*
X61969Y235666D01*
X214600Y235666D01*
X216675D01*
X220745Y234856D01*
D02*
G37*
%LPC*%
G36*
X132895Y187500D02*
X131105D01*
X129451Y186815D01*
X128185Y185549D01*
X127500Y183895D01*
Y182105D01*
X128185Y180451D01*
X128889Y179747D01*
X129252Y178500D01*
X128889Y177253D01*
X128185Y176549D01*
X127500Y174895D01*
Y173105D01*
X128185Y171451D01*
X129451Y170185D01*
X131105Y169500D01*
X132895D01*
X134549Y170185D01*
X135815Y171451D01*
X136500Y173105D01*
Y174895D01*
X135815Y176549D01*
X135111Y177253D01*
X134748Y178500D01*
X135111Y179747D01*
X135815Y180451D01*
X136500Y182105D01*
Y183895D01*
X135815Y185549D01*
X134549Y186815D01*
X132895Y187500D01*
D02*
G37*
G36*
Y160500D02*
X131105D01*
X129451Y159815D01*
X128185Y158549D01*
X127500Y156895D01*
Y155105D01*
X128185Y153451D01*
X129451Y152185D01*
X131105Y151500D01*
X132895D01*
X134549Y152185D01*
X135815Y153451D01*
X136500Y155105D01*
Y156895D01*
X135815Y158549D01*
X134549Y159815D01*
X132895Y160500D01*
D02*
G37*
G36*
X128594Y120000D02*
X126406D01*
X124384Y119163D01*
X123807Y118585D01*
X122500Y117814D01*
X121193Y118585D01*
X120616Y119163D01*
X118594Y120000D01*
X116406D01*
X114384Y119163D01*
X112837Y117615D01*
X112000Y115594D01*
Y113406D01*
X112837Y111384D01*
X114384Y109837D01*
X116406Y109000D01*
X118594D01*
X120616Y109837D01*
X121193Y110415D01*
X122500Y111186D01*
X123807Y110415D01*
X124384Y109837D01*
X126406Y109000D01*
X128594D01*
X130616Y109837D01*
X132163Y111384D01*
X133000Y113406D01*
Y115594D01*
X132163Y117615D01*
X130616Y119163D01*
X128594Y120000D01*
D02*
G37*
G36*
X184895Y108500D02*
X183105D01*
X181451Y107815D01*
X180185Y106549D01*
X179500Y104895D01*
Y103105D01*
X180185Y101451D01*
X181451Y100185D01*
X183105Y99500D01*
X184895D01*
X186549Y100185D01*
X187815Y101451D01*
X188500Y103105D01*
Y104895D01*
X187815Y106549D01*
X186549Y107815D01*
X184895Y108500D01*
D02*
G37*
G36*
X38895Y108230D02*
X37105D01*
X35451Y107545D01*
X34185Y106279D01*
X33500Y104625D01*
Y102835D01*
X34185Y101181D01*
X35451Y99915D01*
X37105Y99230D01*
X38895D01*
X40549Y99915D01*
X41815Y101181D01*
X42500Y102835D01*
Y104625D01*
X41815Y106279D01*
X40549Y107545D01*
X38895Y108230D01*
D02*
G37*
G36*
X126895Y102500D02*
X125105D01*
X123451Y101815D01*
X122185Y100549D01*
X121500Y98895D01*
Y97105D01*
X122185Y95451D01*
X123451Y94185D01*
X125105Y93500D01*
X126895D01*
X128549Y94185D01*
X129815Y95451D01*
X130500Y97105D01*
Y98895D01*
X129815Y100549D01*
X128549Y101815D01*
X126895Y102500D01*
D02*
G37*
G36*
X158895Y61500D02*
X157105D01*
X155451Y60815D01*
X154185Y59549D01*
X153500Y57895D01*
Y56105D01*
X154185Y54451D01*
X155451Y53185D01*
X157105Y52500D01*
X158895D01*
X160549Y53185D01*
X161815Y54451D01*
X162500Y56105D01*
Y57895D01*
X161815Y59549D01*
X160549Y60815D01*
X158895Y61500D01*
D02*
G37*
G36*
X80895Y53500D02*
X79105D01*
X77451Y52815D01*
X76185Y51549D01*
X75500Y49895D01*
Y48105D01*
X76185Y46451D01*
X77451Y45185D01*
X79105Y44500D01*
X80895D01*
X82549Y45185D01*
X83815Y46451D01*
X84500Y48105D01*
Y49895D01*
X83815Y51549D01*
X82549Y52815D01*
X80895Y53500D01*
D02*
G37*
G36*
X59895D02*
X58105D01*
X56451Y52815D01*
X55185Y51549D01*
X54500Y49895D01*
Y48105D01*
X55185Y46451D01*
X56451Y45185D01*
X58105Y44500D01*
X59895D01*
X61549Y45185D01*
X62815Y46451D01*
X63500Y48105D01*
Y49895D01*
X62815Y51549D01*
X61549Y52815D01*
X59895Y53500D01*
D02*
G37*
G36*
X47895Y23500D02*
X46105D01*
X44451Y22815D01*
X43185Y21549D01*
X42500Y19895D01*
Y18105D01*
X43185Y16451D01*
X44451Y15185D01*
X46105Y14500D01*
X47895D01*
X49549Y15185D01*
X50815Y16451D01*
X51500Y18105D01*
Y19895D01*
X50815Y21549D01*
X49549Y22815D01*
X47895Y23500D01*
D02*
G37*
G36*
X139895Y17500D02*
X138105D01*
X136451Y16815D01*
X135185Y15549D01*
X134500Y13895D01*
Y12105D01*
X135185Y10451D01*
X136451Y9185D01*
X138105Y8500D01*
X139895D01*
X141549Y9185D01*
X142815Y10451D01*
X143500Y12105D01*
Y13895D01*
X142815Y15549D01*
X141549Y16815D01*
X139895Y17500D01*
D02*
G37*
G36*
X126895D02*
X125105D01*
X123451Y16815D01*
X122185Y15549D01*
X121500Y13895D01*
Y12105D01*
X122185Y10451D01*
X123451Y9185D01*
X125105Y8500D01*
X126895D01*
X128549Y9185D01*
X129815Y10451D01*
X130500Y12105D01*
Y13895D01*
X129815Y15549D01*
X128549Y16815D01*
X126895Y17500D01*
D02*
G37*
G36*
X113895D02*
X112105D01*
X110451Y16815D01*
X109185Y15549D01*
X108500Y13895D01*
Y12105D01*
X109185Y10451D01*
X110451Y9185D01*
X112105Y8500D01*
X113895D01*
X115549Y9185D01*
X116815Y10451D01*
X117500Y12105D01*
Y13895D01*
X116815Y15549D01*
X115549Y16815D01*
X113895Y17500D01*
D02*
G37*
%LPD*%
D23*
X195750Y18165D02*
X197083Y19497D01*
X199749D01*
X201082Y18165D01*
Y16832D01*
X199749Y15499D01*
X198416D01*
X199749D01*
X201082Y14166D01*
Y12833D01*
X199749Y11500D01*
X197083D01*
X195750Y12833D01*
X166000Y7500D02*
X218000D01*
X166000Y23500D02*
X218000D01*
X179000Y7500D02*
Y23500D01*
X218000Y7500D02*
Y23500D01*
X192000Y7500D02*
Y23500D01*
X205000Y7500D02*
Y23500D01*
X166000Y7500D02*
Y23500D01*
D24*
X90920Y190839D02*
D03*
X227000Y79000D02*
D03*
X85000Y232000D02*
D03*
X226000Y16000D02*
D03*
X114000Y207000D02*
D03*
X91000Y169000D02*
D03*
Y176000D02*
D03*
Y184000D02*
D03*
X224000Y164000D02*
D03*
X223000Y225000D02*
D03*
X63000Y232000D02*
D03*
X56000Y133000D02*
D03*
X46500Y228500D02*
D03*
X36250D02*
D03*
X26000D02*
D03*
D25*
X195000Y176000D02*
D03*
X193000Y161000D02*
D03*
X11000Y111000D02*
D03*
X181000Y154000D02*
D03*
X80000Y95000D02*
D03*
X58000D02*
D03*
X34000Y117000D02*
D03*
X27293Y79592D02*
D03*
X15739D02*
D03*
M02*
