G04*
G04 #@! TF.GenerationSoftware,Altium Limited,Altium Designer,25.8.1 (18)*
G04*
G04 Layer_Color=16711935*
%FSLAX44Y44*%
%MOMM*%
G71*
G04*
G04 #@! TF.SameCoordinates,25FCF4F7-ABCC-4757-B9A5-3A53D095655E*
G04*
G04*
G04 #@! TF.FilePolarity,Negative*
G04*
G01*
G75*
%ADD15R,0.9000X1.0000*%
%ADD16R,1.0000X0.9000*%
%ADD21R,1.2000X1.3000*%
%ADD23C,0.1500*%
%ADD26C,1.0000*%
%ADD27R,0.6500X1.5000*%
%ADD28R,1.5000X1.7500*%
%ADD29R,0.9000X0.8000*%
%ADD30R,1.2000X2.4000*%
%ADD31R,2.6000X5.6000*%
%ADD32R,1.3000X1.2000*%
D15*
X74001Y17999D02*
D03*
X60001D02*
D03*
D16*
X157500Y70500D02*
D03*
Y84500D02*
D03*
X23000Y95000D02*
D03*
Y109000D02*
D03*
X15866Y151297D02*
D03*
Y137297D02*
D03*
D21*
X57750Y36000D02*
D03*
X78250D02*
D03*
D23*
X28500Y228500D02*
X26501D01*
X27500D01*
Y234498D01*
X28500Y233498D01*
X19503Y228500D02*
X23502D01*
X19503Y232499D01*
Y233498D01*
X20503Y234498D01*
X22502D01*
X23502Y233498D01*
X17504Y234498D02*
Y230499D01*
X15504Y228500D01*
X13505Y230499D01*
Y234498D01*
X45501D02*
X49500D01*
Y231499D01*
X47501Y232499D01*
X46501D01*
X45501Y231499D01*
Y229500D01*
X46501Y228500D01*
X48500D01*
X49500Y229500D01*
X43502Y234498D02*
Y230499D01*
X41503Y228500D01*
X39503Y230499D01*
Y234498D01*
D26*
X21000Y123000D02*
D03*
X66000Y133000D02*
D03*
D27*
X100950Y84500D02*
D03*
X113650D02*
D03*
X126350D02*
D03*
X139050D02*
D03*
Y30500D02*
D03*
X126350D02*
D03*
X113650D02*
D03*
X100950D02*
D03*
D28*
X18116Y213048D02*
D03*
Y175548D02*
D03*
X43615Y213048D02*
D03*
Y175548D02*
D03*
D29*
X175000Y114000D02*
D03*
Y95000D02*
D03*
X195000Y104500D02*
D03*
D30*
X97530Y133480D02*
D03*
X122530D02*
D03*
X147530D02*
D03*
X97530Y223480D02*
D03*
X122530D02*
D03*
X147530D02*
D03*
D31*
X72530Y196480D02*
D03*
X172530D02*
D03*
D32*
X43366Y131548D02*
D03*
Y152048D02*
D03*
X80000Y62250D02*
D03*
Y82750D02*
D03*
X57500Y62250D02*
D03*
Y82750D02*
D03*
M02*
