G04*
G04 #@! TF.GenerationSoftware,Altium Limited,Altium Designer,25.8.1 (18)*
G04*
G04 Layer_Physical_Order=1*
G04 Layer_Color=255*
%FSLAX44Y44*%
%MOMM*%
G71*
G04*
G04 #@! TF.SameCoordinates,A3A1C001-1370-45B5-99AB-5CE8E6626C48*
G04*
G04*
G04 #@! TF.FilePolarity,Positive*
G04*
G01*
G75*
%ADD10C,0.2540*%
%ADD14R,3.4300X1.2700*%
%ADD15R,1.0000X0.5500*%
%ADD16R,1.5000X4.2000*%
%ADD17R,1.8000X2.2500*%
%ADD18R,1.6500X1.8000*%
%ADD19R,1.0000X0.9000*%
%ADD20R,0.9000X1.0000*%
%ADD21R,1.2000X1.3000*%
%ADD22C,0.4000*%
%ADD23C,0.1500*%
%ADD24C,0.6000*%
%ADD25C,0.8000*%
G36*
X168000Y190000D02*
X152000D01*
X139000Y203000D01*
X121000D01*
Y209750D01*
X133000D01*
Y211791D01*
X133148Y211852D01*
X133624Y213000D01*
Y221500D01*
X134000D01*
Y232993D01*
X134000D01*
X136000Y231556D01*
Y230000D01*
X142000D01*
X148000D01*
Y233666D01*
X148000Y234500D01*
X149517Y235666D01*
X168000D01*
Y190000D01*
D02*
G37*
G36*
X80819Y233666D02*
X80500Y232895D01*
Y231105D01*
X81185Y229451D01*
X82451Y228185D01*
X84105Y227500D01*
X85895D01*
X87549Y228185D01*
X88815Y229451D01*
X89500Y231105D01*
Y232895D01*
X89488Y232923D01*
X90647Y234813D01*
X91491Y234853D01*
X92999Y233274D01*
Y230499D01*
X98999D01*
X104999D01*
Y232993D01*
X104999D01*
X106999Y231556D01*
Y221499D01*
X107500D01*
Y210000D01*
X90587D01*
X89001Y210999D01*
X89001Y212000D01*
Y214999D01*
X76001D01*
Y212318D01*
X74752Y211595D01*
X73500Y212320D01*
Y215000D01*
X67000D01*
X60500D01*
Y213035D01*
X60476Y212976D01*
X60019Y212412D01*
X58630Y211524D01*
X58630D01*
X58212Y211764D01*
X57000Y212738D01*
Y229500D01*
X59000Y229898D01*
X59185Y229451D01*
X60451Y228185D01*
X62105Y227500D01*
X63895D01*
X65549Y228185D01*
X66815Y229451D01*
X67500Y231105D01*
Y232895D01*
X67181Y233666D01*
X68311Y235666D01*
X79689D01*
X80819Y233666D01*
D02*
G37*
G36*
X132000Y213000D02*
X121000D01*
Y235666D01*
X132000D01*
Y213000D01*
D02*
G37*
G36*
X97530Y201960D02*
X97505Y202201D01*
X97429Y202417D01*
X97302Y202608D01*
X97124Y202773D01*
X96896Y202913D01*
X96616Y203027D01*
X96286Y203116D01*
X95905Y203179D01*
X95473Y203217D01*
X94991Y203230D01*
Y205770D01*
X95473Y205783D01*
X95905Y205821D01*
X96286Y205884D01*
X96616Y205973D01*
X96896Y206087D01*
X97124Y206227D01*
X97302Y206392D01*
X97429Y206583D01*
X97505Y206799D01*
X97530Y207040D01*
Y201960D01*
D02*
G37*
G36*
X25403Y235666D02*
X25404D01*
X25404D01*
X54344D01*
Y192344D01*
X49000Y187000D01*
X23000D01*
X17500Y192500D01*
Y222500D01*
X17895D01*
X19549Y223185D01*
X20815Y224451D01*
X21500Y226105D01*
Y227895D01*
X20815Y229549D01*
X19549Y230815D01*
X17895Y231500D01*
X17500D01*
Y234129D01*
X19255Y234856D01*
X23325Y235666D01*
X25403Y235666D01*
D02*
G37*
G36*
X60500Y208739D02*
X60500Y208000D01*
Y205500D01*
X67000D01*
X73500D01*
Y207682D01*
X74749Y208405D01*
X76001Y207680D01*
Y205499D01*
X82501D01*
Y202999D01*
X85001D01*
Y196999D01*
X88734D01*
X89001Y196999D01*
X90847Y196628D01*
X90891Y196407D01*
X91503Y195491D01*
X92500Y194494D01*
Y182500D01*
X90500Y180500D01*
X90105D01*
X88898Y180000D01*
X69000D01*
X57000Y192000D01*
Y209507D01*
X58881Y209920D01*
X60500Y208739D01*
D02*
G37*
G36*
X112000Y187500D02*
X107000D01*
Y180500D01*
Y172914D01*
X107500Y171500D01*
X93000Y157000D01*
Y147000D01*
X91000Y145000D01*
X87296D01*
X87148Y145148D01*
X86000Y145624D01*
X74000D01*
X74000Y173000D01*
X79376Y178376D01*
X88898D01*
X89196Y178500D01*
X89519D01*
X90428Y178876D01*
X90500D01*
X91648Y179352D01*
X91796Y179500D01*
X91895D01*
X93549Y180185D01*
X94815Y181451D01*
X95500Y183104D01*
Y184895D01*
X94815Y186549D01*
X94124Y187240D01*
Y187679D01*
X94734Y188290D01*
X95420Y189944D01*
Y191734D01*
X94734Y193388D01*
X94124Y193999D01*
Y194494D01*
X94000Y194792D01*
Y198543D01*
X95500Y199750D01*
X109500D01*
Y201000D01*
X112000D01*
Y187500D01*
D02*
G37*
G36*
X211000Y152480D02*
X191660D01*
Y143000D01*
X155000D01*
Y188000D01*
X180000D01*
X184000Y192000D01*
Y235666D01*
X211000D01*
Y152480D01*
D02*
G37*
G36*
X220745Y234856D02*
X224578Y233268D01*
X228029Y230963D01*
X230963Y228029D01*
X233268Y224578D01*
X234856Y220745D01*
X235666Y216675D01*
Y214600D01*
Y25400D01*
Y23325D01*
X234856Y19255D01*
X233268Y15422D01*
X230963Y11971D01*
X228029Y9037D01*
X224578Y6732D01*
X221796Y5579D01*
X221185Y5959D01*
X220212Y7088D01*
X220294Y7500D01*
Y23500D01*
X220119Y24378D01*
X219622Y25122D01*
X218878Y25619D01*
X218000Y25794D01*
X166000D01*
X165122Y25619D01*
X164378Y25122D01*
X163881Y24378D01*
X163706Y23500D01*
Y7500D01*
X163881Y6622D01*
X164054Y6363D01*
X163448Y4714D01*
X163168Y4363D01*
X23264Y4442D01*
X21528Y4601D01*
X17770Y5668D01*
X14272Y7407D01*
X11154Y9759D01*
X8521Y12645D01*
X6464Y15965D01*
X5052Y19607D01*
X4334Y23447D01*
Y25400D01*
Y214600D01*
Y216675D01*
X5144Y220745D01*
X6732Y224578D01*
X9037Y228029D01*
X11971Y230963D01*
X13876Y232236D01*
X15348Y231694D01*
X15984Y231239D01*
X16352Y230352D01*
X17500Y229876D01*
X17572D01*
X18629Y229438D01*
X19439Y228629D01*
X19876Y227572D01*
Y226428D01*
X19439Y225371D01*
X18629Y224562D01*
X17572Y224124D01*
X17500D01*
X16352Y223648D01*
X15876Y222500D01*
Y192500D01*
X16352Y191352D01*
X21852Y185852D01*
X23000Y185376D01*
X49000D01*
X50148Y185852D01*
X54193Y189897D01*
X55845Y190848D01*
X56807Y189897D01*
X67852Y178852D01*
X69000Y178376D01*
X74467D01*
X75233Y176529D01*
X72852Y174148D01*
X72376Y173000D01*
X72376Y145624D01*
X65672D01*
X50624Y160672D01*
Y174897D01*
X50148Y176045D01*
X47045Y179148D01*
X45897Y179624D01*
X23000Y179624D01*
X21852Y179148D01*
X18852Y176148D01*
X18376Y175000D01*
X18376Y144000D01*
X18852Y142852D01*
X36342Y125362D01*
X36619Y125247D01*
X36825Y125029D01*
X37170Y125019D01*
X37490Y124886D01*
X39158Y124240D01*
X39490Y124011D01*
Y111570D01*
X76790D01*
Y115801D01*
X78638Y116566D01*
X87352Y107852D01*
X88500Y107376D01*
X104000D01*
X105148Y107852D01*
X108648Y111352D01*
X109124Y112500D01*
Y122500D01*
X108648Y123648D01*
X90767Y141529D01*
X91529Y143596D01*
X92148Y143852D01*
X92797Y144501D01*
X93001D01*
Y144705D01*
X94148Y145852D01*
X94624Y147000D01*
Y156327D01*
X108648Y170352D01*
X108756Y170612D01*
X108965Y170800D01*
X108984Y171164D01*
X109124Y171500D01*
X109016Y171760D01*
X109031Y172041D01*
X110383Y174000D01*
X111500D01*
Y183521D01*
X111500D01*
X113500Y182174D01*
Y182000D01*
X118000D01*
Y187000D01*
X115471D01*
X113624Y187500D01*
X113624Y188788D01*
Y201000D01*
X113148Y202148D01*
X112000Y202624D01*
X109500D01*
X109000Y202958D01*
Y208750D01*
X109000Y208750D01*
X109124Y210000D01*
X109124Y210699D01*
Y221499D01*
X108648Y222647D01*
X108623Y222658D01*
Y231556D01*
X108570Y231684D01*
X108602Y231818D01*
X108338Y232243D01*
X108147Y232704D01*
X108020Y232757D01*
X107947Y232874D01*
X106845Y233666D01*
X107490Y235666D01*
X119376D01*
Y213000D01*
X119852Y211852D01*
X119852Y210898D01*
X119376Y209750D01*
Y203000D01*
X119852Y201852D01*
X120000Y201791D01*
X120000Y199750D01*
X120000Y198250D01*
Y196500D01*
X126500D01*
X133000D01*
X133000Y199962D01*
X134414Y201376D01*
X138328D01*
X150852Y188852D01*
X152000Y188376D01*
X152027D01*
X152221Y188121D01*
X152383Y187445D01*
X151877Y186467D01*
X150865Y185500D01*
X146250D01*
Y177500D01*
Y169500D01*
X151376D01*
X152250Y169500D01*
X153376Y167967D01*
Y164533D01*
X152250Y163000D01*
X151376Y163000D01*
X146250D01*
Y155000D01*
Y147000D01*
X151376D01*
X152250Y147000D01*
X153376Y145467D01*
Y143000D01*
X153852Y141852D01*
X155000Y141376D01*
X191660D01*
Y136780D01*
X228960D01*
Y152480D01*
X212624D01*
Y235666D01*
X216675D01*
X220745Y234856D01*
D02*
G37*
G36*
X49000Y174897D02*
Y160000D01*
X65000Y144000D01*
X86000D01*
X107500Y122500D01*
Y112500D01*
X104000Y109000D01*
X88500D01*
X76790Y120710D01*
Y127270D01*
X59152D01*
X58660Y128832D01*
X58634Y129270D01*
X59815Y130451D01*
X60500Y132105D01*
Y133895D01*
X59815Y135549D01*
X58549Y136815D01*
X56895Y137500D01*
X55105D01*
X53451Y136815D01*
X52185Y135549D01*
X51500Y133895D01*
Y132105D01*
X52185Y130451D01*
X53366Y129270D01*
X53340Y128832D01*
X52848Y127270D01*
X39490D01*
Y127270D01*
X37490Y126510D01*
X20000Y144000D01*
X20000Y175000D01*
X23000Y178000D01*
X45897Y178000D01*
X49000Y174897D01*
D02*
G37*
%LPC*%
G36*
X148000Y226000D02*
X144000D01*
Y221500D01*
X148000D01*
Y226000D01*
D02*
G37*
G36*
X140000D02*
X136000D01*
Y221500D01*
X140000D01*
Y226000D01*
D02*
G37*
G36*
X104999Y225499D02*
X101499D01*
Y221499D01*
X104999D01*
Y225499D01*
D02*
G37*
G36*
X96499D02*
X92999D01*
Y221499D01*
X96499D01*
Y225499D01*
D02*
G37*
G36*
X73500Y223000D02*
X69000D01*
Y219000D01*
X73500D01*
Y223000D01*
D02*
G37*
G36*
X65000D02*
X60500D01*
Y219000D01*
X65000D01*
Y223000D01*
D02*
G37*
G36*
X89001Y222999D02*
X84501D01*
Y218999D01*
X89001D01*
Y222999D01*
D02*
G37*
G36*
X80501D02*
X76001D01*
Y218999D01*
X80501D01*
Y222999D01*
D02*
G37*
G36*
X45500Y216586D02*
X37500D01*
Y206336D01*
X45500D01*
Y216586D01*
D02*
G37*
G36*
X32500D02*
X24500D01*
Y206336D01*
X32500D01*
Y216586D01*
D02*
G37*
G36*
X45500Y201336D02*
X37500D01*
Y191086D01*
X45500D01*
Y201336D01*
D02*
G37*
G36*
X32500D02*
X24500D01*
Y191086D01*
X32500D01*
Y201336D01*
D02*
G37*
G36*
X73500Y200500D02*
X69500D01*
Y197000D01*
X73500D01*
Y200500D01*
D02*
G37*
G36*
X64500D02*
X60500D01*
Y197000D01*
X64500D01*
Y200500D01*
D02*
G37*
G36*
X80001Y200499D02*
X76001D01*
Y196999D01*
X80001D01*
Y200499D01*
D02*
G37*
G36*
X104000Y187500D02*
X99000D01*
Y182000D01*
X104000D01*
Y187500D01*
D02*
G37*
G36*
Y179000D02*
X99000D01*
Y173500D01*
X104000D01*
Y179000D01*
D02*
G37*
G36*
X173250Y186000D02*
X166750D01*
Y179000D01*
X173250D01*
Y186000D01*
D02*
G37*
G36*
X163750D02*
X157250D01*
Y179000D01*
X163750D01*
Y186000D01*
D02*
G37*
G36*
X173250Y176000D02*
X166750D01*
Y169000D01*
X173250D01*
Y176000D01*
D02*
G37*
G36*
X163750D02*
X157250D01*
Y169000D01*
X163750D01*
Y176000D01*
D02*
G37*
G36*
X173250Y163500D02*
X166750D01*
Y156500D01*
X173250D01*
Y163500D01*
D02*
G37*
G36*
X163750D02*
X157250D01*
Y156500D01*
X163750D01*
Y163500D01*
D02*
G37*
G36*
X173250Y153500D02*
X166750D01*
Y146500D01*
X173250D01*
Y153500D01*
D02*
G37*
G36*
X163750D02*
X157250D01*
Y146500D01*
X163750D01*
Y153500D01*
D02*
G37*
G36*
X133000Y193500D02*
X128000D01*
Y190750D01*
X133000D01*
Y193500D01*
D02*
G37*
G36*
X125000D02*
X120000D01*
Y190750D01*
X125000D01*
Y193500D01*
D02*
G37*
G36*
X125500Y187000D02*
X121000D01*
Y182000D01*
X125500D01*
Y187000D01*
D02*
G37*
G36*
X143250Y185500D02*
X137250D01*
Y179000D01*
X143250D01*
Y185500D01*
D02*
G37*
G36*
X125500Y179000D02*
X121000D01*
Y174000D01*
X125500D01*
Y179000D01*
D02*
G37*
G36*
X118000D02*
X113500D01*
Y174000D01*
X118000D01*
Y179000D01*
D02*
G37*
G36*
X143250Y176000D02*
X137250D01*
Y169500D01*
X143250D01*
Y176000D01*
D02*
G37*
G36*
X126501Y165501D02*
X118251D01*
Y156501D01*
X126501D01*
Y165501D01*
D02*
G37*
G36*
X115251D02*
X107001D01*
Y156501D01*
X115251D01*
Y165501D01*
D02*
G37*
G36*
X143250Y163000D02*
X137250D01*
Y156500D01*
X143250D01*
Y163000D01*
D02*
G37*
G36*
Y153500D02*
X137250D01*
Y147000D01*
X143250D01*
Y153500D01*
D02*
G37*
G36*
X126501Y153501D02*
X118251D01*
Y144501D01*
X126501D01*
Y153501D01*
D02*
G37*
G36*
X115251D02*
X107001D01*
Y144501D01*
X115251D01*
Y153501D01*
D02*
G37*
G36*
X199760Y127080D02*
X162460D01*
Y122324D01*
X162396Y122209D01*
X162384Y122202D01*
X162183Y122127D01*
X161866Y122049D01*
X161443Y121984D01*
X160918Y121942D01*
X160264Y121926D01*
X160009Y121813D01*
X158938Y121600D01*
X157780Y120827D01*
X119976Y83023D01*
X119202Y81865D01*
X118931Y80499D01*
Y48135D01*
X118876Y48013D01*
X118857Y47303D01*
X118807Y46736D01*
X118731Y46276D01*
X118638Y45931D01*
X118546Y45706D01*
X118482Y45601D01*
X118329Y45585D01*
X118174Y45501D01*
X115999D01*
Y33501D01*
X128999D01*
Y45501D01*
X126824D01*
X126669Y45585D01*
X126517Y45601D01*
X126453Y45706D01*
X126361Y45931D01*
X126268Y46276D01*
X126191Y46736D01*
X126141Y47303D01*
X126122Y48013D01*
X126068Y48135D01*
Y79021D01*
X160460Y113413D01*
X162460Y112585D01*
Y111380D01*
X199760D01*
Y127080D01*
D02*
G37*
G36*
X11895Y125500D02*
X10105D01*
X8451Y124815D01*
X7185Y123549D01*
X6500Y121895D01*
Y120105D01*
X7185Y118451D01*
X8451Y117185D01*
X8699Y117082D01*
Y114918D01*
X8451Y114815D01*
X7185Y113549D01*
X6500Y111895D01*
Y110105D01*
X7185Y108451D01*
X8451Y107185D01*
X10105Y106500D01*
X11895D01*
X13549Y107185D01*
X14815Y108451D01*
X15500Y110105D01*
Y111895D01*
X14815Y113549D01*
X13549Y114815D01*
X13301Y114918D01*
Y117082D01*
X13549Y117185D01*
X14815Y118451D01*
X15500Y120105D01*
Y121895D01*
X14815Y123549D01*
X13549Y124815D01*
X11895Y125500D01*
D02*
G37*
G36*
X81094Y100500D02*
X78906D01*
X76884Y99663D01*
X75337Y98116D01*
X74500Y96094D01*
Y93906D01*
X75337Y91884D01*
X76884Y90337D01*
X78906Y89500D01*
X81094D01*
X83116Y90337D01*
X84663Y91884D01*
X85500Y93906D01*
Y96094D01*
X84663Y98116D01*
X83116Y99663D01*
X81094Y100500D01*
D02*
G37*
G36*
X59094D02*
X56906D01*
X54885Y99663D01*
X53337Y98116D01*
X52500Y96094D01*
Y93906D01*
X53337Y91884D01*
X54885Y90337D01*
X56906Y89500D01*
X59094D01*
X61115Y90337D01*
X62663Y91884D01*
X63500Y93906D01*
Y96094D01*
X62663Y98116D01*
X61115Y99663D01*
X59094Y100500D01*
D02*
G37*
G36*
X228960Y101680D02*
X191660D01*
Y97325D01*
X191576Y97170D01*
X191560Y97017D01*
X191455Y96953D01*
X191230Y96861D01*
X190885Y96768D01*
X190425Y96692D01*
X189858Y96642D01*
X189148Y96623D01*
X189025Y96569D01*
X151000D01*
X149634Y96297D01*
X148477Y95523D01*
X137476Y84522D01*
X136702Y83365D01*
X136431Y81999D01*
Y48135D01*
X136376Y48013D01*
X136357Y47303D01*
X136307Y46736D01*
X136231Y46276D01*
X136138Y45931D01*
X136046Y45706D01*
X135982Y45601D01*
X135829Y45585D01*
X135674Y45501D01*
X133499D01*
Y33501D01*
X146499D01*
Y45501D01*
X144324D01*
X144169Y45585D01*
X144017Y45601D01*
X143953Y45706D01*
X143861Y45931D01*
X143768Y46276D01*
X143691Y46736D01*
X143641Y47303D01*
X143622Y48013D01*
X143568Y48135D01*
Y80521D01*
X152478Y89431D01*
X189026D01*
X189148Y89377D01*
X189858Y89358D01*
X190425Y89308D01*
X190885Y89232D01*
X191230Y89139D01*
X191455Y89047D01*
X191560Y88983D01*
X191576Y88830D01*
X191660Y88675D01*
Y85980D01*
X228960D01*
Y101680D01*
D02*
G37*
G36*
X199760Y76280D02*
X162460D01*
Y60580D01*
X199760D01*
Y76280D01*
D02*
G37*
G36*
X47590Y101870D02*
X10290D01*
Y86170D01*
X11507D01*
X11905Y84170D01*
X11852Y84148D01*
X11376Y83000D01*
Y55000D01*
X11852Y53852D01*
X13000Y53376D01*
X81000D01*
X82148Y53852D01*
X82624Y55000D01*
Y83000D01*
X82148Y84148D01*
X81000Y84624D01*
X48685D01*
X47590Y86170D01*
X47590Y86624D01*
Y101870D01*
D02*
G37*
G36*
Y51070D02*
X31440D01*
Y45720D01*
X47590D01*
Y51070D01*
D02*
G37*
G36*
X26440D02*
X10290D01*
Y45720D01*
X26440D01*
Y51070D01*
D02*
G37*
G36*
X47590Y40720D02*
X31440D01*
Y35370D01*
X47590D01*
Y40720D01*
D02*
G37*
G36*
X26440D02*
X10290D01*
Y35370D01*
X26440D01*
Y40720D01*
D02*
G37*
G36*
X228960Y50880D02*
X191660D01*
Y35180D01*
X228960D01*
Y50880D01*
D02*
G37*
G36*
X128999Y31501D02*
X115999D01*
Y19501D01*
X118174D01*
X118329Y19417D01*
X118482Y19401D01*
X118546Y19296D01*
X118638Y19071D01*
X118731Y18726D01*
X118807Y18266D01*
X118857Y17699D01*
X118876Y16989D01*
X118931Y16866D01*
Y16501D01*
X119202Y15135D01*
X119976Y13977D01*
X120526Y13427D01*
X120581Y13295D01*
X120810Y13064D01*
X121479Y12363D01*
X121500Y12339D01*
Y12105D01*
X122185Y10451D01*
X123451Y9185D01*
X125105Y8500D01*
X126895D01*
X128549Y9185D01*
X129815Y10451D01*
X130500Y12105D01*
Y13895D01*
X129815Y15549D01*
X128549Y16815D01*
X128323Y16908D01*
X128091Y17501D01*
X128999Y19501D01*
X128999D01*
Y31501D01*
D02*
G37*
G36*
X47895Y23500D02*
X46105D01*
X44451Y22815D01*
X43185Y21549D01*
X42500Y19895D01*
Y18105D01*
X43185Y16451D01*
X44451Y15185D01*
X46105Y14500D01*
X47895D01*
X49549Y15185D01*
X49666Y15302D01*
X51122Y15379D01*
X51232Y15431D01*
X100522D01*
X105477Y10477D01*
X106634Y9703D01*
X108000Y9431D01*
X108827D01*
X108959Y9376D01*
X109285Y9376D01*
X110254Y9353D01*
X110286Y9350D01*
X110451Y9185D01*
X112105Y8500D01*
X113895D01*
X115549Y9185D01*
X116815Y10451D01*
X117500Y12105D01*
Y13895D01*
X116815Y15549D01*
X115549Y16815D01*
X113895Y17500D01*
X112105D01*
X110451Y16815D01*
X110334Y16698D01*
X109398Y16649D01*
X104523Y21523D01*
X103366Y22297D01*
X102000Y22569D01*
X51172D01*
X51041Y22624D01*
X50715Y22624D01*
X49746Y22647D01*
X49714Y22650D01*
X49549Y22815D01*
X47895Y23500D01*
D02*
G37*
G36*
X146499Y31501D02*
X133499D01*
Y19501D01*
X134866D01*
X135021Y19417D01*
X135174Y19401D01*
X135238Y19296D01*
X135330Y19071D01*
X135423Y18726D01*
X135499Y18266D01*
X135550Y17699D01*
X135565Y17098D01*
X135545Y16106D01*
X135528Y15892D01*
X135185Y15549D01*
X134500Y13895D01*
Y12105D01*
X135185Y10451D01*
X136451Y9185D01*
X138105Y8500D01*
X138655D01*
X139000Y8431D01*
X139345Y8500D01*
X139895D01*
X141549Y9185D01*
X142815Y10451D01*
X143500Y12105D01*
Y13895D01*
X142846Y15474D01*
X142815Y16885D01*
X142792Y16937D01*
X142814Y16989D01*
X142833Y17699D01*
X142883Y18266D01*
X142960Y18726D01*
X143053Y19071D01*
X143145Y19296D01*
X143209Y19401D01*
X143361Y19417D01*
X143516Y19501D01*
X146499D01*
Y31501D01*
D02*
G37*
%LPD*%
G36*
X163990Y114616D02*
X163954Y114937D01*
X163843Y115223D01*
X163659Y115476D01*
X163400Y115696D01*
X163069Y115881D01*
X162663Y116033D01*
X162184Y116151D01*
X161631Y116236D01*
X161004Y116286D01*
X160303Y116303D01*
Y120303D01*
X161004Y120320D01*
X161631Y120371D01*
X162184Y120455D01*
X162663Y120573D01*
X163069Y120725D01*
X163400Y120911D01*
X163659Y121130D01*
X163843Y121383D01*
X163954Y121670D01*
X163990Y121990D01*
Y114616D01*
D02*
G37*
G36*
X124519Y47210D02*
X124579Y46530D01*
X124679Y45930D01*
X124819Y45410D01*
X124999Y44970D01*
X125219Y44610D01*
X125479Y44330D01*
X125779Y44130D01*
X126119Y44010D01*
X126499Y43970D01*
X118499D01*
X118879Y44010D01*
X119219Y44130D01*
X119519Y44330D01*
X119779Y44610D01*
X119999Y44970D01*
X120179Y45410D01*
X120319Y45930D01*
X120419Y46530D01*
X120479Y47210D01*
X120499Y47970D01*
X124499D01*
X124519Y47210D01*
D02*
G37*
G36*
X193190Y89000D02*
X193151Y89380D01*
X193030Y89720D01*
X192831Y90020D01*
X192551Y90280D01*
X192190Y90500D01*
X191751Y90680D01*
X191231Y90820D01*
X190630Y90920D01*
X189951Y90980D01*
X189191Y91000D01*
Y95000D01*
X189951Y95020D01*
X190630Y95080D01*
X191231Y95180D01*
X191751Y95320D01*
X192190Y95500D01*
X192551Y95720D01*
X192831Y95980D01*
X193030Y96280D01*
X193151Y96620D01*
X193190Y97000D01*
Y89000D01*
D02*
G37*
G36*
X142019Y47210D02*
X142079Y46530D01*
X142179Y45930D01*
X142319Y45410D01*
X142499Y44970D01*
X142719Y44610D01*
X142979Y44330D01*
X143279Y44130D01*
X143619Y44010D01*
X143999Y43970D01*
X135999D01*
X136379Y44010D01*
X136719Y44130D01*
X137019Y44330D01*
X137279Y44610D01*
X137499Y44970D01*
X137679Y45410D01*
X137819Y45930D01*
X137919Y46530D01*
X137979Y47210D01*
X137999Y47970D01*
X141999D01*
X142019Y47210D01*
D02*
G37*
G36*
X81000Y55000D02*
X13000D01*
Y83000D01*
X81000D01*
Y55000D01*
D02*
G37*
%LPC*%
G36*
X76790Y76470D02*
X60640D01*
Y71120D01*
X76790D01*
Y76470D01*
D02*
G37*
G36*
X55640D02*
X39490D01*
Y71120D01*
X55640D01*
Y76470D01*
D02*
G37*
G36*
X76790Y66120D02*
X60640D01*
Y60770D01*
X76790D01*
Y66120D01*
D02*
G37*
G36*
X55640D02*
X39490D01*
Y60770D01*
X55640D01*
Y66120D01*
D02*
G37*
%LPD*%
G36*
X126119Y20991D02*
X125779Y20871D01*
X125479Y20671D01*
X125219Y20391D01*
X124999Y20031D01*
X124819Y19591D01*
X124679Y19071D01*
X124579Y18471D01*
X124519Y17791D01*
X124504Y17212D01*
X124560Y17268D01*
X125970Y16000D01*
X123000Y13030D01*
X122988Y13069D01*
X122950Y13131D01*
X122887Y13216D01*
X122684Y13452D01*
X121973Y14197D01*
X121732Y14440D01*
X124324Y17031D01*
X120499D01*
X120479Y17791D01*
X120419Y18471D01*
X120319Y19071D01*
X120179Y19591D01*
X119999Y20031D01*
X119779Y20391D01*
X119519Y20671D01*
X119219Y20871D01*
X118879Y20991D01*
X118499Y21031D01*
X126499D01*
X126119Y20991D01*
D02*
G37*
G36*
X49179Y21081D02*
X49250Y21064D01*
X49354Y21049D01*
X49665Y21025D01*
X50694Y21001D01*
X51036Y21000D01*
Y17000D01*
X49142Y16900D01*
Y21100D01*
X49179Y21081D01*
D02*
G37*
G36*
X110858Y10900D02*
X110821Y10919D01*
X110751Y10936D01*
X110646Y10951D01*
X110335Y10975D01*
X109306Y10999D01*
X108964Y11000D01*
Y15000D01*
X110858Y15100D01*
Y10900D01*
D02*
G37*
G36*
X142811Y20991D02*
X142471Y20871D01*
X142171Y20671D01*
X141911Y20391D01*
X141691Y20031D01*
X141511Y19591D01*
X141371Y19071D01*
X141271Y18471D01*
X141211Y17791D01*
X141191Y17031D01*
X139074D01*
X141191Y16849D01*
X141232Y15004D01*
X137041Y15272D01*
X137070Y15315D01*
X137095Y15390D01*
X137118Y15499D01*
X137137Y15642D01*
X137167Y16026D01*
X137189Y17103D01*
X137171Y17791D01*
X137111Y18471D01*
X137011Y19071D01*
X136871Y19591D01*
X136691Y20031D01*
X136471Y20391D01*
X136211Y20671D01*
X135911Y20871D01*
X135571Y20991D01*
X135191Y21031D01*
X143191D01*
X142811Y20991D01*
D02*
G37*
%LPC*%
G36*
X45500Y173914D02*
X37500D01*
Y163664D01*
X45500D01*
Y173914D01*
D02*
G37*
G36*
X32500D02*
X24500D01*
Y163664D01*
X32500D01*
Y173914D01*
D02*
G37*
G36*
X45500Y158664D02*
X37500D01*
Y148414D01*
X45500D01*
Y158664D01*
D02*
G37*
G36*
X32500D02*
X24500D01*
Y148414D01*
X32500D01*
Y158664D01*
D02*
G37*
%LPD*%
D10*
X93500Y197488D02*
Y203012D01*
X94988Y196000D02*
X101500D01*
X102500Y195000D01*
X93500Y197488D02*
X94988Y196000D01*
Y204500D02*
X102500D01*
X93500Y203012D02*
X94988Y204500D01*
D14*
X210310Y144630D02*
D03*
X181110Y119230D02*
D03*
X210310Y93830D02*
D03*
X181110Y68430D02*
D03*
X210310Y43030D02*
D03*
X58140Y119420D02*
D03*
X28940Y94020D02*
D03*
X58140Y68620D02*
D03*
X28940Y43220D02*
D03*
D15*
X126500Y204500D02*
D03*
X102500Y195000D02*
D03*
X126500D02*
D03*
Y214000D02*
D03*
X102500D02*
D03*
Y204500D02*
D03*
D16*
X159500Y212500D02*
D03*
X195500D02*
D03*
D17*
X35000Y161164D02*
D03*
Y203836D02*
D03*
D18*
X83251Y155001D02*
D03*
X116751D02*
D03*
D19*
X139999Y25501D02*
D03*
Y39501D02*
D03*
X67000Y217000D02*
D03*
Y203000D02*
D03*
X82501Y216999D02*
D03*
Y202999D02*
D03*
X122499Y25501D02*
D03*
Y39501D02*
D03*
D20*
X142000Y228000D02*
D03*
X128000D02*
D03*
X119500Y180500D02*
D03*
X105500D02*
D03*
X112999Y227999D02*
D03*
X98999D02*
D03*
D21*
X144750Y155000D02*
D03*
X165250D02*
D03*
X144750Y177500D02*
D03*
X165250D02*
D03*
D22*
X160303Y118303D02*
X181963D01*
X122499Y80499D02*
X160303Y118303D01*
X181963D02*
X182270Y118610D01*
X122499Y39501D02*
Y80499D01*
X108000Y13000D02*
X113000D01*
X102000Y19000D02*
X108000Y13000D01*
X47000Y19000D02*
X102000D01*
X122499Y16501D02*
X126000Y13000D01*
X151000Y93000D02*
X205260D01*
X205470Y93210D01*
X139999Y81999D02*
X151000Y93000D01*
X139999Y39501D02*
Y81999D01*
X127250Y227250D02*
X128000Y228000D01*
X127250Y214750D02*
Y227250D01*
X126500Y214000D02*
X127250Y214750D01*
X139191Y24693D02*
X139999Y25501D01*
X139191Y12191D02*
Y24693D01*
X139000Y12000D02*
X139191Y12191D01*
X122499Y16501D02*
Y25501D01*
D23*
X171250Y11500D02*
X173916D01*
X172583D01*
Y19497D01*
X171250Y18165D01*
X166000Y7500D02*
X218000D01*
X166000Y23500D02*
X218000D01*
X179000Y7500D02*
Y23500D01*
X218000Y7500D02*
Y23500D01*
X192000Y7500D02*
Y23500D01*
X205000Y7500D02*
Y23500D01*
X166000Y7500D02*
Y23500D01*
D24*
X11000Y111000D02*
D03*
Y121000D02*
D03*
X8000Y162000D02*
D03*
X47000Y19000D02*
D03*
X113000Y13000D02*
D03*
X88000Y10000D02*
D03*
X126000Y13000D02*
D03*
X132000Y183000D02*
D03*
X90920Y190839D02*
D03*
X184000Y104000D02*
D03*
X227000Y79000D02*
D03*
X85000Y232000D02*
D03*
X226000Y16000D02*
D03*
X158000Y10000D02*
D03*
X31000Y29000D02*
D03*
X22000Y10000D02*
D03*
X114000Y207000D02*
D03*
X91000Y169000D02*
D03*
Y176000D02*
D03*
Y184000D02*
D03*
X41000Y106000D02*
D03*
X224000Y164000D02*
D03*
X223000Y225000D02*
D03*
X139000Y13000D02*
D03*
X63000Y232000D02*
D03*
X17000Y227000D02*
D03*
X126000Y98000D02*
D03*
X158000Y57000D02*
D03*
X80000Y49000D02*
D03*
X59000D02*
D03*
X56000Y133000D02*
D03*
X132000Y174000D02*
D03*
Y156000D02*
D03*
X46500Y228500D02*
D03*
X36250D02*
D03*
X26000D02*
D03*
D25*
X31000Y65000D02*
D03*
X21000D02*
D03*
Y77000D02*
D03*
X195000Y176000D02*
D03*
X92500Y114500D02*
D03*
X193000Y161000D02*
D03*
X181000Y154000D02*
D03*
X80000Y95000D02*
D03*
X58000D02*
D03*
X31000Y77000D02*
D03*
X127500Y114500D02*
D03*
X117500D02*
D03*
X102500D02*
D03*
M02*
