G04*
G04 #@! TF.GenerationSoftware,Altium Limited,Altium Designer,25.8.1 (18)*
G04*
G04 Layer_Color=16776960*
%FSLAX44Y44*%
%MOMM*%
G71*
G04*
G04 #@! TF.SameCoordinates,95318AD3-7100-4B61-A3D3-6F4831590F2A*
G04*
G04*
G04 #@! TF.FilePolarity,Positive*
G04*
G01*
G75*
%ADD10C,0.2540*%
%ADD11C,0.2000*%
%ADD13C,0.3048*%
%ADD28C,0.1500*%
G36*
X21473Y54220D02*
X21497D01*
Y54196D01*
X21545D01*
Y54172D01*
X21834D01*
Y54148D01*
X21881D01*
Y54124D01*
X22098D01*
Y54100D01*
X22146D01*
Y54076D01*
X22194D01*
Y54052D01*
X22410D01*
Y54028D01*
X22458D01*
Y54004D01*
X22699D01*
Y53980D01*
X22722D01*
Y53956D01*
X22819D01*
Y53931D01*
X22891D01*
Y53907D01*
X22939D01*
Y53884D01*
X23107D01*
Y53859D01*
X23155D01*
Y53835D01*
X23251D01*
Y53811D01*
X23299D01*
Y53787D01*
X23347D01*
Y53763D01*
X23516D01*
Y53739D01*
X23563D01*
Y53715D01*
X23612D01*
Y53691D01*
X23660D01*
Y53667D01*
X23756D01*
Y53643D01*
X23804D01*
Y53619D01*
X23852D01*
Y53595D01*
X23972D01*
Y53571D01*
X24020D01*
Y53547D01*
X24116D01*
Y53523D01*
X24164D01*
Y53499D01*
X24212D01*
Y53475D01*
X24260D01*
Y53451D01*
X24308D01*
Y53427D01*
X24429D01*
Y53403D01*
X24453D01*
Y53379D01*
X24525D01*
Y53355D01*
X24573D01*
Y53331D01*
X24597D01*
Y53307D01*
X24717D01*
Y53283D01*
X24765D01*
Y53259D01*
X24813D01*
Y53235D01*
X24861D01*
Y53211D01*
X24909D01*
Y53187D01*
X24957D01*
Y53163D01*
X25005D01*
Y53139D01*
X25053D01*
Y53115D01*
X25101D01*
Y53091D01*
X25198D01*
Y53067D01*
X25246D01*
Y53042D01*
X25294D01*
Y53018D01*
X25342D01*
Y52994D01*
X25390D01*
Y52970D01*
X25462D01*
Y52946D01*
X25486D01*
Y52922D01*
X25534D01*
Y52898D01*
X25582D01*
Y52874D01*
X25630D01*
Y52850D01*
X25654D01*
Y52826D01*
X25678D01*
Y52802D01*
X25726D01*
Y52778D01*
X25774D01*
Y52754D01*
X25822D01*
Y52730D01*
X25870D01*
Y52706D01*
X25918D01*
Y52682D01*
X25966D01*
Y52658D01*
X26014D01*
Y52634D01*
X26063D01*
Y52610D01*
X26111D01*
Y52586D01*
X26159D01*
Y52562D01*
X26207D01*
Y52538D01*
X26255D01*
Y52514D01*
X26279D01*
Y52490D01*
X26303D01*
Y52466D01*
X26327D01*
Y52442D01*
X26399D01*
Y52418D01*
X26423D01*
Y52394D01*
X26495D01*
Y52370D01*
X26519D01*
Y52346D01*
X26567D01*
Y52322D01*
X26591D01*
Y52298D01*
X26615D01*
Y52274D01*
X26663D01*
Y52249D01*
X26711D01*
Y52225D01*
X26759D01*
Y52201D01*
X26807D01*
Y52177D01*
X26832D01*
Y52153D01*
X26855D01*
Y52129D01*
X26904D01*
Y52105D01*
X26952D01*
Y52081D01*
X27000D01*
Y52057D01*
X27024D01*
Y52033D01*
X27048D01*
Y52009D01*
X27072D01*
Y51985D01*
X27144D01*
Y51961D01*
X27168D01*
Y51937D01*
X27192D01*
Y51913D01*
X27216D01*
Y51889D01*
X27264D01*
Y51865D01*
X27312D01*
Y51841D01*
X27360D01*
Y51817D01*
X27384D01*
Y51793D01*
X27408D01*
Y51769D01*
X27456D01*
Y51745D01*
X27504D01*
Y51721D01*
X27528D01*
Y51697D01*
X27552D01*
Y51673D01*
X27576D01*
Y51649D01*
X27624D01*
Y51625D01*
X27673D01*
Y51601D01*
X27696D01*
Y51577D01*
X27720D01*
Y51553D01*
X27745D01*
Y51529D01*
X27769D01*
Y51505D01*
X27793D01*
Y51481D01*
X27841D01*
Y51456D01*
X27889D01*
Y51432D01*
X27937D01*
Y51409D01*
X27961D01*
Y51385D01*
X27985D01*
Y51360D01*
X28009D01*
Y51336D01*
X28033D01*
Y51312D01*
X28057D01*
Y51288D01*
X28129D01*
Y51264D01*
X28153D01*
Y51240D01*
X28177D01*
Y51216D01*
X28201D01*
Y51192D01*
X28225D01*
Y51168D01*
X28249D01*
Y51144D01*
X28297D01*
Y51120D01*
X28345D01*
Y51096D01*
X28369D01*
Y51072D01*
X28417D01*
Y51048D01*
X28441D01*
Y51024D01*
X28465D01*
Y51000D01*
X28489D01*
Y50976D01*
X28514D01*
Y50952D01*
X28562D01*
Y50928D01*
X28610D01*
Y50904D01*
X28634D01*
Y50880D01*
X28658D01*
Y50856D01*
X28682D01*
Y50832D01*
X28706D01*
Y50808D01*
X28730D01*
Y50784D01*
X28754D01*
Y50760D01*
X28778D01*
Y50736D01*
X28826D01*
Y50712D01*
X28874D01*
Y50688D01*
X28898D01*
Y50664D01*
X28922D01*
Y50640D01*
X28946D01*
Y50616D01*
X28970D01*
Y50592D01*
X28994D01*
Y50567D01*
X29018D01*
Y50543D01*
X29042D01*
Y50519D01*
X29090D01*
Y50495D01*
X29138D01*
Y50471D01*
X29186D01*
Y50447D01*
X29210D01*
Y50423D01*
X29234D01*
Y50399D01*
X29258D01*
Y50375D01*
X29282D01*
Y50351D01*
X29306D01*
Y50327D01*
X29330D01*
Y50303D01*
X29355D01*
Y50279D01*
X29379D01*
Y50255D01*
X29403D01*
Y50231D01*
X29427D01*
Y50207D01*
X29475D01*
Y50183D01*
X29523D01*
Y50159D01*
X29547D01*
Y50135D01*
X29571D01*
Y50111D01*
X29595D01*
Y50087D01*
X29619D01*
Y50063D01*
X29643D01*
Y50039D01*
X29667D01*
Y50015D01*
X29691D01*
Y49991D01*
X29715D01*
Y49967D01*
X29739D01*
Y49943D01*
X29763D01*
Y49919D01*
X29787D01*
Y49895D01*
X29811D01*
Y49871D01*
X29859D01*
Y49847D01*
X29907D01*
Y49823D01*
X29931D01*
Y49798D01*
X29979D01*
Y49774D01*
X30003D01*
Y49750D01*
X30027D01*
Y49726D01*
X30051D01*
Y49702D01*
X30075D01*
Y49678D01*
X30099D01*
Y49654D01*
X30124D01*
Y49630D01*
X30148D01*
Y49606D01*
X30171D01*
Y49582D01*
X30196D01*
Y49558D01*
X30244D01*
Y49534D01*
X30292D01*
Y49510D01*
X30316D01*
Y49486D01*
X30340D01*
Y49462D01*
X30364D01*
Y49438D01*
X30388D01*
Y49414D01*
X30412D01*
Y49390D01*
X30484D01*
Y49366D01*
X30508D01*
Y49342D01*
X30532D01*
Y49318D01*
X30556D01*
Y49294D01*
X30580D01*
Y49270D01*
X30604D01*
Y49246D01*
X30652D01*
Y49222D01*
X30700D01*
Y49198D01*
X30748D01*
Y49174D01*
X30796D01*
Y49150D01*
X30940D01*
Y49174D01*
X30989D01*
Y49198D01*
X31037D01*
Y49222D01*
X31205D01*
Y49246D01*
X31253D01*
Y49270D01*
X31349D01*
Y49294D01*
X31397D01*
Y49318D01*
X31469D01*
Y49342D01*
X31565D01*
Y49366D01*
X31613D01*
Y49390D01*
X31709D01*
Y49414D01*
X31757D01*
Y49438D01*
X31854D01*
Y49462D01*
X31926D01*
Y49486D01*
X31974D01*
Y49510D01*
X32070D01*
Y49534D01*
X32118D01*
Y49558D01*
X32286D01*
Y49582D01*
X32334D01*
Y49606D01*
X32382D01*
Y49630D01*
X32478D01*
Y49654D01*
X32526D01*
Y49678D01*
X32695D01*
Y49702D01*
X32743D01*
Y49726D01*
X33007D01*
Y49750D01*
X33079D01*
Y49774D01*
X33127D01*
Y49798D01*
X33391D01*
Y49823D01*
X33440D01*
Y49847D01*
X34064D01*
Y49871D01*
X34112D01*
Y49895D01*
X34160D01*
Y49919D01*
X34593D01*
Y49895D01*
X34665D01*
Y49871D01*
X34689D01*
Y49847D01*
X35266D01*
Y49823D01*
X35314D01*
Y49798D01*
X35530D01*
Y49774D01*
X35578D01*
Y49750D01*
X35650D01*
Y49726D01*
X35794D01*
Y49702D01*
X35842D01*
Y49678D01*
X36011D01*
Y49654D01*
X36059D01*
Y49630D01*
X36155D01*
Y49606D01*
X36203D01*
Y49582D01*
X36251D01*
Y49558D01*
X36299D01*
Y49534D01*
X36347D01*
Y49510D01*
X36467D01*
Y49486D01*
X36515D01*
Y49462D01*
X36563D01*
Y49438D01*
X36611D01*
Y49414D01*
X36659D01*
Y49390D01*
X36707D01*
Y49366D01*
X36755D01*
Y49342D01*
X36804D01*
Y49318D01*
X36852D01*
Y49294D01*
X36900D01*
Y49270D01*
X36948D01*
Y49246D01*
X36996D01*
Y49222D01*
X37044D01*
Y49198D01*
X37092D01*
Y49174D01*
X37140D01*
Y49150D01*
X37188D01*
Y49126D01*
X37236D01*
Y49102D01*
X37284D01*
Y49078D01*
X37308D01*
Y49054D01*
X37356D01*
Y49030D01*
X37380D01*
Y49006D01*
X37404D01*
Y48981D01*
X37452D01*
Y48958D01*
X37500D01*
Y48934D01*
X37524D01*
Y48910D01*
X37548D01*
Y48885D01*
X37573D01*
Y48861D01*
X37596D01*
Y48837D01*
X37620D01*
Y48813D01*
X37693D01*
Y48789D01*
X37717D01*
Y48765D01*
X37741D01*
Y48741D01*
X37765D01*
Y48717D01*
X37813D01*
Y48693D01*
X37861D01*
Y48669D01*
X37909D01*
Y48645D01*
X37933D01*
Y48621D01*
X37957D01*
Y48597D01*
X37981D01*
Y48573D01*
X38005D01*
Y48549D01*
X38029D01*
Y48525D01*
X38053D01*
Y48501D01*
X38077D01*
Y48477D01*
X38101D01*
Y48453D01*
X38125D01*
Y48429D01*
X38149D01*
Y48405D01*
X38221D01*
Y48381D01*
X38245D01*
Y48357D01*
X38269D01*
Y48333D01*
X38293D01*
Y48309D01*
X38317D01*
Y48285D01*
X38341D01*
Y48261D01*
X38365D01*
Y48237D01*
X38389D01*
Y48213D01*
X38414D01*
Y48189D01*
X38438D01*
Y48165D01*
X38461D01*
Y48141D01*
X38486D01*
Y48116D01*
X38510D01*
Y48092D01*
X38534D01*
Y48068D01*
X38558D01*
Y48044D01*
X38582D01*
Y48020D01*
X38606D01*
Y47996D01*
X38630D01*
Y47972D01*
X38654D01*
Y47948D01*
X38678D01*
Y47924D01*
X38702D01*
Y47900D01*
X38726D01*
Y47876D01*
X38750D01*
Y47852D01*
X38774D01*
Y47828D01*
X38798D01*
Y47804D01*
X38822D01*
Y47780D01*
X38846D01*
Y47732D01*
X38870D01*
Y47684D01*
X38894D01*
Y47660D01*
X38918D01*
Y47636D01*
X38942D01*
Y47612D01*
X38966D01*
Y47588D01*
X38990D01*
Y47564D01*
X39014D01*
Y47540D01*
X39038D01*
Y47516D01*
X39062D01*
Y47468D01*
X39086D01*
Y47444D01*
X39110D01*
Y47396D01*
X39134D01*
Y47348D01*
X39158D01*
Y47324D01*
X39182D01*
Y47299D01*
X39206D01*
Y47276D01*
X39230D01*
Y47251D01*
X39255D01*
Y47203D01*
X39279D01*
Y47155D01*
X39302D01*
Y47131D01*
X39327D01*
Y47107D01*
X39351D01*
Y47083D01*
X39375D01*
Y47059D01*
X39399D01*
Y47035D01*
X39423D01*
Y46987D01*
X39447D01*
Y46939D01*
X39471D01*
Y46915D01*
X39495D01*
Y46891D01*
X39519D01*
Y46843D01*
X39543D01*
Y46819D01*
X39567D01*
Y46747D01*
X39591D01*
Y46723D01*
X39615D01*
Y46651D01*
X39639D01*
Y46627D01*
X39663D01*
Y46603D01*
X39687D01*
Y46579D01*
X39711D01*
Y46531D01*
X39735D01*
Y46483D01*
X39759D01*
Y46434D01*
X39783D01*
Y46386D01*
X39807D01*
Y46338D01*
X39831D01*
Y46290D01*
X39855D01*
Y46242D01*
X39879D01*
Y46194D01*
X39903D01*
Y46146D01*
X39927D01*
Y46098D01*
X39951D01*
Y46050D01*
X39975D01*
Y46002D01*
X39999D01*
Y45954D01*
X40023D01*
Y45906D01*
X40047D01*
Y45858D01*
X40072D01*
Y45762D01*
X40096D01*
Y45690D01*
X40120D01*
Y45665D01*
X40144D01*
Y45594D01*
X40168D01*
Y45569D01*
X40192D01*
Y45449D01*
X40216D01*
Y45401D01*
X40240D01*
Y45353D01*
X40264D01*
Y45257D01*
X40288D01*
Y45209D01*
X40312D01*
Y45041D01*
X40336D01*
Y44993D01*
X40360D01*
Y44777D01*
X40384D01*
Y44728D01*
X40408D01*
Y44680D01*
X40432D01*
Y44392D01*
X40456D01*
Y44344D01*
X40480D01*
Y43335D01*
X40456D01*
Y43287D01*
X40432D01*
Y42998D01*
X40408D01*
Y42950D01*
X40384D01*
Y42902D01*
X40360D01*
Y42686D01*
X40336D01*
Y42638D01*
X40312D01*
Y42470D01*
X40288D01*
Y42422D01*
X40264D01*
Y42326D01*
X40240D01*
Y42277D01*
X40216D01*
Y42229D01*
X40192D01*
Y42181D01*
X40168D01*
Y42133D01*
X40144D01*
Y42013D01*
X40120D01*
Y41965D01*
X40096D01*
Y41917D01*
X40072D01*
Y41869D01*
X40047D01*
Y41845D01*
X40023D01*
Y41773D01*
X39999D01*
Y41725D01*
X39975D01*
Y41677D01*
X39951D01*
Y41629D01*
X39927D01*
Y41581D01*
X39903D01*
Y41533D01*
X39879D01*
Y41508D01*
X39855D01*
Y41436D01*
X39831D01*
Y41412D01*
X39807D01*
Y41364D01*
X39783D01*
Y41340D01*
X39759D01*
Y41316D01*
X39735D01*
Y41268D01*
X39711D01*
Y41220D01*
X39687D01*
Y41196D01*
X39663D01*
Y41172D01*
X39639D01*
Y41124D01*
X39615D01*
Y41076D01*
X39591D01*
Y41052D01*
X39567D01*
Y41028D01*
X39543D01*
Y41004D01*
X39519D01*
Y40980D01*
X39495D01*
Y40956D01*
X39471D01*
Y40908D01*
X39447D01*
Y40860D01*
X39423D01*
Y40812D01*
X39399D01*
Y40788D01*
X39375D01*
Y40764D01*
X39351D01*
Y40740D01*
X39327D01*
Y40716D01*
X39302D01*
Y40691D01*
X39279D01*
Y40668D01*
X39255D01*
Y40644D01*
X39230D01*
Y40620D01*
X39206D01*
Y40595D01*
X39182D01*
Y40571D01*
X39158D01*
Y40547D01*
X39134D01*
Y40523D01*
X39110D01*
Y40499D01*
X39086D01*
Y40475D01*
X39062D01*
Y40451D01*
X39038D01*
Y40427D01*
X39014D01*
Y40403D01*
X38990D01*
Y40379D01*
X38966D01*
Y40355D01*
X38942D01*
Y40331D01*
X38918D01*
Y40307D01*
X38894D01*
Y40283D01*
X38870D01*
Y40259D01*
X38846D01*
Y40235D01*
X38822D01*
Y40211D01*
X38798D01*
Y40187D01*
X38774D01*
Y40163D01*
X38750D01*
Y40139D01*
X38726D01*
Y40115D01*
X38702D01*
Y40091D01*
X38654D01*
Y40067D01*
X38630D01*
Y39947D01*
X38654D01*
Y39874D01*
X38678D01*
Y39827D01*
X38702D01*
Y39778D01*
X38726D01*
Y39730D01*
X38750D01*
Y39634D01*
X38774D01*
Y39586D01*
X38798D01*
Y39538D01*
X38822D01*
Y39490D01*
X38846D01*
Y39442D01*
X38870D01*
Y39322D01*
X38894D01*
Y39274D01*
X38918D01*
Y39226D01*
X38942D01*
Y39178D01*
X38966D01*
Y39130D01*
X38990D01*
Y39034D01*
X39014D01*
Y38986D01*
X39038D01*
Y38937D01*
X39062D01*
Y38889D01*
X39086D01*
Y38841D01*
X39110D01*
Y38721D01*
X39134D01*
Y38697D01*
X39158D01*
Y38625D01*
X39182D01*
Y38601D01*
X39206D01*
Y38505D01*
X39230D01*
Y38433D01*
X39255D01*
Y38385D01*
X39279D01*
Y38337D01*
X39302D01*
Y38289D01*
X39327D01*
Y38193D01*
X39351D01*
Y38144D01*
X39375D01*
Y38096D01*
X39399D01*
Y38048D01*
X39423D01*
Y38000D01*
X39447D01*
Y37952D01*
X39471D01*
Y37904D01*
X39495D01*
Y37808D01*
X39519D01*
Y37736D01*
X39543D01*
Y37712D01*
X39567D01*
Y37640D01*
X39591D01*
Y37616D01*
X39615D01*
Y37544D01*
X39639D01*
Y37496D01*
X39663D01*
Y37448D01*
X39687D01*
Y37352D01*
X39711D01*
Y37303D01*
X39735D01*
Y37255D01*
X39759D01*
Y37207D01*
X39783D01*
Y37111D01*
X39807D01*
Y37039D01*
X39831D01*
Y37015D01*
X39855D01*
Y36943D01*
X39879D01*
Y36919D01*
X39903D01*
Y36871D01*
X39927D01*
Y36823D01*
X39951D01*
Y36751D01*
X39975D01*
Y36655D01*
X39999D01*
Y36607D01*
X40023D01*
Y36559D01*
X40047D01*
Y36511D01*
X40072D01*
Y36462D01*
X40096D01*
Y36414D01*
X40120D01*
Y36366D01*
X40144D01*
Y36270D01*
X40168D01*
Y36222D01*
X40192D01*
Y36174D01*
X40216D01*
Y36126D01*
X40240D01*
Y36078D01*
X40264D01*
Y36030D01*
X40288D01*
Y35982D01*
X40312D01*
Y35934D01*
X40336D01*
Y35886D01*
X40360D01*
Y35790D01*
X40384D01*
Y35717D01*
X40408D01*
Y35694D01*
X40432D01*
Y35621D01*
X40456D01*
Y35597D01*
X40480D01*
Y35525D01*
X40504D01*
Y35477D01*
X40528D01*
Y35429D01*
X40552D01*
Y35333D01*
X40576D01*
Y35285D01*
X40600D01*
Y35237D01*
X40624D01*
Y35189D01*
X40648D01*
Y35141D01*
X40672D01*
Y35093D01*
X40696D01*
Y35045D01*
X40720D01*
Y34997D01*
X40744D01*
Y34949D01*
X40768D01*
Y34852D01*
X40792D01*
Y34804D01*
X40816D01*
Y34756D01*
X40840D01*
Y34684D01*
X40864D01*
Y34660D01*
X40888D01*
Y34588D01*
X40912D01*
Y34564D01*
X40936D01*
Y34516D01*
X40960D01*
Y34468D01*
X40985D01*
Y34420D01*
X41009D01*
Y34300D01*
X41033D01*
Y34252D01*
X41057D01*
Y34204D01*
X41081D01*
Y34156D01*
X41105D01*
Y34108D01*
X41129D01*
Y34060D01*
X41153D01*
Y34011D01*
X41177D01*
Y33915D01*
X41201D01*
Y33867D01*
X41225D01*
Y33819D01*
X41249D01*
Y33771D01*
X41273D01*
Y33723D01*
X41297D01*
Y33675D01*
X41321D01*
Y33627D01*
X41345D01*
Y33579D01*
X41369D01*
Y33531D01*
X41393D01*
Y33459D01*
X41417D01*
Y33363D01*
X41441D01*
Y33339D01*
X41465D01*
Y33267D01*
X41489D01*
Y33219D01*
X41513D01*
Y33170D01*
X41537D01*
Y33122D01*
X41561D01*
Y33074D01*
X41585D01*
Y32978D01*
X41609D01*
Y32930D01*
X41633D01*
Y32882D01*
X41657D01*
Y32834D01*
X41681D01*
Y32786D01*
X41705D01*
Y32738D01*
X41729D01*
Y32690D01*
X41754D01*
Y32570D01*
X41778D01*
Y32546D01*
X41802D01*
Y32498D01*
X41826D01*
Y32450D01*
X41850D01*
Y32401D01*
X41874D01*
Y32329D01*
X41898D01*
Y32305D01*
X41922D01*
Y32185D01*
X41946D01*
Y32137D01*
X41970D01*
Y32089D01*
X41994D01*
Y32041D01*
X42018D01*
Y31993D01*
X42042D01*
Y31945D01*
X42066D01*
Y31897D01*
X42090D01*
Y31801D01*
X42114D01*
Y31753D01*
X42138D01*
Y31705D01*
X42162D01*
Y31657D01*
X42186D01*
Y31609D01*
X42210D01*
Y31488D01*
X42234D01*
Y31440D01*
X42258D01*
Y31416D01*
X42282D01*
Y31344D01*
X42306D01*
Y31320D01*
X42330D01*
Y31248D01*
X42354D01*
Y31200D01*
X42378D01*
Y31104D01*
X42402D01*
Y31056D01*
X42426D01*
Y31008D01*
X42450D01*
Y30960D01*
X42474D01*
Y30912D01*
X42498D01*
Y30816D01*
X42522D01*
Y30768D01*
X42546D01*
Y30719D01*
X42571D01*
Y30671D01*
X42594D01*
Y30623D01*
X42619D01*
Y30503D01*
X42643D01*
Y30455D01*
X42667D01*
Y30407D01*
X42691D01*
Y30359D01*
X42715D01*
Y30311D01*
X42739D01*
Y30215D01*
X42763D01*
Y30167D01*
X42787D01*
Y30119D01*
X42811D01*
Y30071D01*
X42835D01*
Y29999D01*
X42859D01*
Y29903D01*
X42883D01*
Y29854D01*
X42907D01*
Y29758D01*
X42931D01*
Y29710D01*
X42955D01*
Y29614D01*
X42979D01*
Y29566D01*
X43003D01*
Y29494D01*
X43027D01*
Y29398D01*
X43051D01*
Y29350D01*
X43075D01*
Y29254D01*
X43099D01*
Y29206D01*
X43123D01*
Y29182D01*
X43147D01*
Y28196D01*
X43027D01*
Y28221D01*
X42979D01*
Y28245D01*
X42955D01*
Y28268D01*
X42931D01*
Y28293D01*
X42907D01*
Y28317D01*
X42883D01*
Y28341D01*
X42859D01*
Y28365D01*
X42835D01*
Y28389D01*
X42811D01*
Y28413D01*
X42787D01*
Y28437D01*
X42763D01*
Y28461D01*
X42739D01*
Y28485D01*
X42715D01*
Y28533D01*
X42691D01*
Y28581D01*
X42667D01*
Y28605D01*
X42643D01*
Y28629D01*
X42619D01*
Y28677D01*
X42594D01*
Y28701D01*
X42571D01*
Y28773D01*
X42546D01*
Y28797D01*
X42522D01*
Y28869D01*
X42498D01*
Y28893D01*
X42474D01*
Y28917D01*
X42450D01*
Y28941D01*
X42426D01*
Y28989D01*
X42402D01*
Y29037D01*
X42378D01*
Y29086D01*
X42354D01*
Y29134D01*
X42330D01*
Y29182D01*
X42306D01*
Y29206D01*
X42282D01*
Y29230D01*
X42258D01*
Y29278D01*
X42234D01*
Y29326D01*
X42210D01*
Y29374D01*
X42186D01*
Y29422D01*
X42162D01*
Y29470D01*
X42138D01*
Y29494D01*
X42114D01*
Y29518D01*
X42090D01*
Y29542D01*
X42066D01*
Y29614D01*
X42042D01*
Y29638D01*
X42018D01*
Y29686D01*
X41994D01*
Y29758D01*
X41970D01*
Y29782D01*
X41946D01*
Y29854D01*
X41922D01*
Y29878D01*
X41898D01*
Y29927D01*
X41874D01*
Y29975D01*
X41850D01*
Y29999D01*
X41826D01*
Y30023D01*
X41802D01*
Y30071D01*
X41778D01*
Y30119D01*
X41754D01*
Y30167D01*
X41729D01*
Y30215D01*
X41705D01*
Y30263D01*
X41681D01*
Y30311D01*
X41657D01*
Y30359D01*
X41633D01*
Y30407D01*
X41609D01*
Y30455D01*
X41585D01*
Y30503D01*
X41561D01*
Y30551D01*
X41537D01*
Y30599D01*
X41513D01*
Y30623D01*
X41489D01*
Y30647D01*
X41465D01*
Y30696D01*
X41441D01*
Y30719D01*
X41417D01*
Y30792D01*
X41393D01*
Y30816D01*
X41369D01*
Y30888D01*
X41345D01*
Y30936D01*
X41321D01*
Y30984D01*
X41297D01*
Y31032D01*
X41273D01*
Y31056D01*
X41249D01*
Y31128D01*
X41225D01*
Y31176D01*
X41201D01*
Y31224D01*
X41177D01*
Y31248D01*
X41153D01*
Y31272D01*
X41129D01*
Y31296D01*
X41105D01*
Y31344D01*
X41081D01*
Y31392D01*
X41057D01*
Y31440D01*
X41033D01*
Y31488D01*
X41009D01*
Y31537D01*
X40985D01*
Y31584D01*
X40960D01*
Y31633D01*
X40936D01*
Y31681D01*
X40912D01*
Y31729D01*
X40888D01*
Y31777D01*
X40864D01*
Y31825D01*
X40840D01*
Y31873D01*
X40816D01*
Y31921D01*
X40792D01*
Y31969D01*
X40768D01*
Y32017D01*
X40744D01*
Y32041D01*
X40720D01*
Y32065D01*
X40696D01*
Y32113D01*
X40672D01*
Y32161D01*
X40648D01*
Y32209D01*
X40624D01*
Y32257D01*
X40600D01*
Y32305D01*
X40576D01*
Y32353D01*
X40552D01*
Y32401D01*
X40528D01*
Y32450D01*
X40504D01*
Y32498D01*
X40480D01*
Y32522D01*
X40456D01*
Y32546D01*
X40432D01*
Y32594D01*
X40408D01*
Y32618D01*
X40384D01*
Y32690D01*
X40360D01*
Y32714D01*
X40336D01*
Y32786D01*
X40312D01*
Y32810D01*
X40288D01*
Y32858D01*
X40264D01*
Y32930D01*
X40240D01*
Y32954D01*
X40216D01*
Y33026D01*
X40192D01*
Y33050D01*
X40168D01*
Y33098D01*
X40144D01*
Y33146D01*
X40120D01*
Y33194D01*
X40096D01*
Y33242D01*
X40072D01*
Y33291D01*
X40047D01*
Y33315D01*
X40023D01*
Y33339D01*
X39999D01*
Y33387D01*
X39975D01*
Y33435D01*
X39951D01*
Y33483D01*
X39927D01*
Y33531D01*
X39903D01*
Y33579D01*
X39879D01*
Y33627D01*
X39855D01*
Y33675D01*
X39831D01*
Y33723D01*
X39807D01*
Y33771D01*
X39783D01*
Y33795D01*
X39759D01*
Y33819D01*
X39735D01*
Y33867D01*
X39711D01*
Y33915D01*
X39687D01*
Y33963D01*
X39663D01*
Y33987D01*
X39639D01*
Y34060D01*
X39615D01*
Y34108D01*
X39591D01*
Y34156D01*
X39567D01*
Y34180D01*
X39543D01*
Y34228D01*
X39519D01*
Y34252D01*
X39495D01*
Y34276D01*
X39471D01*
Y34324D01*
X39447D01*
Y34372D01*
X39423D01*
Y34420D01*
X39399D01*
Y34468D01*
X39375D01*
Y34516D01*
X39351D01*
Y34564D01*
X39327D01*
Y34612D01*
X39302D01*
Y34636D01*
X39279D01*
Y34660D01*
X39255D01*
Y34708D01*
X39230D01*
Y34756D01*
X39206D01*
Y34804D01*
X39182D01*
Y34852D01*
X39158D01*
Y34901D01*
X39134D01*
Y34949D01*
X39110D01*
Y34997D01*
X39086D01*
Y35021D01*
X39062D01*
Y35045D01*
X39038D01*
Y35069D01*
X39014D01*
Y35117D01*
X38990D01*
Y35165D01*
X38966D01*
Y35189D01*
X38942D01*
Y35213D01*
X38918D01*
Y35261D01*
X38894D01*
Y35309D01*
X38870D01*
Y35357D01*
X38846D01*
Y35381D01*
X38822D01*
Y35405D01*
X38798D01*
Y35429D01*
X38774D01*
Y35501D01*
X38750D01*
Y35549D01*
X38726D01*
Y35597D01*
X38702D01*
Y35621D01*
X38678D01*
Y35670D01*
X38654D01*
Y35694D01*
X38630D01*
Y35717D01*
X38606D01*
Y35766D01*
X38582D01*
Y35814D01*
X38558D01*
Y35838D01*
X38534D01*
Y35862D01*
X38510D01*
Y35910D01*
X38486D01*
Y35958D01*
X38461D01*
Y35982D01*
X38438D01*
Y36006D01*
X38414D01*
Y36054D01*
X38389D01*
Y36078D01*
X38365D01*
Y36126D01*
X38341D01*
Y36174D01*
X38317D01*
Y36198D01*
X38293D01*
Y36222D01*
X38269D01*
Y36270D01*
X38245D01*
Y36318D01*
X38221D01*
Y36342D01*
X38197D01*
Y36366D01*
X38173D01*
Y36414D01*
X38149D01*
Y36462D01*
X38125D01*
Y36486D01*
X38101D01*
Y36535D01*
X38077D01*
Y36559D01*
X38053D01*
Y36583D01*
X38029D01*
Y36631D01*
X38005D01*
Y36679D01*
X37981D01*
Y36703D01*
X37957D01*
Y36727D01*
X37933D01*
Y36751D01*
X37909D01*
Y36775D01*
X37885D01*
Y36799D01*
X37861D01*
Y36847D01*
X37837D01*
Y36895D01*
X37813D01*
Y36919D01*
X37789D01*
Y36943D01*
X37765D01*
Y36991D01*
X37741D01*
Y37039D01*
X37717D01*
Y37087D01*
X37693D01*
Y37111D01*
X37669D01*
Y37135D01*
X37645D01*
Y37159D01*
X37620D01*
Y37231D01*
X37596D01*
Y37255D01*
X37573D01*
Y37279D01*
X37548D01*
Y37303D01*
X37524D01*
Y37352D01*
X37500D01*
Y37400D01*
X37476D01*
Y37424D01*
X37452D01*
Y37472D01*
X37428D01*
Y37496D01*
X37404D01*
Y37544D01*
X37380D01*
Y37592D01*
X37356D01*
Y37616D01*
X37332D01*
Y37640D01*
X37308D01*
Y37664D01*
X37284D01*
Y37688D01*
X37260D01*
Y37712D01*
X37236D01*
Y37760D01*
X37212D01*
Y37808D01*
X37188D01*
Y37832D01*
X37164D01*
Y37856D01*
X37140D01*
Y37904D01*
X37116D01*
Y37952D01*
X37092D01*
Y38000D01*
X37068D01*
Y38024D01*
X37044D01*
Y38048D01*
X37020D01*
Y38072D01*
X36996D01*
Y38120D01*
X36972D01*
Y38168D01*
X36948D01*
Y38193D01*
X36924D01*
Y38217D01*
X36900D01*
Y38241D01*
X36876D01*
Y38265D01*
X36852D01*
Y38289D01*
X36827D01*
Y38337D01*
X36804D01*
Y38385D01*
X36779D01*
Y38433D01*
X36755D01*
Y38457D01*
X36731D01*
Y38481D01*
X36707D01*
Y38529D01*
X36683D01*
Y38577D01*
X36659D01*
Y38601D01*
X36635D01*
Y38625D01*
X36611D01*
Y38673D01*
X36587D01*
Y38721D01*
X36563D01*
Y38745D01*
X36539D01*
Y38769D01*
X36515D01*
Y38793D01*
X36491D01*
Y38817D01*
X36467D01*
Y38841D01*
X36443D01*
Y38889D01*
X36419D01*
Y38937D01*
X36395D01*
Y38986D01*
X36371D01*
Y39009D01*
X36347D01*
Y39034D01*
X36323D01*
Y39058D01*
X36299D01*
Y39082D01*
X36275D01*
Y39106D01*
X36251D01*
Y39154D01*
X36227D01*
Y39202D01*
X36203D01*
Y39226D01*
X36179D01*
Y39250D01*
X36155D01*
Y39274D01*
X36131D01*
Y39298D01*
X36107D01*
Y39322D01*
X36083D01*
Y39370D01*
X36035D01*
Y39394D01*
X35963D01*
Y39370D01*
X35914D01*
Y39394D01*
X35842D01*
Y39418D01*
X35794D01*
Y39442D01*
X35626D01*
Y39466D01*
X35602D01*
Y39490D01*
X35482D01*
Y39514D01*
X35434D01*
Y39538D01*
X35386D01*
Y39562D01*
X35218D01*
Y39586D01*
X35170D01*
Y39610D01*
X35073D01*
Y39634D01*
X35025D01*
Y39658D01*
X34977D01*
Y39682D01*
X34929D01*
Y39706D01*
X34881D01*
Y39730D01*
X34761D01*
Y39754D01*
X34713D01*
Y39778D01*
X34665D01*
Y39802D01*
X34617D01*
Y39827D01*
X34569D01*
Y39850D01*
X34521D01*
Y39874D01*
X34473D01*
Y39899D01*
X34425D01*
Y39923D01*
X34377D01*
Y39947D01*
X34328D01*
Y39971D01*
X34281D01*
Y39995D01*
X34256D01*
Y40019D01*
X34232D01*
Y40043D01*
X34208D01*
Y40067D01*
X34160D01*
Y40091D01*
X34112D01*
Y40115D01*
X34064D01*
Y40139D01*
X34016D01*
Y40163D01*
X33968D01*
Y40187D01*
X33920D01*
Y40211D01*
X33872D01*
Y40235D01*
X33824D01*
Y40259D01*
X33776D01*
Y40283D01*
X33752D01*
Y40307D01*
X33704D01*
Y40331D01*
X33680D01*
Y40355D01*
X33632D01*
Y40379D01*
X33584D01*
Y40403D01*
X33536D01*
Y40427D01*
X33488D01*
Y40451D01*
X33440D01*
Y40475D01*
X33391D01*
Y40499D01*
X33343D01*
Y40523D01*
X33295D01*
Y40547D01*
X33247D01*
Y40571D01*
X33199D01*
Y40595D01*
X33151D01*
Y40620D01*
X33103D01*
Y40644D01*
X33007D01*
Y40668D01*
X32959D01*
Y40691D01*
X32911D01*
Y40716D01*
X32839D01*
Y40691D01*
X32815D01*
Y40668D01*
X32791D01*
Y40644D01*
X32767D01*
Y40620D01*
X32743D01*
Y40595D01*
X32719D01*
Y40547D01*
X32695D01*
Y40499D01*
X32671D01*
Y40451D01*
X32647D01*
Y40403D01*
X32622D01*
Y40355D01*
X32598D01*
Y40307D01*
X32574D01*
Y40259D01*
X32550D01*
Y40211D01*
X32526D01*
Y40163D01*
X32502D01*
Y40115D01*
X32478D01*
Y40067D01*
X32454D01*
Y40019D01*
X32430D01*
Y39971D01*
X32406D01*
Y39874D01*
X32382D01*
Y39827D01*
X32358D01*
Y39754D01*
X32334D01*
Y39730D01*
X32310D01*
Y39658D01*
X32286D01*
Y39634D01*
X32262D01*
Y39586D01*
X32238D01*
Y39514D01*
X32214D01*
Y39490D01*
X32190D01*
Y39370D01*
X32166D01*
Y39322D01*
X32142D01*
Y39274D01*
X32118D01*
Y39226D01*
X32094D01*
Y39178D01*
X32070D01*
Y39082D01*
X32046D01*
Y39034D01*
X32022D01*
Y38986D01*
X31998D01*
Y38937D01*
X31974D01*
Y38889D01*
X31950D01*
Y38841D01*
X31926D01*
Y38793D01*
X31902D01*
Y38745D01*
X31878D01*
Y38697D01*
X31854D01*
Y38649D01*
X31830D01*
Y38601D01*
X31806D01*
Y38553D01*
X31781D01*
Y38505D01*
X31757D01*
Y38457D01*
X31733D01*
Y38385D01*
X31709D01*
Y38289D01*
X31685D01*
Y38265D01*
X31661D01*
Y38193D01*
X31637D01*
Y38168D01*
X31613D01*
Y38096D01*
X31589D01*
Y38048D01*
X31565D01*
Y38000D01*
X31541D01*
Y37952D01*
X31517D01*
Y37928D01*
X31493D01*
Y37856D01*
X31469D01*
Y37832D01*
X31445D01*
Y37760D01*
X31421D01*
Y37712D01*
X31397D01*
Y37688D01*
X31373D01*
Y37616D01*
X31349D01*
Y37592D01*
X31325D01*
Y37568D01*
X31301D01*
Y37544D01*
X31277D01*
Y37496D01*
X31253D01*
Y37448D01*
X31229D01*
Y37400D01*
X31205D01*
Y37352D01*
X31181D01*
Y37303D01*
X31157D01*
Y37255D01*
X31133D01*
Y37207D01*
X31109D01*
Y37183D01*
X31085D01*
Y37135D01*
X31061D01*
Y37111D01*
X31037D01*
Y37063D01*
X31012D01*
Y37015D01*
X30989D01*
Y36967D01*
X30965D01*
Y36919D01*
X30940D01*
Y36895D01*
X30916D01*
Y36871D01*
X30892D01*
Y36847D01*
X30868D01*
Y36823D01*
X30844D01*
Y36799D01*
X30820D01*
Y36751D01*
X30796D01*
Y36703D01*
X30772D01*
Y36655D01*
X30748D01*
Y36631D01*
X30724D01*
Y36607D01*
X30700D01*
Y36559D01*
X30676D01*
Y36511D01*
X30652D01*
Y36486D01*
X30628D01*
Y36462D01*
X30604D01*
Y36438D01*
X30580D01*
Y36414D01*
X30556D01*
Y36390D01*
X30532D01*
Y36366D01*
X30508D01*
Y36342D01*
X30484D01*
Y36318D01*
X30460D01*
Y36246D01*
X30436D01*
Y36222D01*
X30412D01*
Y36198D01*
X30388D01*
Y36150D01*
X30364D01*
Y36126D01*
X30316D01*
Y36078D01*
X30292D01*
Y36054D01*
X30244D01*
Y36006D01*
X30220D01*
Y35982D01*
X30196D01*
Y35958D01*
X30148D01*
Y35910D01*
X30124D01*
Y35886D01*
X30099D01*
Y35862D01*
X30075D01*
Y35838D01*
X30027D01*
Y35790D01*
X29979D01*
Y35766D01*
X29955D01*
Y35717D01*
X29931D01*
Y35694D01*
X29883D01*
Y35670D01*
X29859D01*
Y35645D01*
X29811D01*
Y35621D01*
X29763D01*
Y35597D01*
X29739D01*
Y35573D01*
X29715D01*
Y35549D01*
X29691D01*
Y35525D01*
X29667D01*
Y35501D01*
X29643D01*
Y35477D01*
X29595D01*
Y35453D01*
X29547D01*
Y35429D01*
X29523D01*
Y35405D01*
X29499D01*
Y35381D01*
X29451D01*
Y35357D01*
X29403D01*
Y35333D01*
X29355D01*
Y35309D01*
X29330D01*
Y35285D01*
X29306D01*
Y35261D01*
X29282D01*
Y35237D01*
X29234D01*
Y35213D01*
X29186D01*
Y35189D01*
X29138D01*
Y35165D01*
X29090D01*
Y35141D01*
X29042D01*
Y35117D01*
X28994D01*
Y35093D01*
X28946D01*
Y35069D01*
X28874D01*
Y35045D01*
X28778D01*
Y35021D01*
X28730D01*
Y34997D01*
X28634D01*
Y34973D01*
X28586D01*
Y34949D01*
X28369D01*
Y34925D01*
X28321D01*
Y34901D01*
X28273D01*
Y34876D01*
X27240D01*
Y34852D01*
X27192D01*
Y34829D01*
X26495D01*
Y34804D01*
X26471D01*
Y34780D01*
X26087D01*
Y34756D01*
X26014D01*
Y34732D01*
X25966D01*
Y34708D01*
X25678D01*
Y34684D01*
X25654D01*
Y34660D01*
X25438D01*
Y34636D01*
X25366D01*
Y34612D01*
X25318D01*
Y34588D01*
X25101D01*
Y34564D01*
X25053D01*
Y34540D01*
X24885D01*
Y34516D01*
X24837D01*
Y34492D01*
X24765D01*
Y34468D01*
X24693D01*
Y34444D01*
X24645D01*
Y34420D01*
X24525D01*
Y34396D01*
X24501D01*
Y34372D01*
X24381D01*
Y34348D01*
X24332D01*
Y34324D01*
X24284D01*
Y34300D01*
X24188D01*
Y34276D01*
X24140D01*
Y34252D01*
X24020D01*
Y34228D01*
X23972D01*
Y34204D01*
X23948D01*
Y34180D01*
X23876D01*
Y34156D01*
X23828D01*
Y34132D01*
X23732D01*
Y34108D01*
X23684D01*
Y34083D01*
X23636D01*
Y34060D01*
X23588D01*
Y34035D01*
X23540D01*
Y34011D01*
X23491D01*
Y33987D01*
X23443D01*
Y33963D01*
X23395D01*
Y33939D01*
X23347D01*
Y33915D01*
X23299D01*
Y33891D01*
X23251D01*
Y33867D01*
X23203D01*
Y33843D01*
X23155D01*
Y33819D01*
X23131D01*
Y33795D01*
X23107D01*
Y33771D01*
X23059D01*
Y33747D01*
X23035D01*
Y33723D01*
X22963D01*
Y33699D01*
X22939D01*
Y33675D01*
X22915D01*
Y33651D01*
X22891D01*
Y33627D01*
X22843D01*
Y33603D01*
X22795D01*
Y33579D01*
X22771D01*
Y33555D01*
X22747D01*
Y33531D01*
X22699D01*
Y33507D01*
X22650D01*
Y33483D01*
X22602D01*
Y33459D01*
X22578D01*
Y33435D01*
X22554D01*
Y33411D01*
X22530D01*
Y33387D01*
X22506D01*
Y33363D01*
X22482D01*
Y33339D01*
X22434D01*
Y33315D01*
X22386D01*
Y33291D01*
X22362D01*
Y33267D01*
X22338D01*
Y33242D01*
X22314D01*
Y33219D01*
X22290D01*
Y33194D01*
X22266D01*
Y33170D01*
X22242D01*
Y33146D01*
X22218D01*
Y33122D01*
X22194D01*
Y33098D01*
X22170D01*
Y33074D01*
X22146D01*
Y33050D01*
X22122D01*
Y33026D01*
X22098D01*
Y33002D01*
X22074D01*
Y32978D01*
X22050D01*
Y32954D01*
X22026D01*
Y32930D01*
X22002D01*
Y32906D01*
X21978D01*
Y32882D01*
X21954D01*
Y32858D01*
X21930D01*
Y32834D01*
X21906D01*
Y32810D01*
X21881D01*
Y32786D01*
X21858D01*
Y32762D01*
X21834D01*
Y32738D01*
X21809D01*
Y32714D01*
X21785D01*
Y32690D01*
X21761D01*
Y32666D01*
X21737D01*
Y32642D01*
X21713D01*
Y32618D01*
X21689D01*
Y32546D01*
X21665D01*
Y32522D01*
X21641D01*
Y32498D01*
X21617D01*
Y32474D01*
X21593D01*
Y32426D01*
X21569D01*
Y32378D01*
X21545D01*
Y32329D01*
X21521D01*
Y32305D01*
X21497D01*
Y32281D01*
X21473D01*
Y32233D01*
X21449D01*
Y32137D01*
X21425D01*
Y32089D01*
X21401D01*
Y31969D01*
X21377D01*
Y31945D01*
X21353D01*
Y31849D01*
X21329D01*
Y31777D01*
X21305D01*
Y31729D01*
X21281D01*
Y31633D01*
X21257D01*
Y31584D01*
X21233D01*
Y31464D01*
X21209D01*
Y31416D01*
X21185D01*
Y31368D01*
X21161D01*
Y31272D01*
X21137D01*
Y31224D01*
X21113D01*
Y31104D01*
X21089D01*
Y31080D01*
X21065D01*
Y31008D01*
X21040D01*
Y30984D01*
X21016D01*
Y30912D01*
X20992D01*
Y30816D01*
X20968D01*
Y30768D01*
X20944D01*
Y30671D01*
X20920D01*
Y30623D01*
X20896D01*
Y30551D01*
X20872D01*
Y30455D01*
X20848D01*
Y30407D01*
X20824D01*
Y30311D01*
X20800D01*
Y30263D01*
X20776D01*
Y30167D01*
X20752D01*
Y30095D01*
X20728D01*
Y30071D01*
X20704D01*
Y29951D01*
X20680D01*
Y29903D01*
X20656D01*
Y29806D01*
X20632D01*
Y29758D01*
X20608D01*
Y29686D01*
X20584D01*
Y29590D01*
X20560D01*
Y29494D01*
X20584D01*
Y29470D01*
X20608D01*
Y29446D01*
X20632D01*
Y29398D01*
X20656D01*
Y29350D01*
X20680D01*
Y29326D01*
X20704D01*
Y29302D01*
X20728D01*
Y29254D01*
X20752D01*
Y29206D01*
X20776D01*
Y29158D01*
X20800D01*
Y29110D01*
X20824D01*
Y29062D01*
X20848D01*
Y29037D01*
X20872D01*
Y29013D01*
X20896D01*
Y28989D01*
X20920D01*
Y28941D01*
X20944D01*
Y28893D01*
X20968D01*
Y28845D01*
X20992D01*
Y28797D01*
X21016D01*
Y28749D01*
X21040D01*
Y28725D01*
X21065D01*
Y28701D01*
X21089D01*
Y28653D01*
X21113D01*
Y28605D01*
X21137D01*
Y28557D01*
X21161D01*
Y28509D01*
X21185D01*
Y28461D01*
X21209D01*
Y28437D01*
X21233D01*
Y28413D01*
X21257D01*
Y28389D01*
X21281D01*
Y28317D01*
X21305D01*
Y28293D01*
X21329D01*
Y28268D01*
X21353D01*
Y28245D01*
X21377D01*
Y28196D01*
X21401D01*
Y28148D01*
X21425D01*
Y28100D01*
X21449D01*
Y28052D01*
X21473D01*
Y28004D01*
X21497D01*
Y27980D01*
X21521D01*
Y27956D01*
X21545D01*
Y27908D01*
X21569D01*
Y27860D01*
X21593D01*
Y27812D01*
X21617D01*
Y27764D01*
X21641D01*
Y27716D01*
X21665D01*
Y27692D01*
X21689D01*
Y27668D01*
X21713D01*
Y27644D01*
X21737D01*
Y27596D01*
X21761D01*
Y27548D01*
X21785D01*
Y27500D01*
X21809D01*
Y27452D01*
X21834D01*
Y27404D01*
X21858D01*
Y27380D01*
X21881D01*
Y27355D01*
X21906D01*
Y27307D01*
X21930D01*
Y27259D01*
X21954D01*
Y27235D01*
X21978D01*
Y27211D01*
X22002D01*
Y27187D01*
X22026D01*
Y27139D01*
X22050D01*
Y27067D01*
X22074D01*
Y27043D01*
X22098D01*
Y26971D01*
X22122D01*
Y26947D01*
X22146D01*
Y26923D01*
X22170D01*
Y26899D01*
X22194D01*
Y26851D01*
X22218D01*
Y26803D01*
X22242D01*
Y26755D01*
X22266D01*
Y26707D01*
X22290D01*
Y26659D01*
X22314D01*
Y26635D01*
X22338D01*
Y26611D01*
X22362D01*
Y26586D01*
X22386D01*
Y26514D01*
X22410D01*
Y26466D01*
X22434D01*
Y26418D01*
X22458D01*
Y26394D01*
X22482D01*
Y26370D01*
X22506D01*
Y26322D01*
X22530D01*
Y26298D01*
X22554D01*
Y26250D01*
X22578D01*
Y26202D01*
X22602D01*
Y26178D01*
X22626D01*
Y26154D01*
X26279D01*
Y26130D01*
X26303D01*
Y26106D01*
X26327D01*
Y26082D01*
X26351D01*
Y26058D01*
X26375D01*
Y26034D01*
X26399D01*
Y25986D01*
X26423D01*
Y24616D01*
X26399D01*
Y24568D01*
X26375D01*
Y24544D01*
X26351D01*
Y24520D01*
X26327D01*
Y24496D01*
X26303D01*
Y24472D01*
X26255D01*
Y24448D01*
X25798D01*
Y24472D01*
X25678D01*
Y24448D01*
X25606D01*
Y24472D01*
X25558D01*
Y24496D01*
X25029D01*
Y24472D01*
X25005D01*
Y24400D01*
X25029D01*
Y24376D01*
X25077D01*
Y24352D01*
X25101D01*
Y24328D01*
X25149D01*
Y24304D01*
X25198D01*
Y24280D01*
X25222D01*
Y24256D01*
X25294D01*
Y24232D01*
X25318D01*
Y24208D01*
X25342D01*
Y24184D01*
X25366D01*
Y24160D01*
X25414D01*
Y24135D01*
X25462D01*
Y24111D01*
X25510D01*
Y24088D01*
X25534D01*
Y24063D01*
X25558D01*
Y24039D01*
X25606D01*
Y24015D01*
X25654D01*
Y23991D01*
X25702D01*
Y23967D01*
X25750D01*
Y23943D01*
X25774D01*
Y23919D01*
X25822D01*
Y23895D01*
X25846D01*
Y23871D01*
X25870D01*
Y23847D01*
X25918D01*
Y23823D01*
X25966D01*
Y23799D01*
X25990D01*
Y23751D01*
X26014D01*
Y23631D01*
X25990D01*
Y23583D01*
X25966D01*
Y23535D01*
X25942D01*
Y23487D01*
X25918D01*
Y23439D01*
X25894D01*
Y23415D01*
X25870D01*
Y23391D01*
X25846D01*
Y23343D01*
X25822D01*
Y23294D01*
X25798D01*
Y23247D01*
X25774D01*
Y23198D01*
X25750D01*
Y23174D01*
X25726D01*
Y23150D01*
X25702D01*
Y23102D01*
X25678D01*
Y23054D01*
X25654D01*
Y23006D01*
X25630D01*
Y22982D01*
X25606D01*
Y22910D01*
X25582D01*
Y22886D01*
X25558D01*
Y22862D01*
X25534D01*
Y22838D01*
X25510D01*
Y22790D01*
X25486D01*
Y22742D01*
X25462D01*
Y22694D01*
X25438D01*
Y22670D01*
X25414D01*
Y22646D01*
X25390D01*
Y22598D01*
X25366D01*
Y22550D01*
X25342D01*
Y22526D01*
X25318D01*
Y22502D01*
X25294D01*
Y22478D01*
X24909D01*
Y22502D01*
X24885D01*
Y22526D01*
X24837D01*
Y22550D01*
X24789D01*
Y22574D01*
X24765D01*
Y22598D01*
X24741D01*
Y22622D01*
X24717D01*
Y22646D01*
X24669D01*
Y22670D01*
X24621D01*
Y22694D01*
X24573D01*
Y22718D01*
X24525D01*
Y22742D01*
X24477D01*
Y22766D01*
X24453D01*
Y22790D01*
X24429D01*
Y22814D01*
X24381D01*
Y22838D01*
X24332D01*
Y22862D01*
X24284D01*
Y22886D01*
X24236D01*
Y22910D01*
X24188D01*
Y22934D01*
X24164D01*
Y22958D01*
X24140D01*
Y22982D01*
X24116D01*
Y23006D01*
X24044D01*
Y23030D01*
X24020D01*
Y23054D01*
X23996D01*
Y23078D01*
X23972D01*
Y23102D01*
X23924D01*
Y23126D01*
X23876D01*
Y23150D01*
X23828D01*
Y23174D01*
X23780D01*
Y23198D01*
X23732D01*
Y23222D01*
X23708D01*
Y23247D01*
X23684D01*
Y23270D01*
X23636D01*
Y23294D01*
X23588D01*
Y23319D01*
X23563D01*
Y23343D01*
X23516D01*
Y23367D01*
X23491D01*
Y23391D01*
X23467D01*
Y23415D01*
X23419D01*
Y23439D01*
X23371D01*
Y23463D01*
X23323D01*
Y23487D01*
X23275D01*
Y23511D01*
X23251D01*
Y23535D01*
X23227D01*
Y23559D01*
X23179D01*
Y23583D01*
X23131D01*
Y23607D01*
X23083D01*
Y23631D01*
X23059D01*
Y23655D01*
X23035D01*
Y23679D01*
X23011D01*
Y23703D01*
X22939D01*
Y23727D01*
X22915D01*
Y23751D01*
X22843D01*
Y23775D01*
X22819D01*
Y23799D01*
X22771D01*
Y23823D01*
X22747D01*
Y23847D01*
X22722D01*
Y23871D01*
X22675D01*
Y23895D01*
X22626D01*
Y23919D01*
X22578D01*
Y23943D01*
X22530D01*
Y23967D01*
X22506D01*
Y23991D01*
X22482D01*
Y24015D01*
X22434D01*
Y24039D01*
X22386D01*
Y24063D01*
X22338D01*
Y24088D01*
X22314D01*
Y24111D01*
X22290D01*
Y24135D01*
X22266D01*
Y24160D01*
X22218D01*
Y24184D01*
X22170D01*
Y24208D01*
X22122D01*
Y24232D01*
X22074D01*
Y24256D01*
X22026D01*
Y24280D01*
X22002D01*
Y24304D01*
X21978D01*
Y24328D01*
X21930D01*
Y24352D01*
X21881D01*
Y24376D01*
X21834D01*
Y24400D01*
X21785D01*
Y24424D01*
X21761D01*
Y24448D01*
X21737D01*
Y24472D01*
X21713D01*
Y24496D01*
X21689D01*
Y24520D01*
X21665D01*
Y24544D01*
X21641D01*
Y24568D01*
X21617D01*
Y24592D01*
X21593D01*
Y24664D01*
X21569D01*
Y24688D01*
X21545D01*
Y24760D01*
X21521D01*
Y24784D01*
X21497D01*
Y24808D01*
X21473D01*
Y24856D01*
X21449D01*
Y24880D01*
X21425D01*
Y24929D01*
X21401D01*
Y24977D01*
X21377D01*
Y25001D01*
X21353D01*
Y25025D01*
X21329D01*
Y25073D01*
X21305D01*
Y25121D01*
X21281D01*
Y25169D01*
X21257D01*
Y25217D01*
X21233D01*
Y25265D01*
X21209D01*
Y25289D01*
X21185D01*
Y25313D01*
X21161D01*
Y25337D01*
X21137D01*
Y25385D01*
X21113D01*
Y25433D01*
X21089D01*
Y25481D01*
X21065D01*
Y25529D01*
X21040D01*
Y25553D01*
X21016D01*
Y25577D01*
X20992D01*
Y25625D01*
X20968D01*
Y25673D01*
X20944D01*
Y25721D01*
X20920D01*
Y25770D01*
X20896D01*
Y25818D01*
X20872D01*
Y25842D01*
X20848D01*
Y25866D01*
X20824D01*
Y25914D01*
X20800D01*
Y25938D01*
X20776D01*
Y26010D01*
X20752D01*
Y26034D01*
X20728D01*
Y26058D01*
X20704D01*
Y26082D01*
X20680D01*
Y26130D01*
X20656D01*
Y26178D01*
X20632D01*
Y26226D01*
X20608D01*
Y26274D01*
X20584D01*
Y26298D01*
X20560D01*
Y26322D01*
X20536D01*
Y26370D01*
X20512D01*
Y26418D01*
X20488D01*
Y26466D01*
X20464D01*
Y26514D01*
X20440D01*
Y26562D01*
X20416D01*
Y26586D01*
X20392D01*
Y26611D01*
X20368D01*
Y26635D01*
X20344D01*
Y26683D01*
X20320D01*
Y26731D01*
X20296D01*
Y26779D01*
X20272D01*
Y26803D01*
X20247D01*
Y26827D01*
X20224D01*
Y26875D01*
X20199D01*
Y26923D01*
X20175D01*
Y26971D01*
X20151D01*
Y27019D01*
X20127D01*
Y27043D01*
X20103D01*
Y27067D01*
X20079D01*
Y27115D01*
X20055D01*
Y27139D01*
X20031D01*
Y27211D01*
X20007D01*
Y27235D01*
X19983D01*
Y27307D01*
X19959D01*
Y27331D01*
X19935D01*
Y27355D01*
X19911D01*
Y27380D01*
X19887D01*
Y27427D01*
X19863D01*
Y27476D01*
X19839D01*
Y27524D01*
X19815D01*
Y27572D01*
X19791D01*
Y27620D01*
X19767D01*
Y27644D01*
X19743D01*
Y27668D01*
X19719D01*
Y27716D01*
X19695D01*
Y27764D01*
X19671D01*
Y27812D01*
X19647D01*
Y27860D01*
X19623D01*
Y27908D01*
X19599D01*
Y27932D01*
X19575D01*
Y27956D01*
X19551D01*
Y27980D01*
X19527D01*
Y28028D01*
X19503D01*
Y28076D01*
X19479D01*
Y28124D01*
X19455D01*
Y28172D01*
X19431D01*
Y28221D01*
X19406D01*
Y28245D01*
X19382D01*
Y28268D01*
X19359D01*
Y28317D01*
X19334D01*
Y28365D01*
X19310D01*
Y28389D01*
X19286D01*
Y28413D01*
X19262D01*
Y28437D01*
X19238D01*
Y28509D01*
X19214D01*
Y28557D01*
X19190D01*
Y28581D01*
X19166D01*
Y28653D01*
X19142D01*
Y28677D01*
X19118D01*
Y28701D01*
X19094D01*
Y28725D01*
X19070D01*
Y28773D01*
X19046D01*
Y28821D01*
X19022D01*
Y28869D01*
X18998D01*
Y28917D01*
X18974D01*
Y28965D01*
X18950D01*
Y28989D01*
X18926D01*
Y29013D01*
X18902D01*
Y29062D01*
X18878D01*
Y29110D01*
X18854D01*
Y29158D01*
X18830D01*
Y29206D01*
X18806D01*
Y29254D01*
X18782D01*
Y29590D01*
X18806D01*
Y29638D01*
X18830D01*
Y29758D01*
X18854D01*
Y29806D01*
X18878D01*
Y29903D01*
X18902D01*
Y29951D01*
X18926D01*
Y29999D01*
X18950D01*
Y30119D01*
X18974D01*
Y30167D01*
X18998D01*
Y30215D01*
X19022D01*
Y30263D01*
X19046D01*
Y30335D01*
X19070D01*
Y30407D01*
X19094D01*
Y30455D01*
X19118D01*
Y30575D01*
X19142D01*
Y30599D01*
X19166D01*
Y30719D01*
X19190D01*
Y30768D01*
X19214D01*
Y30816D01*
X19238D01*
Y30912D01*
X19262D01*
Y30960D01*
X19286D01*
Y31080D01*
X19310D01*
Y31128D01*
X19334D01*
Y31200D01*
X19359D01*
Y31272D01*
X19334D01*
Y31296D01*
X19286D01*
Y31320D01*
X19142D01*
Y31344D01*
X19094D01*
Y31368D01*
X18974D01*
Y31392D01*
X18926D01*
Y31416D01*
X18878D01*
Y31440D01*
X18830D01*
Y31464D01*
X18782D01*
Y31488D01*
X18686D01*
Y31512D01*
X18638D01*
Y31537D01*
X18590D01*
Y31560D01*
X18542D01*
Y31584D01*
X18517D01*
Y31609D01*
X18493D01*
Y31633D01*
X18445D01*
Y31657D01*
X18397D01*
Y31681D01*
X18349D01*
Y31705D01*
X18301D01*
Y31729D01*
X18253D01*
Y31753D01*
X18205D01*
Y31777D01*
X18157D01*
Y31801D01*
X18133D01*
Y31825D01*
X18109D01*
Y31849D01*
X18061D01*
Y31873D01*
X18013D01*
Y31897D01*
X17989D01*
Y31921D01*
X17941D01*
Y31945D01*
X17917D01*
Y31969D01*
X17893D01*
Y31993D01*
X17869D01*
Y32017D01*
X17845D01*
Y32041D01*
X17821D01*
Y32065D01*
X17797D01*
Y32089D01*
X17773D01*
Y32113D01*
X17724D01*
Y32137D01*
X17676D01*
Y32161D01*
X17652D01*
Y32185D01*
X17628D01*
Y32209D01*
X17604D01*
Y32233D01*
X17580D01*
Y32257D01*
X17556D01*
Y32281D01*
X17532D01*
Y32305D01*
X17508D01*
Y32329D01*
X17484D01*
Y32353D01*
X17460D01*
Y32378D01*
X17436D01*
Y32401D01*
X17412D01*
Y32426D01*
X17388D01*
Y32450D01*
X17364D01*
Y32474D01*
X17340D01*
Y32498D01*
X17316D01*
Y32522D01*
X17292D01*
Y32546D01*
X17268D01*
Y32570D01*
X17244D01*
Y32594D01*
X17220D01*
Y32618D01*
X17196D01*
Y32642D01*
X17172D01*
Y32666D01*
X17148D01*
Y32690D01*
X17124D01*
Y32714D01*
X17100D01*
Y32786D01*
X17076D01*
Y32810D01*
X17052D01*
Y32834D01*
X17028D01*
Y32858D01*
X17004D01*
Y32882D01*
X16980D01*
Y32906D01*
X16956D01*
Y32954D01*
X16932D01*
Y33002D01*
X16908D01*
Y33050D01*
X16883D01*
Y33074D01*
X16859D01*
Y33098D01*
X16835D01*
Y33122D01*
X16811D01*
Y33146D01*
X16787D01*
Y33170D01*
X16763D01*
Y33219D01*
X16739D01*
Y33267D01*
X16715D01*
Y33291D01*
X16691D01*
Y33315D01*
X16667D01*
Y33339D01*
X16643D01*
Y33411D01*
X16619D01*
Y33435D01*
X16595D01*
Y33459D01*
X16571D01*
Y33483D01*
X16523D01*
Y33507D01*
X16475D01*
Y33531D01*
X16451D01*
Y33555D01*
X16331D01*
Y33579D01*
X16283D01*
Y33603D01*
X16235D01*
Y33627D01*
X16187D01*
Y33651D01*
X16139D01*
Y33675D01*
X16091D01*
Y33699D01*
X16042D01*
Y33723D01*
X15994D01*
Y33747D01*
X15946D01*
Y33771D01*
X15898D01*
Y33795D01*
X15850D01*
Y33819D01*
X15802D01*
Y33843D01*
X15754D01*
Y33867D01*
X15706D01*
Y33891D01*
X15658D01*
Y33915D01*
X15610D01*
Y33939D01*
X15562D01*
Y33963D01*
X15514D01*
Y33987D01*
X15466D01*
Y34011D01*
X15418D01*
Y34035D01*
X15370D01*
Y34060D01*
X15322D01*
Y34083D01*
X15273D01*
Y34108D01*
X15225D01*
Y34132D01*
X15177D01*
Y34156D01*
X15129D01*
Y34180D01*
X15081D01*
Y34204D01*
X15033D01*
Y34228D01*
X15009D01*
Y34252D01*
X14985D01*
Y34276D01*
X14961D01*
Y34300D01*
X14889D01*
Y34324D01*
X14865D01*
Y34348D01*
X14793D01*
Y34372D01*
X14745D01*
Y34396D01*
X14721D01*
Y34420D01*
X14697D01*
Y34444D01*
X14673D01*
Y34468D01*
X14625D01*
Y34492D01*
X14577D01*
Y34516D01*
X14529D01*
Y34540D01*
X14481D01*
Y34564D01*
X14432D01*
Y34588D01*
X14409D01*
Y34612D01*
X14384D01*
Y34636D01*
X14336D01*
Y34660D01*
X14288D01*
Y34684D01*
X14240D01*
Y34708D01*
X14192D01*
Y34732D01*
X14168D01*
Y34756D01*
X14120D01*
Y34780D01*
X14096D01*
Y34804D01*
X14072D01*
Y34780D01*
X14048D01*
Y34756D01*
X14024D01*
Y34588D01*
X14000D01*
Y34540D01*
X13976D01*
Y34444D01*
X13952D01*
Y34372D01*
X13928D01*
Y34324D01*
X13904D01*
Y34156D01*
X13880D01*
Y34132D01*
X13856D01*
Y33891D01*
X13880D01*
Y33843D01*
X13904D01*
Y33747D01*
X13928D01*
Y33699D01*
X13952D01*
Y33651D01*
X13976D01*
Y33603D01*
X14000D01*
Y33555D01*
X14024D01*
Y33507D01*
X14048D01*
Y33459D01*
X14072D01*
Y33411D01*
X14096D01*
Y33363D01*
X14120D01*
Y33315D01*
X14144D01*
Y33267D01*
X14168D01*
Y33219D01*
X14192D01*
Y33098D01*
X14216D01*
Y33050D01*
X14240D01*
Y33026D01*
X14264D01*
Y32954D01*
X14288D01*
Y32906D01*
X14312D01*
Y32810D01*
X14336D01*
Y32762D01*
X14360D01*
Y32714D01*
X14384D01*
Y32666D01*
X14409D01*
Y32618D01*
X14432D01*
Y32570D01*
X14456D01*
Y32522D01*
X14481D01*
Y32474D01*
X14505D01*
Y32426D01*
X14529D01*
Y32353D01*
X14553D01*
Y32281D01*
X14577D01*
Y32233D01*
X14601D01*
Y32161D01*
X14625D01*
Y32137D01*
X14649D01*
Y32089D01*
X14673D01*
Y32041D01*
X14697D01*
Y31969D01*
X14721D01*
Y31873D01*
X14745D01*
Y31825D01*
X14769D01*
Y31777D01*
X14793D01*
Y31729D01*
X14817D01*
Y31681D01*
X14841D01*
Y31633D01*
X14865D01*
Y31584D01*
X14889D01*
Y31488D01*
X14913D01*
Y31440D01*
X14937D01*
Y31392D01*
X14961D01*
Y31344D01*
X14985D01*
Y31296D01*
X15009D01*
Y31248D01*
X15033D01*
Y31200D01*
X15057D01*
Y31080D01*
X15081D01*
Y31032D01*
X15105D01*
Y31008D01*
X15129D01*
Y30936D01*
X15153D01*
Y30912D01*
X15177D01*
Y30840D01*
X15201D01*
Y30816D01*
X15225D01*
Y30696D01*
X15250D01*
Y30647D01*
X15273D01*
Y30623D01*
X15298D01*
Y30599D01*
X18133D01*
Y30575D01*
X18181D01*
Y30551D01*
X18205D01*
Y30503D01*
X18229D01*
Y29037D01*
X18205D01*
Y28989D01*
X18181D01*
Y28965D01*
X18133D01*
Y28941D01*
X17004D01*
Y28893D01*
X17028D01*
Y28869D01*
X17052D01*
Y28845D01*
X17076D01*
Y28821D01*
X17124D01*
Y28797D01*
X17172D01*
Y28773D01*
X17220D01*
Y28749D01*
X17244D01*
Y28725D01*
X17268D01*
Y28701D01*
X17292D01*
Y28677D01*
X17316D01*
Y28653D01*
X17340D01*
Y28629D01*
X17364D01*
Y28605D01*
X17388D01*
Y28581D01*
X17436D01*
Y28557D01*
X17484D01*
Y28533D01*
X17508D01*
Y28509D01*
X17532D01*
Y28485D01*
X17556D01*
Y28461D01*
X17580D01*
Y28437D01*
X17604D01*
Y28413D01*
X17628D01*
Y28389D01*
X17652D01*
Y28365D01*
X17700D01*
Y28341D01*
X17749D01*
Y28317D01*
X17773D01*
Y28293D01*
X17797D01*
Y28268D01*
X17821D01*
Y28245D01*
X17845D01*
Y28221D01*
X17869D01*
Y28196D01*
X17893D01*
Y28172D01*
X17917D01*
Y28148D01*
X17941D01*
Y28052D01*
X17917D01*
Y28028D01*
X17893D01*
Y27980D01*
X17869D01*
Y27956D01*
X17845D01*
Y27932D01*
X17821D01*
Y27884D01*
X17797D01*
Y27836D01*
X17773D01*
Y27812D01*
X17749D01*
Y27788D01*
X17724D01*
Y27764D01*
X17700D01*
Y27740D01*
X17676D01*
Y27716D01*
X17652D01*
Y27692D01*
X17628D01*
Y27668D01*
X17604D01*
Y27620D01*
X17580D01*
Y27572D01*
X17556D01*
Y27548D01*
X17532D01*
Y27524D01*
X17508D01*
Y27500D01*
X17484D01*
Y27476D01*
X17460D01*
Y27452D01*
X17436D01*
Y27427D01*
X17412D01*
Y27404D01*
X17388D01*
Y27355D01*
X17364D01*
Y27307D01*
X17340D01*
Y27259D01*
X17316D01*
Y27235D01*
X17292D01*
Y27211D01*
X17268D01*
Y27187D01*
X17244D01*
Y27163D01*
X17220D01*
Y27139D01*
X17196D01*
Y27115D01*
X17172D01*
Y27091D01*
X17148D01*
Y27043D01*
X17124D01*
Y26995D01*
X17100D01*
Y26971D01*
X17076D01*
Y26947D01*
X17052D01*
Y26923D01*
X17028D01*
Y26899D01*
X17004D01*
Y26875D01*
X16883D01*
Y26899D01*
X16859D01*
Y26923D01*
X16835D01*
Y26947D01*
X16811D01*
Y26971D01*
X16763D01*
Y26995D01*
X16715D01*
Y27019D01*
X16691D01*
Y27043D01*
X16643D01*
Y27067D01*
X16619D01*
Y27091D01*
X16595D01*
Y27115D01*
X16571D01*
Y27139D01*
X16547D01*
Y27163D01*
X16499D01*
Y27187D01*
X16451D01*
Y27211D01*
X16427D01*
Y27235D01*
X16403D01*
Y27259D01*
X16379D01*
Y27283D01*
X16355D01*
Y27307D01*
X16331D01*
Y27331D01*
X16307D01*
Y27355D01*
X16283D01*
Y27380D01*
X16235D01*
Y27404D01*
X16187D01*
Y27427D01*
X16163D01*
Y27452D01*
X16139D01*
Y27476D01*
X16114D01*
Y27500D01*
X16091D01*
Y27524D01*
X16066D01*
Y27548D01*
X16042D01*
Y27572D01*
X16018D01*
Y27596D01*
X15970D01*
Y27620D01*
X15922D01*
Y27644D01*
X15874D01*
Y27668D01*
X15850D01*
Y27692D01*
X15826D01*
Y27716D01*
X15802D01*
Y27740D01*
X15778D01*
Y27764D01*
X15754D01*
Y27788D01*
X15706D01*
Y27812D01*
X15658D01*
Y27836D01*
X15634D01*
Y27860D01*
X15610D01*
Y27884D01*
X15586D01*
Y27908D01*
X15562D01*
Y27932D01*
X15538D01*
Y27956D01*
X15514D01*
Y27980D01*
X15490D01*
Y28004D01*
X15442D01*
Y28028D01*
X15394D01*
Y28052D01*
X15370D01*
Y28076D01*
X15322D01*
Y28100D01*
X15298D01*
Y28124D01*
X15273D01*
Y28148D01*
X15250D01*
Y28172D01*
X15225D01*
Y28196D01*
X15201D01*
Y28221D01*
X15177D01*
Y28245D01*
X15129D01*
Y28268D01*
X15081D01*
Y28293D01*
X15057D01*
Y28317D01*
X15033D01*
Y28341D01*
X15009D01*
Y28365D01*
X14985D01*
Y28389D01*
X14961D01*
Y28413D01*
X14937D01*
Y28437D01*
X14913D01*
Y28461D01*
X14889D01*
Y28485D01*
X14817D01*
Y28509D01*
X14793D01*
Y28533D01*
X14769D01*
Y28557D01*
X14745D01*
Y28581D01*
X14721D01*
Y28605D01*
X14697D01*
Y28629D01*
X14649D01*
Y28653D01*
X14601D01*
Y28677D01*
X14553D01*
Y28701D01*
X14529D01*
Y28725D01*
X14505D01*
Y28749D01*
X14481D01*
Y28773D01*
X14456D01*
Y28797D01*
X14432D01*
Y28821D01*
X14409D01*
Y28845D01*
X14384D01*
Y28869D01*
X14336D01*
Y28893D01*
X14288D01*
Y28917D01*
X14264D01*
Y28941D01*
X14240D01*
Y28965D01*
X14216D01*
Y28989D01*
X14192D01*
Y29013D01*
X14168D01*
Y29037D01*
X14144D01*
Y29062D01*
X14120D01*
Y29110D01*
X14096D01*
Y29158D01*
X14072D01*
Y29206D01*
X14048D01*
Y29302D01*
X14024D01*
Y29350D01*
X14000D01*
Y29398D01*
X13976D01*
Y29446D01*
X13952D01*
Y29494D01*
X13928D01*
Y29542D01*
X13904D01*
Y29590D01*
X13880D01*
Y29638D01*
X13856D01*
Y29686D01*
X13832D01*
Y29734D01*
X13808D01*
Y29854D01*
X13784D01*
Y29903D01*
X13760D01*
Y29999D01*
X13736D01*
Y30047D01*
X13712D01*
Y30095D01*
X13688D01*
Y30143D01*
X13664D01*
Y30191D01*
X13640D01*
Y30239D01*
X13615D01*
Y30287D01*
X13592D01*
Y30335D01*
X13568D01*
Y30383D01*
X13543D01*
Y30431D01*
X13519D01*
Y30479D01*
X13495D01*
Y30527D01*
X13471D01*
Y30647D01*
X13447D01*
Y30696D01*
X13423D01*
Y30719D01*
X13399D01*
Y30792D01*
X13375D01*
Y30816D01*
X13351D01*
Y30936D01*
X13327D01*
Y30984D01*
X13303D01*
Y31032D01*
X13279D01*
Y31080D01*
X13255D01*
Y31128D01*
X13231D01*
Y31176D01*
X13207D01*
Y31224D01*
X13183D01*
Y31272D01*
X13159D01*
Y31320D01*
X13135D01*
Y31368D01*
X13111D01*
Y31464D01*
X13087D01*
Y31512D01*
X13063D01*
Y31560D01*
X13039D01*
Y31609D01*
X13015D01*
Y31705D01*
X12991D01*
Y31777D01*
X12967D01*
Y31801D01*
X12943D01*
Y31873D01*
X12919D01*
Y31921D01*
X12895D01*
Y31969D01*
X12871D01*
Y32017D01*
X12847D01*
Y32065D01*
X12823D01*
Y32113D01*
X12799D01*
Y32161D01*
X12774D01*
Y32257D01*
X12751D01*
Y32305D01*
X12726D01*
Y32353D01*
X12702D01*
Y32401D01*
X12678D01*
Y32450D01*
X12654D01*
Y32570D01*
X12630D01*
Y32594D01*
X12606D01*
Y32666D01*
X12582D01*
Y32690D01*
X12558D01*
Y32738D01*
X12534D01*
Y32810D01*
X12510D01*
Y32834D01*
X12486D01*
Y32906D01*
X12462D01*
Y32930D01*
X12438D01*
Y33026D01*
X12414D01*
Y33098D01*
X12390D01*
Y33146D01*
X12366D01*
Y33194D01*
X12342D01*
Y33242D01*
X12318D01*
Y33291D01*
X12294D01*
Y33339D01*
X12270D01*
Y33387D01*
X12246D01*
Y33483D01*
X12222D01*
Y33531D01*
X12198D01*
Y33579D01*
X12174D01*
Y33627D01*
X12150D01*
Y33675D01*
X12126D01*
Y33723D01*
X12102D01*
Y33771D01*
X12078D01*
Y33939D01*
X12102D01*
Y33987D01*
X12126D01*
Y34060D01*
X12150D01*
Y34156D01*
X12174D01*
Y34204D01*
X12198D01*
Y34372D01*
X12222D01*
Y34396D01*
X12246D01*
Y34564D01*
X12270D01*
Y34612D01*
X12294D01*
Y34660D01*
X12318D01*
Y34829D01*
X12342D01*
Y34876D01*
X12366D01*
Y35045D01*
X12390D01*
Y35093D01*
X12414D01*
Y35141D01*
X12438D01*
Y35309D01*
X12462D01*
Y35357D01*
X12486D01*
Y35453D01*
X12510D01*
Y35501D01*
X12534D01*
Y35670D01*
X12558D01*
Y35717D01*
X12582D01*
Y35766D01*
X12606D01*
Y35886D01*
X12582D01*
Y35934D01*
X12558D01*
Y35958D01*
X12534D01*
Y35982D01*
X12510D01*
Y36006D01*
X12486D01*
Y36030D01*
X12462D01*
Y36054D01*
X12438D01*
Y36078D01*
X12390D01*
Y36102D01*
X12342D01*
Y36126D01*
X12294D01*
Y36150D01*
X12270D01*
Y36174D01*
X12246D01*
Y36198D01*
X12222D01*
Y36222D01*
X12198D01*
Y36246D01*
X12174D01*
Y36270D01*
X12150D01*
Y36294D01*
X12126D01*
Y36318D01*
X12102D01*
Y36342D01*
X12078D01*
Y36366D01*
X12054D01*
Y36390D01*
X12030D01*
Y36414D01*
X12006D01*
Y36438D01*
X11982D01*
Y36462D01*
X11957D01*
Y36486D01*
X11933D01*
Y36511D01*
X11910D01*
Y36535D01*
X11885D01*
Y36559D01*
X11861D01*
Y36583D01*
X11837D01*
Y36607D01*
X11813D01*
Y36631D01*
X11789D01*
Y36655D01*
X11765D01*
Y36679D01*
X11741D01*
Y36703D01*
X11717D01*
Y36727D01*
X11693D01*
Y36751D01*
X11669D01*
Y36775D01*
X11645D01*
Y36799D01*
X11621D01*
Y36823D01*
X11597D01*
Y36847D01*
X11573D01*
Y36871D01*
X11549D01*
Y36895D01*
X11525D01*
Y36919D01*
X11501D01*
Y36943D01*
X11477D01*
Y36967D01*
X11453D01*
Y36991D01*
X11429D01*
Y37015D01*
X11405D01*
Y37039D01*
X11381D01*
Y37063D01*
X11357D01*
Y37087D01*
X11333D01*
Y37111D01*
X11309D01*
Y37135D01*
X11285D01*
Y37159D01*
X11261D01*
Y37183D01*
X11237D01*
Y37207D01*
X11213D01*
Y37231D01*
X11189D01*
Y37255D01*
X11165D01*
Y37279D01*
X11141D01*
Y37303D01*
X11116D01*
Y37327D01*
X11092D01*
Y37352D01*
X11069D01*
Y37376D01*
X11044D01*
Y37400D01*
X11020D01*
Y37424D01*
X10996D01*
Y37448D01*
X10972D01*
Y37472D01*
X10948D01*
Y37520D01*
X10924D01*
Y37568D01*
X10900D01*
Y37616D01*
X10876D01*
Y37640D01*
X10852D01*
Y37664D01*
X10828D01*
Y37688D01*
X10804D01*
Y37712D01*
X10780D01*
Y37736D01*
X10756D01*
Y37760D01*
X10732D01*
Y37784D01*
X10708D01*
Y37808D01*
X10684D01*
Y37832D01*
X10660D01*
Y37856D01*
X10636D01*
Y37928D01*
X10612D01*
Y37952D01*
X10588D01*
Y37976D01*
X10564D01*
Y38000D01*
X10540D01*
Y38024D01*
X10516D01*
Y38048D01*
X10492D01*
Y38096D01*
X10468D01*
Y38144D01*
X10444D01*
Y38168D01*
X10420D01*
Y38193D01*
X10396D01*
Y38217D01*
X10372D01*
Y38241D01*
X10348D01*
Y38289D01*
X10324D01*
Y38313D01*
X10300D01*
Y38361D01*
X10275D01*
Y38409D01*
X10251D01*
Y38433D01*
X10227D01*
Y38457D01*
X10203D01*
Y38505D01*
X10179D01*
Y38553D01*
X10155D01*
Y38577D01*
X10131D01*
Y38601D01*
X10107D01*
Y38625D01*
X10083D01*
Y38649D01*
X10059D01*
Y38673D01*
X10035D01*
Y38721D01*
X10011D01*
Y38769D01*
X9987D01*
Y38817D01*
X9963D01*
Y38865D01*
X9939D01*
Y38913D01*
X9915D01*
Y38937D01*
X9891D01*
Y38961D01*
X9867D01*
Y38986D01*
X9843D01*
Y39034D01*
X9819D01*
Y39106D01*
X9795D01*
Y39130D01*
X9771D01*
Y39202D01*
X9747D01*
Y39226D01*
X9723D01*
Y39250D01*
X9699D01*
Y39274D01*
X9675D01*
Y39322D01*
X9651D01*
Y39370D01*
X9627D01*
Y39418D01*
X9603D01*
Y39466D01*
X9579D01*
Y39514D01*
X9555D01*
Y39562D01*
X9531D01*
Y39610D01*
X9507D01*
Y39658D01*
X9482D01*
Y39706D01*
X9459D01*
Y39754D01*
X9434D01*
Y39802D01*
X9410D01*
Y39850D01*
X9386D01*
Y39899D01*
X9362D01*
Y39947D01*
X9338D01*
Y39995D01*
X9314D01*
Y40043D01*
X9290D01*
Y40091D01*
X9266D01*
Y40139D01*
X9242D01*
Y40187D01*
X9218D01*
Y40235D01*
X9194D01*
Y40355D01*
X9170D01*
Y40379D01*
X9146D01*
Y40451D01*
X9122D01*
Y40475D01*
X9098D01*
Y40547D01*
X9074D01*
Y40644D01*
X9050D01*
Y40691D01*
X9026D01*
Y40740D01*
X9002D01*
Y40788D01*
X8978D01*
Y40884D01*
X8954D01*
Y40932D01*
X8930D01*
Y40980D01*
X8906D01*
Y41100D01*
X8882D01*
Y41148D01*
X8858D01*
Y41244D01*
X8834D01*
Y41292D01*
X8810D01*
Y41364D01*
X8786D01*
Y41412D01*
X8810D01*
Y41436D01*
X8786D01*
Y41508D01*
X8762D01*
Y41557D01*
X8738D01*
Y41725D01*
X8714D01*
Y41773D01*
X8690D01*
Y41917D01*
X8666D01*
Y41989D01*
X8641D01*
Y42013D01*
X8618D01*
Y42181D01*
X8594D01*
Y42229D01*
X8569D01*
Y42518D01*
X8545D01*
Y42566D01*
X8521D01*
Y42590D01*
X8497D01*
Y45449D01*
X8545D01*
Y45497D01*
X8569D01*
Y45738D01*
X8594D01*
Y45762D01*
X8618D01*
Y45930D01*
X8641D01*
Y45978D01*
X8666D01*
Y46050D01*
X8690D01*
Y46194D01*
X8714D01*
Y46242D01*
X8738D01*
Y46362D01*
X8762D01*
Y46386D01*
X8786D01*
Y46555D01*
X8810D01*
Y46603D01*
X8834D01*
Y46651D01*
X8858D01*
Y46771D01*
X8882D01*
Y46819D01*
X8906D01*
Y46915D01*
X8930D01*
Y46963D01*
X8954D01*
Y47011D01*
X8978D01*
Y47059D01*
X9002D01*
Y47107D01*
X9026D01*
Y47227D01*
X9050D01*
Y47251D01*
X9074D01*
Y47324D01*
X9098D01*
Y47372D01*
X9122D01*
Y47396D01*
X9146D01*
Y47516D01*
X9170D01*
Y47564D01*
X9194D01*
Y47612D01*
X9218D01*
Y47660D01*
X9242D01*
Y47708D01*
X9266D01*
Y47756D01*
X9290D01*
Y47804D01*
X9314D01*
Y47900D01*
X9338D01*
Y47948D01*
X9362D01*
Y47972D01*
X9386D01*
Y47996D01*
X9410D01*
Y48044D01*
X9434D01*
Y48141D01*
X9459D01*
Y48189D01*
X9482D01*
Y48261D01*
X9507D01*
Y48285D01*
X9531D01*
Y48333D01*
X9555D01*
Y48381D01*
X9579D01*
Y48429D01*
X9603D01*
Y48453D01*
X9627D01*
Y48477D01*
X9651D01*
Y48525D01*
X9675D01*
Y48573D01*
X9699D01*
Y48621D01*
X9723D01*
Y48669D01*
X9747D01*
Y48717D01*
X9771D01*
Y48741D01*
X9795D01*
Y48765D01*
X9819D01*
Y48813D01*
X9843D01*
Y48861D01*
X9867D01*
Y48885D01*
X9891D01*
Y48958D01*
X9915D01*
Y48981D01*
X9939D01*
Y49054D01*
X9963D01*
Y49102D01*
X9987D01*
Y49126D01*
X10011D01*
Y49150D01*
X10035D01*
Y49174D01*
X10059D01*
Y49222D01*
X10083D01*
Y49270D01*
X10107D01*
Y49294D01*
X10131D01*
Y49318D01*
X10155D01*
Y49366D01*
X10179D01*
Y49414D01*
X10203D01*
Y49462D01*
X10227D01*
Y49486D01*
X10251D01*
Y49510D01*
X10275D01*
Y49534D01*
X10300D01*
Y49606D01*
X10324D01*
Y49630D01*
X10348D01*
Y49654D01*
X10372D01*
Y49678D01*
X10396D01*
Y49702D01*
X10420D01*
Y49726D01*
X10444D01*
Y49774D01*
X10468D01*
Y49823D01*
X10492D01*
Y49847D01*
X10516D01*
Y49871D01*
X10540D01*
Y49895D01*
X10564D01*
Y49919D01*
X10588D01*
Y49943D01*
X10612D01*
Y49991D01*
X10636D01*
Y50039D01*
X10660D01*
Y50087D01*
X10684D01*
Y50111D01*
X10708D01*
Y50135D01*
X10732D01*
Y50159D01*
X10756D01*
Y50183D01*
X10780D01*
Y50207D01*
X10804D01*
Y50231D01*
X10828D01*
Y50255D01*
X10852D01*
Y50303D01*
X10876D01*
Y50351D01*
X10900D01*
Y50375D01*
X10924D01*
Y50399D01*
X10948D01*
Y50423D01*
X10972D01*
Y50447D01*
X10996D01*
Y50471D01*
X11020D01*
Y50495D01*
X11044D01*
Y50519D01*
X11069D01*
Y50543D01*
X11092D01*
Y50567D01*
X11116D01*
Y50592D01*
X11141D01*
Y50616D01*
X11165D01*
Y50640D01*
X11189D01*
Y50664D01*
X11213D01*
Y50688D01*
X11237D01*
Y50712D01*
X11261D01*
Y50736D01*
X11285D01*
Y50760D01*
X11309D01*
Y50808D01*
X11333D01*
Y50856D01*
X11357D01*
Y50904D01*
X11381D01*
Y50928D01*
X11405D01*
Y50952D01*
X11429D01*
Y50976D01*
X11453D01*
Y51000D01*
X11477D01*
Y51024D01*
X11501D01*
Y51048D01*
X11525D01*
Y51072D01*
X11549D01*
Y51096D01*
X11573D01*
Y51120D01*
X11597D01*
Y51144D01*
X11621D01*
Y51168D01*
X11645D01*
Y51192D01*
X11669D01*
Y51216D01*
X11693D01*
Y51240D01*
X11717D01*
Y51264D01*
X11741D01*
Y51288D01*
X11765D01*
Y51312D01*
X11789D01*
Y51336D01*
X11813D01*
Y51360D01*
X11837D01*
Y51385D01*
X11885D01*
Y51409D01*
X11933D01*
Y51432D01*
X11982D01*
Y51456D01*
X12006D01*
Y51481D01*
X12030D01*
Y51505D01*
X12054D01*
Y51529D01*
X12078D01*
Y51553D01*
X12102D01*
Y51577D01*
X12126D01*
Y51601D01*
X12150D01*
Y51625D01*
X12174D01*
Y51649D01*
X12198D01*
Y51673D01*
X12222D01*
Y51697D01*
X12246D01*
Y51721D01*
X12270D01*
Y51745D01*
X12294D01*
Y51769D01*
X12318D01*
Y51793D01*
X12366D01*
Y51817D01*
X12414D01*
Y51841D01*
X12438D01*
Y51865D01*
X12462D01*
Y51889D01*
X12486D01*
Y51913D01*
X12510D01*
Y51937D01*
X12534D01*
Y51961D01*
X12558D01*
Y51985D01*
X12582D01*
Y52009D01*
X12630D01*
Y52033D01*
X12678D01*
Y52057D01*
X12702D01*
Y52081D01*
X12751D01*
Y52105D01*
X12774D01*
Y52129D01*
X12799D01*
Y52153D01*
X12823D01*
Y52177D01*
X12847D01*
Y52201D01*
X12895D01*
Y52225D01*
X12943D01*
Y52249D01*
X12967D01*
Y52274D01*
X12991D01*
Y52298D01*
X13015D01*
Y52322D01*
X13039D01*
Y52346D01*
X13063D01*
Y52370D01*
X13111D01*
Y52394D01*
X13159D01*
Y52418D01*
X13183D01*
Y52442D01*
X13207D01*
Y52466D01*
X13255D01*
Y52490D01*
X13303D01*
Y52514D01*
X13351D01*
Y52538D01*
X13375D01*
Y52562D01*
X13399D01*
Y52586D01*
X13423D01*
Y52610D01*
X13471D01*
Y52634D01*
X13519D01*
Y52658D01*
X13543D01*
Y52682D01*
X13568D01*
Y52706D01*
X13615D01*
Y52730D01*
X13664D01*
Y52754D01*
X13712D01*
Y52778D01*
X13760D01*
Y52802D01*
X13808D01*
Y52826D01*
X13856D01*
Y52850D01*
X13904D01*
Y52874D01*
X13928D01*
Y52898D01*
X13952D01*
Y52922D01*
X14000D01*
Y52946D01*
X14024D01*
Y52970D01*
X14096D01*
Y52994D01*
X14120D01*
Y53018D01*
X14168D01*
Y53042D01*
X14216D01*
Y53067D01*
X14264D01*
Y53091D01*
X14336D01*
Y53115D01*
X14360D01*
Y53139D01*
X14432D01*
Y53163D01*
X14456D01*
Y53187D01*
X14505D01*
Y53211D01*
X14553D01*
Y53235D01*
X14601D01*
Y53259D01*
X14673D01*
Y53283D01*
X14697D01*
Y53307D01*
X14745D01*
Y53331D01*
X14793D01*
Y53355D01*
X14841D01*
Y53379D01*
X14889D01*
Y53403D01*
X14937D01*
Y53427D01*
X15057D01*
Y53451D01*
X15105D01*
Y53475D01*
X15153D01*
Y53499D01*
X15201D01*
Y53523D01*
X15250D01*
Y53547D01*
X15346D01*
Y53571D01*
X15394D01*
Y53595D01*
X15442D01*
Y53619D01*
X15490D01*
Y53643D01*
X15562D01*
Y53667D01*
X15658D01*
Y53691D01*
X15706D01*
Y53715D01*
X15802D01*
Y53739D01*
X15850D01*
Y53763D01*
X15946D01*
Y53787D01*
X15994D01*
Y53811D01*
X16066D01*
Y53835D01*
X16163D01*
Y53859D01*
X16211D01*
Y53884D01*
X16379D01*
Y53907D01*
X16427D01*
Y53931D01*
X16475D01*
Y53956D01*
X16643D01*
Y53980D01*
X16667D01*
Y54004D01*
X16787D01*
Y54028D01*
X16835D01*
Y54052D01*
X17052D01*
Y54076D01*
X17100D01*
Y54100D01*
X17148D01*
Y54124D01*
X17364D01*
Y54148D01*
X17412D01*
Y54172D01*
X17700D01*
Y54196D01*
X17749D01*
Y54220D01*
X17773D01*
Y54244D01*
X21473D01*
Y54220D01*
D02*
G37*
G36*
X212027Y79348D02*
X212207Y79338D01*
X212236Y79329D01*
X212345Y79315D01*
X212459Y79296D01*
X212497Y79286D01*
X212544Y79277D01*
X212696Y79239D01*
X212748Y79225D01*
X212980Y79144D01*
X213028Y79125D01*
X213104Y79096D01*
X213156Y79073D01*
X213488Y78902D01*
X213682Y78774D01*
X213739Y78736D01*
X213753Y78722D01*
X213772Y78712D01*
X213791Y78693D01*
X213810Y78684D01*
X213829Y78665D01*
X213848Y78655D01*
X213877Y78627D01*
X213896Y78618D01*
X213934Y78580D01*
X213953Y78570D01*
X214000Y78523D01*
X214019Y78513D01*
X214261Y78271D01*
X214270Y78252D01*
X214327Y78195D01*
X214337Y78176D01*
X214365Y78148D01*
X214375Y78129D01*
X214403Y78101D01*
X214413Y78082D01*
X214441Y78053D01*
X214450Y78034D01*
X214583Y77845D01*
X214593Y77825D01*
X214631Y77769D01*
X214640Y77750D01*
X214678Y77683D01*
X214849Y77332D01*
X214906Y77190D01*
X214953Y77038D01*
X214972Y76972D01*
X214982Y76934D01*
X215001Y76868D01*
X215015Y76806D01*
X215024Y76768D01*
X215043Y76673D01*
X215053Y76616D01*
X215077Y76422D01*
X215086Y76327D01*
X215096Y76175D01*
X215086Y36796D01*
X215077Y36768D01*
X215062Y36640D01*
X215043Y36516D01*
X215024Y36421D01*
X215015Y36384D01*
X215005Y36336D01*
X214986Y36260D01*
X214972Y36208D01*
X214953Y36142D01*
X214891Y35966D01*
X214835Y35824D01*
X214787Y35720D01*
X214768Y35672D01*
X214726Y35601D01*
X214640Y35440D01*
X214574Y35336D01*
X214564Y35317D01*
X214517Y35250D01*
X214507Y35231D01*
X214488Y35212D01*
X214479Y35193D01*
X214389Y35075D01*
X214375Y35061D01*
X214365Y35041D01*
X214327Y35003D01*
X214318Y34985D01*
X214270Y34937D01*
X214261Y34918D01*
X214000Y34657D01*
X213981Y34648D01*
X213934Y34601D01*
X213915Y34591D01*
X213877Y34553D01*
X213858Y34543D01*
X213829Y34515D01*
X213810Y34506D01*
X213782Y34477D01*
X213763Y34468D01*
X213630Y34373D01*
X213611Y34363D01*
X213507Y34297D01*
X213488Y34288D01*
X213412Y34240D01*
X213137Y34107D01*
X213071Y34079D01*
X212928Y34022D01*
X212777Y33974D01*
X212644Y33937D01*
X212568Y33918D01*
X212506Y33903D01*
X212411Y33884D01*
X212355Y33875D01*
X212226Y33861D01*
X212188Y33851D01*
X212037Y33842D01*
X211970Y33832D01*
X178870D01*
X172544Y33842D01*
X172515Y33851D01*
X172383Y33861D01*
X172354Y33870D01*
X172264Y33884D01*
X172207Y33894D01*
X172160Y33903D01*
X172084Y33922D01*
X172036Y33932D01*
X171984Y33946D01*
X171946Y33956D01*
X171880Y33974D01*
X171704Y34036D01*
X171562Y34093D01*
X171458Y34141D01*
X171244Y34249D01*
X171178Y34288D01*
X171074Y34354D01*
X171055Y34363D01*
X170803Y34548D01*
X170789Y34562D01*
X170770Y34572D01*
X170732Y34610D01*
X170713Y34619D01*
X170666Y34667D01*
X170647Y34676D01*
X170405Y34918D01*
X170396Y34937D01*
X170348Y34985D01*
X170339Y35003D01*
X170301Y35041D01*
X170291Y35061D01*
X170263Y35089D01*
X170253Y35108D01*
X170225Y35136D01*
X170215Y35155D01*
X170102Y35317D01*
X170092Y35336D01*
X170045Y35402D01*
X169978Y35525D01*
X169817Y35857D01*
X169798Y35905D01*
X169774Y35966D01*
X169703Y36189D01*
X169684Y36256D01*
X169646Y36407D01*
X169632Y36469D01*
X169613Y36583D01*
X169589Y36777D01*
X169580Y36872D01*
X169570Y37024D01*
X169580Y76384D01*
X169589Y76412D01*
X169604Y76550D01*
X169623Y76664D01*
X169651Y76806D01*
X169689Y76958D01*
X169703Y77010D01*
X169784Y77242D01*
X169841Y77385D01*
X169888Y77489D01*
X170016Y77731D01*
X170064Y77807D01*
X170073Y77825D01*
X170121Y77892D01*
X170130Y77911D01*
X170268Y78096D01*
X170291Y78129D01*
X170334Y78181D01*
X170358Y78205D01*
X170367Y78224D01*
X170424Y78281D01*
X170434Y78300D01*
X170637Y78504D01*
X170656Y78513D01*
X170713Y78570D01*
X170732Y78580D01*
X170780Y78627D01*
X170799Y78636D01*
X170818Y78655D01*
X170837Y78665D01*
X170865Y78693D01*
X170884Y78703D01*
X170903Y78722D01*
X170922Y78731D01*
X171055Y78826D01*
X171074Y78836D01*
X171131Y78874D01*
X171150Y78883D01*
X171225Y78930D01*
X171576Y79101D01*
X171719Y79158D01*
X171927Y79225D01*
X171994Y79243D01*
X172145Y79281D01*
X172307Y79310D01*
X172345Y79319D01*
X172454Y79334D01*
X172549Y79343D01*
X172672Y79352D01*
X211999Y79357D01*
X212027Y79348D01*
D02*
G37*
%LPC*%
G36*
X19983Y52706D02*
X19262D01*
Y52682D01*
X19214D01*
Y52658D01*
X19166D01*
Y52634D01*
X18421D01*
Y52610D01*
X18373D01*
Y52586D01*
X17965D01*
Y52562D01*
X17941D01*
Y52538D01*
X17869D01*
Y52514D01*
X17821D01*
Y52538D01*
X17724D01*
Y52514D01*
X17652D01*
Y52490D01*
X17604D01*
Y52466D01*
X17388D01*
Y52442D01*
X17340D01*
Y52418D01*
X17196D01*
Y52394D01*
X17124D01*
Y52370D01*
X17076D01*
Y52346D01*
X16908D01*
Y52322D01*
X16883D01*
Y52298D01*
X16715D01*
Y52274D01*
X16667D01*
Y52249D01*
X16595D01*
Y52225D01*
X16499D01*
Y52201D01*
X16451D01*
Y52177D01*
X16355D01*
Y52153D01*
X16307D01*
Y52129D01*
X16211D01*
Y52105D01*
X16139D01*
Y52081D01*
X16114D01*
Y52057D01*
X16042D01*
Y52033D01*
X16018D01*
Y52009D01*
X15898D01*
Y51985D01*
X15850D01*
Y51961D01*
X15778D01*
Y51937D01*
X15706D01*
Y51913D01*
X15658D01*
Y51889D01*
X15610D01*
Y51865D01*
X15562D01*
Y51841D01*
X15514D01*
Y51817D01*
X15466D01*
Y51793D01*
X15418D01*
Y51769D01*
X15370D01*
Y51745D01*
X15322D01*
Y51721D01*
X15273D01*
Y51697D01*
X15225D01*
Y51673D01*
X15177D01*
Y51649D01*
X15129D01*
Y51625D01*
X15081D01*
Y51601D01*
X15033D01*
Y51577D01*
X14985D01*
Y51553D01*
X14937D01*
Y51529D01*
X14889D01*
Y51505D01*
X14841D01*
Y51481D01*
X14793D01*
Y51456D01*
X14745D01*
Y51432D01*
X14697D01*
Y51409D01*
X14649D01*
Y51385D01*
X14625D01*
Y51360D01*
X14601D01*
Y51336D01*
X14553D01*
Y51312D01*
X14505D01*
Y51288D01*
X14456D01*
Y51264D01*
X14409D01*
Y51240D01*
X14360D01*
Y51216D01*
X14336D01*
Y51192D01*
X14312D01*
Y51168D01*
X14288D01*
Y51144D01*
X14216D01*
Y51120D01*
X14192D01*
Y51096D01*
X14168D01*
Y51072D01*
X14144D01*
Y51048D01*
X14096D01*
Y51024D01*
X14048D01*
Y51000D01*
X14000D01*
Y50952D01*
X13952D01*
Y50928D01*
X13928D01*
Y50904D01*
X13904D01*
Y50880D01*
X13880D01*
Y50856D01*
X13832D01*
Y50832D01*
X13784D01*
Y50808D01*
X13760D01*
Y50784D01*
X13736D01*
Y50760D01*
X13688D01*
Y50736D01*
X13640D01*
Y50712D01*
X13615D01*
Y50688D01*
X13592D01*
Y50664D01*
X13568D01*
Y50640D01*
X13543D01*
Y50616D01*
X13519D01*
Y50592D01*
X13495D01*
Y50567D01*
X13471D01*
Y50543D01*
X13447D01*
Y50519D01*
X13423D01*
Y50495D01*
X13399D01*
Y50471D01*
X13351D01*
Y50447D01*
X13303D01*
Y50423D01*
X13255D01*
Y50399D01*
X13231D01*
Y50375D01*
X13207D01*
Y50351D01*
X13183D01*
Y50327D01*
X13159D01*
Y50303D01*
X13135D01*
Y50279D01*
X13111D01*
Y50255D01*
X13087D01*
Y50231D01*
X13063D01*
Y50207D01*
X13039D01*
Y50183D01*
X13015D01*
Y50159D01*
X12991D01*
Y50135D01*
X12967D01*
Y50111D01*
X12943D01*
Y50087D01*
X12919D01*
Y50063D01*
X12895D01*
Y50039D01*
X12871D01*
Y50015D01*
X12847D01*
Y49991D01*
X12823D01*
Y49967D01*
X12799D01*
Y49943D01*
X12774D01*
Y49919D01*
X12751D01*
Y49895D01*
X12726D01*
Y49871D01*
X12702D01*
Y49847D01*
X12678D01*
Y49823D01*
X12654D01*
Y49798D01*
X12630D01*
Y49774D01*
X12606D01*
Y49750D01*
X12582D01*
Y49726D01*
X12558D01*
Y49702D01*
X12534D01*
Y49678D01*
X12510D01*
Y49654D01*
X12486D01*
Y49630D01*
X12462D01*
Y49606D01*
X12438D01*
Y49582D01*
X12414D01*
Y49558D01*
X12390D01*
Y49534D01*
X12366D01*
Y49510D01*
X12342D01*
Y49486D01*
X12318D01*
Y49438D01*
X12294D01*
Y49390D01*
X12270D01*
Y49342D01*
X12246D01*
Y49318D01*
X12222D01*
Y49294D01*
X12198D01*
Y49270D01*
X12174D01*
Y49246D01*
X12150D01*
Y49222D01*
X12126D01*
Y49198D01*
X12102D01*
Y49174D01*
X12078D01*
Y49126D01*
X12054D01*
Y49078D01*
X12030D01*
Y49054D01*
X12006D01*
Y49030D01*
X11982D01*
Y49006D01*
X11957D01*
Y48981D01*
X11933D01*
Y48958D01*
X11910D01*
Y48910D01*
X11885D01*
Y48861D01*
X11861D01*
Y48837D01*
X11837D01*
Y48813D01*
X11813D01*
Y48789D01*
X11789D01*
Y48765D01*
X11765D01*
Y48741D01*
X11741D01*
Y48693D01*
X11717D01*
Y48645D01*
X11693D01*
Y48597D01*
X11669D01*
Y48573D01*
X11645D01*
Y48549D01*
X11621D01*
Y48525D01*
X11597D01*
Y48453D01*
X11573D01*
Y48429D01*
X11549D01*
Y48405D01*
X11525D01*
Y48381D01*
X11501D01*
Y48333D01*
X11477D01*
Y48285D01*
X11453D01*
Y48237D01*
X11429D01*
Y48189D01*
X11405D01*
Y48141D01*
X11381D01*
Y48116D01*
X11357D01*
Y48092D01*
X11333D01*
Y48044D01*
X11309D01*
Y47996D01*
X11285D01*
Y47948D01*
X11261D01*
Y47900D01*
X11237D01*
Y47852D01*
X11213D01*
Y47828D01*
X11189D01*
Y47804D01*
X11165D01*
Y47780D01*
X11141D01*
Y47708D01*
X11116D01*
Y47684D01*
X11092D01*
Y47612D01*
X11069D01*
Y47588D01*
X11044D01*
Y47540D01*
X11020D01*
Y47468D01*
X10996D01*
Y47444D01*
X10972D01*
Y47372D01*
X10948D01*
Y47348D01*
X10924D01*
Y47299D01*
X10900D01*
Y47251D01*
X10876D01*
Y47203D01*
X10852D01*
Y47131D01*
X10828D01*
Y47107D01*
X10804D01*
Y47035D01*
X10780D01*
Y47011D01*
X10756D01*
Y46963D01*
X10732D01*
Y46843D01*
X10708D01*
Y46795D01*
X10684D01*
Y46699D01*
X10660D01*
Y46651D01*
X10636D01*
Y46603D01*
X10612D01*
Y46555D01*
X10588D01*
Y46507D01*
X10564D01*
Y46386D01*
X10540D01*
Y46362D01*
X10516D01*
Y46290D01*
X10492D01*
Y46242D01*
X10468D01*
Y46218D01*
X10444D01*
Y46098D01*
X10420D01*
Y46050D01*
X10396D01*
Y45882D01*
X10372D01*
Y45834D01*
X10348D01*
Y45786D01*
X10324D01*
Y45690D01*
X10300D01*
Y45641D01*
X10275D01*
Y45473D01*
X10251D01*
Y45425D01*
X10227D01*
Y45353D01*
X10203D01*
Y45281D01*
X10227D01*
Y45233D01*
X10203D01*
Y45161D01*
X10179D01*
Y45113D01*
X10155D01*
Y44825D01*
X10131D01*
Y44777D01*
X10107D01*
Y44224D01*
X10083D01*
Y44152D01*
X10107D01*
Y43287D01*
X10131D01*
Y43263D01*
X10155D01*
Y42902D01*
X10179D01*
Y42854D01*
X10203D01*
Y42782D01*
X10227D01*
Y42758D01*
X10203D01*
Y42614D01*
X10227D01*
Y42542D01*
X10251D01*
Y42494D01*
X10275D01*
Y42326D01*
X10300D01*
Y42277D01*
X10324D01*
Y42109D01*
X10348D01*
Y42061D01*
X10372D01*
Y42013D01*
X10396D01*
Y41845D01*
X10420D01*
Y41797D01*
X10444D01*
Y41701D01*
X10468D01*
Y41653D01*
X10492D01*
Y41605D01*
X10516D01*
Y41557D01*
X10540D01*
Y41508D01*
X10564D01*
Y41388D01*
X10588D01*
Y41364D01*
X10612D01*
Y41244D01*
X10636D01*
Y41196D01*
X10660D01*
Y41148D01*
X10684D01*
Y41100D01*
X10708D01*
Y41052D01*
X10732D01*
Y40956D01*
X10756D01*
Y40908D01*
X10780D01*
Y40860D01*
X10804D01*
Y40812D01*
X10828D01*
Y40764D01*
X10852D01*
Y40716D01*
X10876D01*
Y40668D01*
X10900D01*
Y40620D01*
X10924D01*
Y40571D01*
X10948D01*
Y40523D01*
X10972D01*
Y40475D01*
X10996D01*
Y40427D01*
X11020D01*
Y40379D01*
X11044D01*
Y40331D01*
X11069D01*
Y40283D01*
X11092D01*
Y40235D01*
X11116D01*
Y40187D01*
X11141D01*
Y40139D01*
X11165D01*
Y40091D01*
X11189D01*
Y40067D01*
X11213D01*
Y40043D01*
X11237D01*
Y39995D01*
X11261D01*
Y39947D01*
X11285D01*
Y39899D01*
X11309D01*
Y39850D01*
X11333D01*
Y39827D01*
X11357D01*
Y39802D01*
X11381D01*
Y39754D01*
X11405D01*
Y39730D01*
X11429D01*
Y39682D01*
X11453D01*
Y39634D01*
X11477D01*
Y39610D01*
X11501D01*
Y39586D01*
X11525D01*
Y39538D01*
X11549D01*
Y39490D01*
X11573D01*
Y39466D01*
X11597D01*
Y39442D01*
X11621D01*
Y39418D01*
X11645D01*
Y39394D01*
X11669D01*
Y39370D01*
X11693D01*
Y39322D01*
X11717D01*
Y39274D01*
X11741D01*
Y39226D01*
X11765D01*
Y39202D01*
X11789D01*
Y39178D01*
X11813D01*
Y39130D01*
X11837D01*
Y39082D01*
X11861D01*
Y39058D01*
X11885D01*
Y39034D01*
X11910D01*
Y39009D01*
X11933D01*
Y38986D01*
X11957D01*
Y38961D01*
X11982D01*
Y38937D01*
X12006D01*
Y38913D01*
X12030D01*
Y38865D01*
X12054D01*
Y38817D01*
X12078D01*
Y38793D01*
X12102D01*
Y38769D01*
X12126D01*
Y38745D01*
X12150D01*
Y38721D01*
X12174D01*
Y38697D01*
X12198D01*
Y38673D01*
X12222D01*
Y38649D01*
X12246D01*
Y38625D01*
X12270D01*
Y38601D01*
X12294D01*
Y38577D01*
X12318D01*
Y38553D01*
X12342D01*
Y38529D01*
X12366D01*
Y38481D01*
X12390D01*
Y38457D01*
X12414D01*
Y38385D01*
X12438D01*
Y38361D01*
X12462D01*
Y38337D01*
X12486D01*
Y38313D01*
X12510D01*
Y38289D01*
X12534D01*
Y38265D01*
X12558D01*
Y38241D01*
X12582D01*
Y38217D01*
X12606D01*
Y38193D01*
X12630D01*
Y38168D01*
X12654D01*
Y38144D01*
X12678D01*
Y38120D01*
X12702D01*
Y38096D01*
X12726D01*
Y38072D01*
X12751D01*
Y38048D01*
X12774D01*
Y38024D01*
X12799D01*
Y38000D01*
X12823D01*
Y37976D01*
X12847D01*
Y37952D01*
X12871D01*
Y37928D01*
X12895D01*
Y37904D01*
X12919D01*
Y37880D01*
X12943D01*
Y37856D01*
X12967D01*
Y37832D01*
X12991D01*
Y37808D01*
X13015D01*
Y37784D01*
X13039D01*
Y37760D01*
X13063D01*
Y37736D01*
X13087D01*
Y37712D01*
X13111D01*
Y37688D01*
X13135D01*
Y37664D01*
X13159D01*
Y37640D01*
X13183D01*
Y37616D01*
X13207D01*
Y37592D01*
X13255D01*
Y37568D01*
X13303D01*
Y37544D01*
X13327D01*
Y37520D01*
X13375D01*
Y37496D01*
X13399D01*
Y37472D01*
X13423D01*
Y37448D01*
X13447D01*
Y37424D01*
X13471D01*
Y37400D01*
X13495D01*
Y37376D01*
X13519D01*
Y37352D01*
X13543D01*
Y37327D01*
X13568D01*
Y37303D01*
X13592D01*
Y37279D01*
X13615D01*
Y37255D01*
X13640D01*
Y37231D01*
X13664D01*
Y37207D01*
X13688D01*
Y37183D01*
X13712D01*
Y37159D01*
X13784D01*
Y37135D01*
X13808D01*
Y37111D01*
X13832D01*
Y37087D01*
X13856D01*
Y37063D01*
X13880D01*
Y37039D01*
X13904D01*
Y37015D01*
X13928D01*
Y36991D01*
X13952D01*
Y36967D01*
X13976D01*
Y36943D01*
X14024D01*
Y36919D01*
X14072D01*
Y36895D01*
X14096D01*
Y36871D01*
X14120D01*
Y36847D01*
X14144D01*
Y36823D01*
X14168D01*
Y36799D01*
X14192D01*
Y36775D01*
X14264D01*
Y36751D01*
X14288D01*
Y36727D01*
X14336D01*
Y36703D01*
X14360D01*
Y36679D01*
X14384D01*
Y36655D01*
X14409D01*
Y36631D01*
X14432D01*
Y36607D01*
X14481D01*
Y36583D01*
X14529D01*
Y36559D01*
X14553D01*
Y36535D01*
X14577D01*
Y36511D01*
X14601D01*
Y36486D01*
X14649D01*
Y36462D01*
X14697D01*
Y36438D01*
X14721D01*
Y36414D01*
X14769D01*
Y36390D01*
X14793D01*
Y36366D01*
X14817D01*
Y36342D01*
X14841D01*
Y36318D01*
X14889D01*
Y36294D01*
X14937D01*
Y36270D01*
X14961D01*
Y36246D01*
X14985D01*
Y36222D01*
X15009D01*
Y36198D01*
X15057D01*
Y36174D01*
X15105D01*
Y36150D01*
X15153D01*
Y36126D01*
X15201D01*
Y36102D01*
X15250D01*
Y36078D01*
X15273D01*
Y36054D01*
X15298D01*
Y36030D01*
X15346D01*
Y36006D01*
X15394D01*
Y35982D01*
X15418D01*
Y35958D01*
X15442D01*
Y35934D01*
X15466D01*
Y35910D01*
X15514D01*
Y35886D01*
X15562D01*
Y35862D01*
X15610D01*
Y35838D01*
X15658D01*
Y35814D01*
X15706D01*
Y35790D01*
X15730D01*
Y35766D01*
X15754D01*
Y35742D01*
X15802D01*
Y35717D01*
X15850D01*
Y35694D01*
X15898D01*
Y35670D01*
X15946D01*
Y35645D01*
X15994D01*
Y35621D01*
X16042D01*
Y35597D01*
X16091D01*
Y35573D01*
X16114D01*
Y35549D01*
X16139D01*
Y35525D01*
X16163D01*
Y35501D01*
X16235D01*
Y35477D01*
X16259D01*
Y35453D01*
X16331D01*
Y35429D01*
X16379D01*
Y35405D01*
X16403D01*
Y35381D01*
X16475D01*
Y35357D01*
X16499D01*
Y35333D01*
X16571D01*
Y35309D01*
X16595D01*
Y35285D01*
X16643D01*
Y35261D01*
X16715D01*
Y35237D01*
X16739D01*
Y35213D01*
X16811D01*
Y35189D01*
X16835D01*
Y35165D01*
X16908D01*
Y35141D01*
X16956D01*
Y35117D01*
X16980D01*
Y35093D01*
X17100D01*
Y35069D01*
X17148D01*
Y35045D01*
X17196D01*
Y35021D01*
X17244D01*
Y34997D01*
X17292D01*
Y34973D01*
X17340D01*
Y34949D01*
X17388D01*
Y34925D01*
X17484D01*
Y34901D01*
X17532D01*
Y34876D01*
X17580D01*
Y34852D01*
X17628D01*
Y34829D01*
X17676D01*
Y34804D01*
X17700D01*
Y34780D01*
X17724D01*
Y34756D01*
X17749D01*
Y34708D01*
X17773D01*
Y34660D01*
X17797D01*
Y34612D01*
X17821D01*
Y34588D01*
X17845D01*
Y34564D01*
X17869D01*
Y34516D01*
X17893D01*
Y34468D01*
X17917D01*
Y34444D01*
X17941D01*
Y34420D01*
X17965D01*
Y34396D01*
X17989D01*
Y34348D01*
X18013D01*
Y34300D01*
X18037D01*
Y34276D01*
X18061D01*
Y34252D01*
X18085D01*
Y34228D01*
X18109D01*
Y34204D01*
X18133D01*
Y34180D01*
X18157D01*
Y34156D01*
X18181D01*
Y34108D01*
X18205D01*
Y34083D01*
X18229D01*
Y34035D01*
X18253D01*
Y33987D01*
X18277D01*
Y33963D01*
X18301D01*
Y33939D01*
X18325D01*
Y33915D01*
X18349D01*
Y33891D01*
X18373D01*
Y33867D01*
X18397D01*
Y33843D01*
X18421D01*
Y33819D01*
X18445D01*
Y33795D01*
X18469D01*
Y33771D01*
X18493D01*
Y33747D01*
X18517D01*
Y33723D01*
X18542D01*
Y33699D01*
X18565D01*
Y33675D01*
X18614D01*
Y33651D01*
X18662D01*
Y33627D01*
X18686D01*
Y33603D01*
X18734D01*
Y33579D01*
X18758D01*
Y33555D01*
X18782D01*
Y33531D01*
X18806D01*
Y33507D01*
X18830D01*
Y33483D01*
X18854D01*
Y33459D01*
X18878D01*
Y33435D01*
X18926D01*
Y33411D01*
X18974D01*
Y33387D01*
X18998D01*
Y33363D01*
X19022D01*
Y33339D01*
X19046D01*
Y33315D01*
X19094D01*
Y33291D01*
X19142D01*
Y33267D01*
X19166D01*
Y33242D01*
X19190D01*
Y33219D01*
X19238D01*
Y33194D01*
X19286D01*
Y33170D01*
X19334D01*
Y33146D01*
X19382D01*
Y33122D01*
X19431D01*
Y33098D01*
X19455D01*
Y33074D01*
X19575D01*
Y33050D01*
X19623D01*
Y33026D01*
X19671D01*
Y33002D01*
X19719D01*
Y32978D01*
X19767D01*
Y32954D01*
X19959D01*
Y32978D01*
X19983D01*
Y33002D01*
X20031D01*
Y33026D01*
X20079D01*
Y33050D01*
X20103D01*
Y33074D01*
X20127D01*
Y33098D01*
X20151D01*
Y33146D01*
X20175D01*
Y33194D01*
X20199D01*
Y33242D01*
X20224D01*
Y33291D01*
X20247D01*
Y33315D01*
X20272D01*
Y33339D01*
X20296D01*
Y33363D01*
X20320D01*
Y33387D01*
X20344D01*
Y33411D01*
X20368D01*
Y33459D01*
X20392D01*
Y33507D01*
X20416D01*
Y33555D01*
X20440D01*
Y33579D01*
X20464D01*
Y33603D01*
X20488D01*
Y33627D01*
X20512D01*
Y33651D01*
X20536D01*
Y33675D01*
X20560D01*
Y33699D01*
X20584D01*
Y33723D01*
X20608D01*
Y33771D01*
X20632D01*
Y33819D01*
X20656D01*
Y33843D01*
X20680D01*
Y33867D01*
X20704D01*
Y33891D01*
X20728D01*
Y33915D01*
X20752D01*
Y33939D01*
X20776D01*
Y33963D01*
X20800D01*
Y33987D01*
X20824D01*
Y34011D01*
X20848D01*
Y34035D01*
X20872D01*
Y34060D01*
X20896D01*
Y34083D01*
X20920D01*
Y34108D01*
X20944D01*
Y34132D01*
X20968D01*
Y34156D01*
X20992D01*
Y34180D01*
X21016D01*
Y34204D01*
X21040D01*
Y34228D01*
X21065D01*
Y34252D01*
X21089D01*
Y34276D01*
X21113D01*
Y34300D01*
X21137D01*
Y34324D01*
X21161D01*
Y34348D01*
X21185D01*
Y34372D01*
X21209D01*
Y34396D01*
X21233D01*
Y34420D01*
X21257D01*
Y34444D01*
X21281D01*
Y34468D01*
X21305D01*
Y34492D01*
X21353D01*
Y34516D01*
X21401D01*
Y34540D01*
X21425D01*
Y34564D01*
X21449D01*
Y34588D01*
X21473D01*
Y34612D01*
X21497D01*
Y34636D01*
X21521D01*
Y34660D01*
X21545D01*
Y34684D01*
X21569D01*
Y34708D01*
X21593D01*
Y34732D01*
X21641D01*
Y34756D01*
X21689D01*
Y34780D01*
X21737D01*
Y34804D01*
X21761D01*
Y34829D01*
X21785D01*
Y34852D01*
X21809D01*
Y34876D01*
X21834D01*
Y34901D01*
X21858D01*
Y34925D01*
X21930D01*
Y34949D01*
X21954D01*
Y34973D01*
X21978D01*
Y34997D01*
X22002D01*
Y35021D01*
X22050D01*
Y35045D01*
X22098D01*
Y35069D01*
X22122D01*
Y35093D01*
X22146D01*
Y35117D01*
X22194D01*
Y35141D01*
X22242D01*
Y35165D01*
X22290D01*
Y35189D01*
X22338D01*
Y35213D01*
X22386D01*
Y35237D01*
X22410D01*
Y35261D01*
X22434D01*
Y35285D01*
X22458D01*
Y35309D01*
X22506D01*
Y35333D01*
X22578D01*
Y35357D01*
X22602D01*
Y35381D01*
X22675D01*
Y35405D01*
X22699D01*
Y35429D01*
X22747D01*
Y35453D01*
X22819D01*
Y35477D01*
X22843D01*
Y35501D01*
X22915D01*
Y35525D01*
X22939D01*
Y35549D01*
X23011D01*
Y35573D01*
X23035D01*
Y35597D01*
X23083D01*
Y35621D01*
X23155D01*
Y35645D01*
X23179D01*
Y35670D01*
X23251D01*
Y35694D01*
X23275D01*
Y35717D01*
X23371D01*
Y35742D01*
X23443D01*
Y35766D01*
X23491D01*
Y35790D01*
X23540D01*
Y35814D01*
X23588D01*
Y35838D01*
X23684D01*
Y35862D01*
X23732D01*
Y35886D01*
X23804D01*
Y35910D01*
X23900D01*
Y35934D01*
X23948D01*
Y35958D01*
X24044D01*
Y35982D01*
X24092D01*
Y36006D01*
X24188D01*
Y36030D01*
X24260D01*
Y36054D01*
X24284D01*
Y36078D01*
X24453D01*
Y36102D01*
X24501D01*
Y36126D01*
X24621D01*
Y36150D01*
X24669D01*
Y36174D01*
X24717D01*
Y36198D01*
X24885D01*
Y36222D01*
X24909D01*
Y36246D01*
X25149D01*
Y36270D01*
X25198D01*
Y36294D01*
X25414D01*
Y36318D01*
X25462D01*
Y36342D01*
X25510D01*
Y36366D01*
X25798D01*
Y36390D01*
X25822D01*
Y36414D01*
X26183D01*
Y36438D01*
X26207D01*
Y36462D01*
X26279D01*
Y36486D01*
X26351D01*
Y36462D01*
X26375D01*
Y36486D01*
X27000D01*
Y36511D01*
X27048D01*
Y36535D01*
X28081D01*
Y36559D01*
X28129D01*
Y36583D01*
X28225D01*
Y36607D01*
X28297D01*
Y36631D01*
X28321D01*
Y36655D01*
X28393D01*
Y36679D01*
X28417D01*
Y36703D01*
X28489D01*
Y36727D01*
X28514D01*
Y36751D01*
X28537D01*
Y36775D01*
X28562D01*
Y36799D01*
X28610D01*
Y36823D01*
X28658D01*
Y36847D01*
X28706D01*
Y36871D01*
X28730D01*
Y36895D01*
X28754D01*
Y36919D01*
X28778D01*
Y36943D01*
X28802D01*
Y36967D01*
X28826D01*
Y36991D01*
X28850D01*
Y37015D01*
X28874D01*
Y37039D01*
X28898D01*
Y37063D01*
X28922D01*
Y37087D01*
X28946D01*
Y37111D01*
X28970D01*
Y37135D01*
X28994D01*
Y37159D01*
X29018D01*
Y37183D01*
X29042D01*
Y37207D01*
X29066D01*
Y37231D01*
X29090D01*
Y37255D01*
X29114D01*
Y37279D01*
X29138D01*
Y37303D01*
X29162D01*
Y37327D01*
X29186D01*
Y37352D01*
X29210D01*
Y37376D01*
X29234D01*
Y37424D01*
X29258D01*
Y37472D01*
X29282D01*
Y37520D01*
X29306D01*
Y37544D01*
X29330D01*
Y37568D01*
X29355D01*
Y37592D01*
X29379D01*
Y37616D01*
X29403D01*
Y37640D01*
X29427D01*
Y37688D01*
X29451D01*
Y37736D01*
X29475D01*
Y37760D01*
X29499D01*
Y37784D01*
X29523D01*
Y37808D01*
X29547D01*
Y37880D01*
X29571D01*
Y37928D01*
X29595D01*
Y37976D01*
X29619D01*
Y38024D01*
X29643D01*
Y38048D01*
X29667D01*
Y38072D01*
X29691D01*
Y38096D01*
X29715D01*
Y38144D01*
X29739D01*
Y38193D01*
X29763D01*
Y38241D01*
X29787D01*
Y38289D01*
X29811D01*
Y38337D01*
X29835D01*
Y38385D01*
X29859D01*
Y38433D01*
X29883D01*
Y38481D01*
X29907D01*
Y38529D01*
X29931D01*
Y38577D01*
X29955D01*
Y38625D01*
X29979D01*
Y38673D01*
X30003D01*
Y38697D01*
X30027D01*
Y38721D01*
X30051D01*
Y38769D01*
X30075D01*
Y38865D01*
X30099D01*
Y38913D01*
X30124D01*
Y38937D01*
X30148D01*
Y38961D01*
X30171D01*
Y39009D01*
X30196D01*
Y39106D01*
X30220D01*
Y39154D01*
X30244D01*
Y39202D01*
X30268D01*
Y39250D01*
X30292D01*
Y39298D01*
X30316D01*
Y39346D01*
X30340D01*
Y39394D01*
X30364D01*
Y39442D01*
X30388D01*
Y39490D01*
X30412D01*
Y39610D01*
X30436D01*
Y39658D01*
X30460D01*
Y39706D01*
X30484D01*
Y39754D01*
X30508D01*
Y39778D01*
X30532D01*
Y39850D01*
X30556D01*
Y39874D01*
X30580D01*
Y39947D01*
X30604D01*
Y39995D01*
X30628D01*
Y40043D01*
X30652D01*
Y40139D01*
X30676D01*
Y40187D01*
X30700D01*
Y40235D01*
X30724D01*
Y40283D01*
X30748D01*
Y40331D01*
X30772D01*
Y40379D01*
X30796D01*
Y40427D01*
X30820D01*
Y40523D01*
X30844D01*
Y40571D01*
X30868D01*
Y40644D01*
X30892D01*
Y40668D01*
X30916D01*
Y40716D01*
X30940D01*
Y40764D01*
X30965D01*
Y40812D01*
X30989D01*
Y40884D01*
X31012D01*
Y40908D01*
X31037D01*
Y40956D01*
X31061D01*
Y41004D01*
X31085D01*
Y41052D01*
X31109D01*
Y41124D01*
X31133D01*
Y41148D01*
X31157D01*
Y41220D01*
X31181D01*
Y41244D01*
X31205D01*
Y41292D01*
X31229D01*
Y41364D01*
X31253D01*
Y41388D01*
X31277D01*
Y41460D01*
X31301D01*
Y41484D01*
X31325D01*
Y41533D01*
X31349D01*
Y41581D01*
X31373D01*
Y41629D01*
X31397D01*
Y41653D01*
X31421D01*
Y41677D01*
X31445D01*
Y41725D01*
X31469D01*
Y41773D01*
X31493D01*
Y41797D01*
X31517D01*
Y41821D01*
X31541D01*
Y41845D01*
X31565D01*
Y41869D01*
X31589D01*
Y41893D01*
X31613D01*
Y41941D01*
X31637D01*
Y41989D01*
X31661D01*
Y42037D01*
X31685D01*
Y42061D01*
X31709D01*
Y42085D01*
X31757D01*
Y42109D01*
X31781D01*
Y42133D01*
X31854D01*
Y42157D01*
X31878D01*
Y42181D01*
X31902D01*
Y42205D01*
X31926D01*
Y42229D01*
X31950D01*
Y42253D01*
X31974D01*
Y42277D01*
X32022D01*
Y42302D01*
X32070D01*
Y42326D01*
X32118D01*
Y42350D01*
X32166D01*
Y42374D01*
X32214D01*
Y42398D01*
X32262D01*
Y42422D01*
X32358D01*
Y42446D01*
X32406D01*
Y42470D01*
X32911D01*
Y42446D01*
X32935D01*
Y42422D01*
X33223D01*
Y42398D01*
X33271D01*
Y42374D01*
X33319D01*
Y42350D01*
X33440D01*
Y42326D01*
X33463D01*
Y42302D01*
X33584D01*
Y42277D01*
X33632D01*
Y42253D01*
X33680D01*
Y42229D01*
X33728D01*
Y42205D01*
X33776D01*
Y42181D01*
X33872D01*
Y42157D01*
X33920D01*
Y42133D01*
X33968D01*
Y42109D01*
X34016D01*
Y42085D01*
X34040D01*
Y42061D01*
X34064D01*
Y42037D01*
X34112D01*
Y42013D01*
X34160D01*
Y41989D01*
X34208D01*
Y41965D01*
X34256D01*
Y41941D01*
X34304D01*
Y41917D01*
X34328D01*
Y41893D01*
X34353D01*
Y41869D01*
X34377D01*
Y41845D01*
X34449D01*
Y41821D01*
X34473D01*
Y41797D01*
X34545D01*
Y41773D01*
X34593D01*
Y41749D01*
X34617D01*
Y41725D01*
X34641D01*
Y41701D01*
X34665D01*
Y41677D01*
X34713D01*
Y41653D01*
X34761D01*
Y41629D01*
X34809D01*
Y41605D01*
X34857D01*
Y41581D01*
X34905D01*
Y41557D01*
X34953D01*
Y41533D01*
X35001D01*
Y41508D01*
X35049D01*
Y41484D01*
X35097D01*
Y41460D01*
X35145D01*
Y41436D01*
X35170D01*
Y41412D01*
X35194D01*
Y41388D01*
X35242D01*
Y41364D01*
X35290D01*
Y41340D01*
X35338D01*
Y41316D01*
X35386D01*
Y41292D01*
X35434D01*
Y41268D01*
X35530D01*
Y41244D01*
X35578D01*
Y41220D01*
X35626D01*
Y41196D01*
X35674D01*
Y41172D01*
X35722D01*
Y41148D01*
X35890D01*
Y41124D01*
X35938D01*
Y41100D01*
X36011D01*
Y41076D01*
X36083D01*
Y41052D01*
X36131D01*
Y41028D01*
X36371D01*
Y41004D01*
X36395D01*
Y40980D01*
X36852D01*
Y41004D01*
X36900D01*
Y41028D01*
X36948D01*
Y41052D01*
X36996D01*
Y41076D01*
X37044D01*
Y41100D01*
X37092D01*
Y41124D01*
X37140D01*
Y41148D01*
X37188D01*
Y41172D01*
X37236D01*
Y41196D01*
X37284D01*
Y41220D01*
X37332D01*
Y41244D01*
X37380D01*
Y41268D01*
X37428D01*
Y41292D01*
X37476D01*
Y41316D01*
X37500D01*
Y41340D01*
X37524D01*
Y41364D01*
X37573D01*
Y41388D01*
X37620D01*
Y41412D01*
X37645D01*
Y41436D01*
X37669D01*
Y41460D01*
X37693D01*
Y41484D01*
X37717D01*
Y41508D01*
X37741D01*
Y41533D01*
X37789D01*
Y41557D01*
X37837D01*
Y41581D01*
X37861D01*
Y41605D01*
X37885D01*
Y41629D01*
X37909D01*
Y41653D01*
X37933D01*
Y41677D01*
X37957D01*
Y41701D01*
X37981D01*
Y41725D01*
X38005D01*
Y41749D01*
X38029D01*
Y41797D01*
X38053D01*
Y41845D01*
X38077D01*
Y41869D01*
X38101D01*
Y41893D01*
X38125D01*
Y41917D01*
X38149D01*
Y41941D01*
X38173D01*
Y41965D01*
X38197D01*
Y42037D01*
X38221D01*
Y42061D01*
X38245D01*
Y42085D01*
X38269D01*
Y42109D01*
X38293D01*
Y42157D01*
X38317D01*
Y42205D01*
X38341D01*
Y42253D01*
X38365D01*
Y42277D01*
X38389D01*
Y42302D01*
X38414D01*
Y42350D01*
X38438D01*
Y42398D01*
X38461D01*
Y42446D01*
X38486D01*
Y42494D01*
X38510D01*
Y42542D01*
X38534D01*
Y42590D01*
X38558D01*
Y42638D01*
X38582D01*
Y42686D01*
X38606D01*
Y42782D01*
X38630D01*
Y42830D01*
X38654D01*
Y42878D01*
X38678D01*
Y42926D01*
X38702D01*
Y42974D01*
X38726D01*
Y43142D01*
X38750D01*
Y43190D01*
X38774D01*
Y43479D01*
X38798D01*
Y43503D01*
X38822D01*
Y43575D01*
X38846D01*
Y44032D01*
X38822D01*
Y44104D01*
X38798D01*
Y44152D01*
X38774D01*
Y44440D01*
X38750D01*
Y44464D01*
X38726D01*
Y44632D01*
X38702D01*
Y44680D01*
X38678D01*
Y44752D01*
X38654D01*
Y44849D01*
X38630D01*
Y44897D01*
X38606D01*
Y44945D01*
X38582D01*
Y44993D01*
X38558D01*
Y45065D01*
X38534D01*
Y45137D01*
X38510D01*
Y45185D01*
X38486D01*
Y45233D01*
X38461D01*
Y45281D01*
X38438D01*
Y45377D01*
X38414D01*
Y45425D01*
X38389D01*
Y45449D01*
X38365D01*
Y45473D01*
X38341D01*
Y45521D01*
X38317D01*
Y45569D01*
X38293D01*
Y45617D01*
X38269D01*
Y45665D01*
X38245D01*
Y45714D01*
X38221D01*
Y45762D01*
X38197D01*
Y45810D01*
X38173D01*
Y45858D01*
X38149D01*
Y45906D01*
X38125D01*
Y45954D01*
X38101D01*
Y45978D01*
X38077D01*
Y46002D01*
X38053D01*
Y46050D01*
X38029D01*
Y46098D01*
X38005D01*
Y46122D01*
X37981D01*
Y46146D01*
X37957D01*
Y46194D01*
X37933D01*
Y46218D01*
X37909D01*
Y46266D01*
X37885D01*
Y46314D01*
X37861D01*
Y46338D01*
X37837D01*
Y46362D01*
X37813D01*
Y46386D01*
X37789D01*
Y46410D01*
X37765D01*
Y46434D01*
X37741D01*
Y46507D01*
X37717D01*
Y46531D01*
X37693D01*
Y46555D01*
X37669D01*
Y46579D01*
X37645D01*
Y46603D01*
X37620D01*
Y46627D01*
X37596D01*
Y46651D01*
X37573D01*
Y46675D01*
X37548D01*
Y46699D01*
X37524D01*
Y46723D01*
X37500D01*
Y46747D01*
X37476D01*
Y46771D01*
X37452D01*
Y46795D01*
X37428D01*
Y46819D01*
X37404D01*
Y46843D01*
X37380D01*
Y46867D01*
X37356D01*
Y46891D01*
X37332D01*
Y46915D01*
X37308D01*
Y46939D01*
X37284D01*
Y46963D01*
X37260D01*
Y46987D01*
X37236D01*
Y47011D01*
X37212D01*
Y47035D01*
X37188D01*
Y47059D01*
X37164D01*
Y47083D01*
X37140D01*
Y47107D01*
X37116D01*
Y47131D01*
X37092D01*
Y47155D01*
X37068D01*
Y47179D01*
X37044D01*
Y47203D01*
X37020D01*
Y47227D01*
X36996D01*
Y47251D01*
X36972D01*
Y47276D01*
X36924D01*
Y47299D01*
X36876D01*
Y47324D01*
X36852D01*
Y47348D01*
X36827D01*
Y47372D01*
X36804D01*
Y47396D01*
X36779D01*
Y47420D01*
X36755D01*
Y47444D01*
X36683D01*
Y47468D01*
X36659D01*
Y47492D01*
X36611D01*
Y47516D01*
X36587D01*
Y47540D01*
X36563D01*
Y47564D01*
X36515D01*
Y47588D01*
X36467D01*
Y47612D01*
X36443D01*
Y47636D01*
X36419D01*
Y47660D01*
X36371D01*
Y47684D01*
X36323D01*
Y47708D01*
X36275D01*
Y47732D01*
X36227D01*
Y47756D01*
X36179D01*
Y47780D01*
X36131D01*
Y47804D01*
X36083D01*
Y47828D01*
X36035D01*
Y47852D01*
X35986D01*
Y47876D01*
X35938D01*
Y47900D01*
X35890D01*
Y47924D01*
X35842D01*
Y47948D01*
X35818D01*
Y47972D01*
X35698D01*
Y47996D01*
X35650D01*
Y48020D01*
X35554D01*
Y48044D01*
X35506D01*
Y48068D01*
X35434D01*
Y48092D01*
X35338D01*
Y48116D01*
X35290D01*
Y48141D01*
X35073D01*
Y48165D01*
X35025D01*
Y48189D01*
X34953D01*
Y48213D01*
X34473D01*
Y48237D01*
X34425D01*
Y48261D01*
X34353D01*
Y48237D01*
X34304D01*
Y48213D01*
X33704D01*
Y48189D01*
X33632D01*
Y48165D01*
X33584D01*
Y48141D01*
X33295D01*
Y48116D01*
X33247D01*
Y48092D01*
X33103D01*
Y48068D01*
X33031D01*
Y48044D01*
X32983D01*
Y48020D01*
X32815D01*
Y47996D01*
X32791D01*
Y47972D01*
X32671D01*
Y47948D01*
X32622D01*
Y47924D01*
X32550D01*
Y47900D01*
X32478D01*
Y47876D01*
X32430D01*
Y47852D01*
X32310D01*
Y47828D01*
X32286D01*
Y47804D01*
X32166D01*
Y47780D01*
X32118D01*
Y47756D01*
X32070D01*
Y47732D01*
X31974D01*
Y47708D01*
X31926D01*
Y47684D01*
X31806D01*
Y47660D01*
X31757D01*
Y47636D01*
X31613D01*
Y47612D01*
X31541D01*
Y47588D01*
X31517D01*
Y47564D01*
X31277D01*
Y47540D01*
X31229D01*
Y47516D01*
X30316D01*
Y47540D01*
X30292D01*
Y47564D01*
X30171D01*
Y47588D01*
X30124D01*
Y47612D01*
X30075D01*
Y47636D01*
X30027D01*
Y47660D01*
X29979D01*
Y47684D01*
X29931D01*
Y47708D01*
X29883D01*
Y47732D01*
X29859D01*
Y47756D01*
X29835D01*
Y47780D01*
X29787D01*
Y47804D01*
X29739D01*
Y47828D01*
X29715D01*
Y47852D01*
X29691D01*
Y47876D01*
X29667D01*
Y47900D01*
X29643D01*
Y47924D01*
X29619D01*
Y47948D01*
X29571D01*
Y47972D01*
X29523D01*
Y47996D01*
X29499D01*
Y48020D01*
X29451D01*
Y48044D01*
X29427D01*
Y48068D01*
X29403D01*
Y48092D01*
X29379D01*
Y48116D01*
X29355D01*
Y48141D01*
X29330D01*
Y48165D01*
X29306D01*
Y48189D01*
X29258D01*
Y48213D01*
X29210D01*
Y48237D01*
X29186D01*
Y48261D01*
X29162D01*
Y48285D01*
X29138D01*
Y48309D01*
X29114D01*
Y48333D01*
X29090D01*
Y48357D01*
X29066D01*
Y48381D01*
X29042D01*
Y48405D01*
X29018D01*
Y48429D01*
X28946D01*
Y48453D01*
X28922D01*
Y48477D01*
X28898D01*
Y48501D01*
X28874D01*
Y48525D01*
X28850D01*
Y48549D01*
X28826D01*
Y48573D01*
X28802D01*
Y48597D01*
X28778D01*
Y48621D01*
X28754D01*
Y48645D01*
X28730D01*
Y48669D01*
X28706D01*
Y48693D01*
X28658D01*
Y48717D01*
X28610D01*
Y48741D01*
X28562D01*
Y48765D01*
X28537D01*
Y48789D01*
X28514D01*
Y48813D01*
X28489D01*
Y48837D01*
X28465D01*
Y48861D01*
X28441D01*
Y48885D01*
X28417D01*
Y48910D01*
X28393D01*
Y48934D01*
X28369D01*
Y48958D01*
X28345D01*
Y48981D01*
X28321D01*
Y49006D01*
X28273D01*
Y49030D01*
X28225D01*
Y49054D01*
X28201D01*
Y49078D01*
X28177D01*
Y49102D01*
X28153D01*
Y49126D01*
X28129D01*
Y49150D01*
X28105D01*
Y49174D01*
X28081D01*
Y49198D01*
X28057D01*
Y49222D01*
X28033D01*
Y49246D01*
X28009D01*
Y49270D01*
X27961D01*
Y49294D01*
X27913D01*
Y49318D01*
X27889D01*
Y49342D01*
X27841D01*
Y49366D01*
X27817D01*
Y49390D01*
X27793D01*
Y49414D01*
X27769D01*
Y49438D01*
X27745D01*
Y49462D01*
X27720D01*
Y49486D01*
X27696D01*
Y49510D01*
X27673D01*
Y49534D01*
X27624D01*
Y49558D01*
X27576D01*
Y49582D01*
X27552D01*
Y49606D01*
X27528D01*
Y49630D01*
X27504D01*
Y49654D01*
X27480D01*
Y49678D01*
X27456D01*
Y49702D01*
X27432D01*
Y49726D01*
X27408D01*
Y49750D01*
X27360D01*
Y49774D01*
X27312D01*
Y49798D01*
X27288D01*
Y49823D01*
X27264D01*
Y49847D01*
X27240D01*
Y49871D01*
X27216D01*
Y49895D01*
X27192D01*
Y49919D01*
X27120D01*
Y49943D01*
X27096D01*
Y49967D01*
X27048D01*
Y49991D01*
X27024D01*
Y50015D01*
X27000D01*
Y50039D01*
X26976D01*
Y50063D01*
X26952D01*
Y50087D01*
X26904D01*
Y50111D01*
X26855D01*
Y50135D01*
X26832D01*
Y50159D01*
X26807D01*
Y50183D01*
X26783D01*
Y50207D01*
X26735D01*
Y50231D01*
X26687D01*
Y50255D01*
X26639D01*
Y50279D01*
X26615D01*
Y50303D01*
X26591D01*
Y50327D01*
X26543D01*
Y50351D01*
X26495D01*
Y50375D01*
X26471D01*
Y50399D01*
X26447D01*
Y50423D01*
X26423D01*
Y50447D01*
X26399D01*
Y50471D01*
X26375D01*
Y50495D01*
X26327D01*
Y50519D01*
X26279D01*
Y50543D01*
X26231D01*
Y50567D01*
X26183D01*
Y50592D01*
X26135D01*
Y50616D01*
X26111D01*
Y50640D01*
X26087D01*
Y50664D01*
X26038D01*
Y50688D01*
X25990D01*
Y50712D01*
X25966D01*
Y50736D01*
X25942D01*
Y50760D01*
X25918D01*
Y50784D01*
X25870D01*
Y50808D01*
X25822D01*
Y50832D01*
X25774D01*
Y50856D01*
X25750D01*
Y50880D01*
X25726D01*
Y50904D01*
X25678D01*
Y50928D01*
X25630D01*
Y50952D01*
X25582D01*
Y50976D01*
X25534D01*
Y51000D01*
X25486D01*
Y51024D01*
X25438D01*
Y51048D01*
X25390D01*
Y51072D01*
X25366D01*
Y51096D01*
X25342D01*
Y51120D01*
X25318D01*
Y51144D01*
X25246D01*
Y51168D01*
X25222D01*
Y51192D01*
X25149D01*
Y51216D01*
X25125D01*
Y51240D01*
X25077D01*
Y51264D01*
X25005D01*
Y51288D01*
X24981D01*
Y51312D01*
X24909D01*
Y51336D01*
X24885D01*
Y51360D01*
X24861D01*
Y51385D01*
X24837D01*
Y51409D01*
X24789D01*
Y51432D01*
X24741D01*
Y51456D01*
X24693D01*
Y51481D01*
X24645D01*
Y51505D01*
X24597D01*
Y51529D01*
X24549D01*
Y51553D01*
X24453D01*
Y51577D01*
X24404D01*
Y51601D01*
X24332D01*
Y51625D01*
X24308D01*
Y51649D01*
X24236D01*
Y51673D01*
X24212D01*
Y51697D01*
X24164D01*
Y51721D01*
X24092D01*
Y51745D01*
X24068D01*
Y51769D01*
X23948D01*
Y51793D01*
X23900D01*
Y51817D01*
X23852D01*
Y51841D01*
X23804D01*
Y51865D01*
X23756D01*
Y51889D01*
X23660D01*
Y51913D01*
X23612D01*
Y51937D01*
X23563D01*
Y51961D01*
X23516D01*
Y51985D01*
X23467D01*
Y52009D01*
X23347D01*
Y52033D01*
X23323D01*
Y52057D01*
X23203D01*
Y52081D01*
X23155D01*
Y52105D01*
X23107D01*
Y52129D01*
X23011D01*
Y52153D01*
X22963D01*
Y52177D01*
X22843D01*
Y52201D01*
X22795D01*
Y52225D01*
X22722D01*
Y52249D01*
X22578D01*
Y52274D01*
X22530D01*
Y52298D01*
X22362D01*
Y52322D01*
X22338D01*
Y52346D01*
X22218D01*
Y52370D01*
X22170D01*
Y52394D01*
X22122D01*
Y52418D01*
X21906D01*
Y52442D01*
X21858D01*
Y52466D01*
X21689D01*
Y52490D01*
X21641D01*
Y52514D01*
X21569D01*
Y52538D01*
X21425D01*
Y52514D01*
X21401D01*
Y52538D01*
X21329D01*
Y52562D01*
X21281D01*
Y52586D01*
X20872D01*
Y52610D01*
X20824D01*
Y52634D01*
X20079D01*
Y52658D01*
X20031D01*
Y52682D01*
X19983D01*
Y52706D01*
D02*
G37*
%LPD*%
G36*
X36042Y45150D02*
X36066D01*
Y45126D01*
X36258D01*
Y45102D01*
X36282D01*
Y45078D01*
X36306D01*
Y45054D01*
X36402D01*
Y45030D01*
X36426D01*
Y45006D01*
X36450D01*
Y44982D01*
X36474D01*
Y44958D01*
X36498D01*
Y44934D01*
X36523D01*
Y44910D01*
X36546D01*
Y44886D01*
X36570D01*
Y44862D01*
X36595D01*
Y44838D01*
X36619D01*
Y44814D01*
X36643D01*
Y44718D01*
X36667D01*
Y44694D01*
X36691D01*
Y44670D01*
X36715D01*
Y44598D01*
X36691D01*
Y44574D01*
X36715D01*
Y44526D01*
X36763D01*
Y44237D01*
X36739D01*
Y44213D01*
X36715D01*
Y44189D01*
X36691D01*
Y44141D01*
X36715D01*
Y44093D01*
X36691D01*
Y44045D01*
X36643D01*
Y43997D01*
X36595D01*
Y43973D01*
X36570D01*
Y43949D01*
X36546D01*
Y43925D01*
X36523D01*
Y43901D01*
X36498D01*
Y43877D01*
X36474D01*
Y43853D01*
X36450D01*
Y43829D01*
X36426D01*
Y43805D01*
X36402D01*
Y43757D01*
X36306D01*
Y43733D01*
X36282D01*
Y43709D01*
X36138D01*
Y43685D01*
X36114D01*
Y43661D01*
X36090D01*
Y43637D01*
X35898D01*
Y43661D01*
X35874D01*
Y43685D01*
X35850D01*
Y43709D01*
X35705D01*
Y43733D01*
X35682D01*
Y43757D01*
X35609D01*
Y43781D01*
X35585D01*
Y43805D01*
X35561D01*
Y43829D01*
X35537D01*
Y43853D01*
X35513D01*
Y43877D01*
X35489D01*
Y43901D01*
X35465D01*
Y43925D01*
X35441D01*
Y43949D01*
X35417D01*
Y43973D01*
X35393D01*
Y43997D01*
X35369D01*
Y44021D01*
X35345D01*
Y44093D01*
X35321D01*
Y44117D01*
X35297D01*
Y44646D01*
X35321D01*
Y44670D01*
X35345D01*
Y44742D01*
X35369D01*
Y44766D01*
X35393D01*
Y44838D01*
X35417D01*
Y44886D01*
X35465D01*
Y44934D01*
X35513D01*
Y44982D01*
X35537D01*
Y45006D01*
X35585D01*
Y45054D01*
X35682D01*
Y45078D01*
X35705D01*
Y45102D01*
X35729D01*
Y45126D01*
X35922D01*
Y45150D01*
X35946D01*
Y45174D01*
X36042D01*
Y45150D01*
D02*
G37*
%LPC*%
G36*
X175816Y78267D02*
X175806D01*
X172639Y78257D01*
X172610Y78248D01*
X172492Y78233D01*
X172435Y78224D01*
X172397Y78214D01*
X172349Y78205D01*
X172274Y78186D01*
X172221Y78172D01*
X172046Y78110D01*
X171998Y78091D01*
X171946Y78067D01*
X171709Y77944D01*
X171643Y77897D01*
X171624Y77887D01*
X171472Y77773D01*
X171420Y77731D01*
X171396Y77707D01*
X171377Y77698D01*
X171221Y77541D01*
X171211Y77522D01*
X171164Y77475D01*
X171154Y77456D01*
X171126Y77427D01*
X171116Y77408D01*
X171097Y77389D01*
X171088Y77370D01*
X171069Y77351D01*
X171059Y77332D01*
X171012Y77266D01*
X171003Y77247D01*
X170965Y77190D01*
X170822Y76896D01*
X170803Y76849D01*
X170756Y76697D01*
X170737Y76631D01*
X170718Y76555D01*
X170704Y76493D01*
X170694Y76436D01*
X170680Y76308D01*
X170671Y76270D01*
X170661Y75862D01*
X170671Y36900D01*
X170680Y36872D01*
X170694Y36753D01*
X170704Y36697D01*
X170713Y36649D01*
X170751Y36497D01*
X170818Y36308D01*
X170837Y36260D01*
X170884Y36156D01*
X170988Y35966D01*
X171102Y35796D01*
X171126Y35772D01*
X171135Y35753D01*
X171154Y35734D01*
X171164Y35715D01*
X171211Y35668D01*
X171221Y35649D01*
X171396Y35473D01*
X171415Y35464D01*
X171462Y35416D01*
X171481Y35407D01*
X171510Y35378D01*
X171529Y35369D01*
X171548Y35350D01*
X171567Y35340D01*
X171662Y35274D01*
X171681Y35264D01*
X171738Y35226D01*
X171757Y35217D01*
X172051Y35075D01*
X172098Y35056D01*
X172193Y35027D01*
X172326Y34989D01*
X172364Y34980D01*
X172525Y34951D01*
X172591Y34942D01*
X172686Y34932D01*
X172838Y34923D01*
X212046Y34932D01*
X212075Y34942D01*
X212184Y34956D01*
X212241Y34966D01*
X212279Y34975D01*
X212326Y34985D01*
X212402Y35003D01*
X212454Y35018D01*
X212601Y35070D01*
X212696Y35108D01*
X212829Y35174D01*
X212909Y35217D01*
X212976Y35255D01*
X213042Y35302D01*
X213061Y35312D01*
X213180Y35402D01*
X213194Y35416D01*
X213213Y35426D01*
X213251Y35464D01*
X213270Y35473D01*
X213464Y35668D01*
X213474Y35686D01*
X213512Y35724D01*
X213521Y35743D01*
X213549Y35772D01*
X213559Y35791D01*
X213578Y35810D01*
X213587Y35829D01*
X213606Y35848D01*
X213616Y35867D01*
X213663Y35933D01*
X213673Y35952D01*
X213711Y36018D01*
X213758Y36104D01*
X213834Y36265D01*
X213872Y36360D01*
X213910Y36483D01*
X213929Y36549D01*
X213948Y36625D01*
X213962Y36687D01*
X213981Y36801D01*
X213990Y36877D01*
X214000Y37000D01*
X214005Y76185D01*
X213995Y76213D01*
X213986Y76374D01*
X213976Y76403D01*
X213962Y76502D01*
X213953Y76540D01*
X213943Y76588D01*
X213924Y76664D01*
X213910Y76716D01*
X213858Y76863D01*
X213839Y76910D01*
X213791Y77015D01*
X213682Y77218D01*
X213644Y77275D01*
X213635Y77294D01*
X213521Y77446D01*
X213478Y77498D01*
X213455Y77522D01*
X213445Y77541D01*
X213270Y77716D01*
X213251Y77726D01*
X213203Y77773D01*
X213184Y77783D01*
X213165Y77802D01*
X213146Y77811D01*
X213118Y77840D01*
X213099Y77849D01*
X213033Y77897D01*
X213014Y77906D01*
X212947Y77954D01*
X212634Y78105D01*
X212587Y78124D01*
X212407Y78181D01*
X212255Y78219D01*
X212188Y78229D01*
X212151Y78238D01*
X212032Y78252D01*
X211871Y78262D01*
X175816Y78267D01*
D02*
G37*
%LPD*%
G36*
X192603Y73524D02*
X192632Y73515D01*
X192712Y73501D01*
X192826Y73472D01*
X192878Y73458D01*
X192926Y73439D01*
X193016Y73406D01*
X193068Y73382D01*
X193210Y73306D01*
X193329Y73226D01*
X193362Y73202D01*
X193414Y73159D01*
X193428Y73145D01*
X193447Y73135D01*
X194457Y72125D01*
X194467Y72106D01*
X195814Y70760D01*
X195823Y70741D01*
X197170Y69394D01*
X197179Y69375D01*
X198536Y68019D01*
X198545Y68000D01*
X199883Y66662D01*
X199892Y66643D01*
X201248Y65287D01*
X201258Y65268D01*
X201490Y65036D01*
X201500Y65368D01*
X201509Y65519D01*
X201528Y65633D01*
X201542Y65686D01*
X201552Y65723D01*
X201576Y65785D01*
X201604Y65861D01*
X201661Y65975D01*
X201703Y66046D01*
X201713Y66065D01*
X201732Y66084D01*
X201741Y66103D01*
X201760Y66122D01*
X201770Y66141D01*
X201789Y66160D01*
X201798Y66179D01*
X201936Y66316D01*
X201955Y66326D01*
X201983Y66354D01*
X202002Y66364D01*
X202021Y66383D01*
X202040Y66392D01*
X202059Y66411D01*
X202145Y66459D01*
X202287Y66525D01*
X202334Y66544D01*
X202467Y66582D01*
X202505Y66591D01*
X202638Y66610D01*
X202875Y66620D01*
X205872Y66610D01*
X205900Y66601D01*
X205990Y66586D01*
X206095Y66558D01*
X206171Y66530D01*
X206218Y66511D01*
X206313Y66463D01*
X206408Y66406D01*
X206465Y66368D01*
X206479Y66354D01*
X206498Y66345D01*
X206536Y66307D01*
X206555Y66297D01*
X206673Y66179D01*
X206683Y66160D01*
X206711Y66131D01*
X206721Y66112D01*
X206740Y66093D01*
X206749Y66074D01*
X206787Y66017D01*
X206797Y65999D01*
X206891Y65799D01*
X206910Y65752D01*
X206948Y65600D01*
X206967Y65467D01*
X206977Y59483D01*
X207328Y59132D01*
X207337Y59113D01*
X207802Y58648D01*
X207811Y58629D01*
X208267Y58174D01*
X208276Y58155D01*
X208750Y57681D01*
X208760Y57662D01*
X209215Y57207D01*
X209225Y57188D01*
X209689Y56723D01*
X209699Y56704D01*
X210164Y56239D01*
X210173Y56220D01*
X210609Y55784D01*
X210619Y55765D01*
X210685Y55698D01*
X210695Y55679D01*
X210723Y55651D01*
X210733Y55632D01*
X210752Y55613D01*
X210761Y55594D01*
X210799Y55537D01*
X210809Y55518D01*
X210856Y55442D01*
X210913Y55310D01*
X210960Y55158D01*
X210979Y55082D01*
X211008Y54883D01*
X210998Y54617D01*
X210989Y54589D01*
X210975Y54499D01*
X210960Y54447D01*
X210951Y54409D01*
X210918Y54318D01*
X210889Y54243D01*
X210818Y54105D01*
X210737Y53987D01*
X210714Y53953D01*
X210671Y53901D01*
X210638Y53868D01*
X210628Y53849D01*
X210548Y53768D01*
X210529Y53759D01*
X210481Y53712D01*
X210462Y53702D01*
X210443Y53683D01*
X210424Y53674D01*
X210358Y53626D01*
X210339Y53617D01*
X210273Y53579D01*
X210111Y53503D01*
X209988Y53465D01*
X209874Y53436D01*
X209741Y53418D01*
X209504Y53408D01*
X206967Y53403D01*
X206958Y41614D01*
X206948Y41586D01*
X206934Y41524D01*
X206915Y41448D01*
X206896Y41401D01*
X206868Y41325D01*
X206768Y41140D01*
X206678Y41021D01*
X206654Y40988D01*
X206536Y40870D01*
X206517Y40860D01*
X206488Y40832D01*
X206469Y40822D01*
X206450Y40803D01*
X206432Y40794D01*
X206365Y40746D01*
X206185Y40661D01*
X206138Y40642D01*
X206043Y40614D01*
X205967Y40595D01*
X205900Y40585D01*
X205862Y40576D01*
X205568Y40566D01*
X178879Y40576D01*
X178851Y40585D01*
X178775Y40595D01*
X178747Y40604D01*
X178671Y40623D01*
X178609Y40647D01*
X178533Y40675D01*
X178396Y40746D01*
X178305Y40808D01*
X178272Y40832D01*
X178220Y40874D01*
X178197Y40898D01*
X178178Y40908D01*
X178116Y40969D01*
X178106Y40988D01*
X178059Y41036D01*
X178050Y41055D01*
X178030Y41074D01*
X178021Y41093D01*
X178002Y41111D01*
X177993Y41130D01*
X177926Y41235D01*
X177879Y41339D01*
X177845Y41429D01*
X177831Y41481D01*
X177803Y41595D01*
X177789Y41714D01*
X177779Y53408D01*
X174981Y53418D01*
X174953Y53427D01*
X174863Y53441D01*
X174825Y53451D01*
X174773Y53465D01*
X174735Y53474D01*
X174687Y53493D01*
X174597Y53527D01*
X174460Y53598D01*
X174317Y53692D01*
X174265Y53735D01*
X174232Y53759D01*
X174085Y53906D01*
X174076Y53925D01*
X174047Y53953D01*
X174038Y53972D01*
X174019Y53991D01*
X174009Y54010D01*
X173971Y54067D01*
X173962Y54086D01*
X173924Y54143D01*
X173867Y54266D01*
X173843Y54328D01*
X173810Y54437D01*
X173782Y54551D01*
X173767Y54650D01*
X173762Y54655D01*
Y54665D01*
X173772Y55016D01*
X173782Y55044D01*
X173796Y55115D01*
X173824Y55229D01*
X173872Y55352D01*
X173929Y55466D01*
X173985Y55561D01*
X174023Y55618D01*
X174038Y55632D01*
X174047Y55651D01*
X174066Y55670D01*
X174076Y55689D01*
X174132Y55746D01*
X174142Y55765D01*
X174607Y56230D01*
X174616Y56249D01*
X175413Y57045D01*
X175422Y57064D01*
X176210Y57851D01*
X176219Y57870D01*
X177006Y58658D01*
X177016Y58677D01*
X177803Y59464D01*
X177812Y59483D01*
X178600Y60270D01*
X178609Y60289D01*
X179406Y61086D01*
X179415Y61105D01*
X180202Y61892D01*
X180212Y61911D01*
X180999Y62698D01*
X181009Y62717D01*
X181796Y63504D01*
X181805Y63523D01*
X182593Y64310D01*
X182602Y64329D01*
X183399Y65126D01*
X183408Y65145D01*
X184195Y65932D01*
X184205Y65951D01*
X184992Y66738D01*
X185002Y66757D01*
X185789Y67544D01*
X185798Y67563D01*
X186585Y68351D01*
X186595Y68370D01*
X187392Y69166D01*
X187401Y69185D01*
X188188Y69973D01*
X188198Y69991D01*
X188985Y70779D01*
X188994Y70798D01*
X189782Y71585D01*
X189791Y71604D01*
X190578Y72391D01*
X190588Y72410D01*
X191323Y73145D01*
X191342Y73155D01*
X191380Y73192D01*
X191399Y73202D01*
X191418Y73221D01*
X191437Y73230D01*
X191456Y73249D01*
X191475Y73259D01*
X191532Y73297D01*
X191551Y73306D01*
X191626Y73354D01*
X191712Y73392D01*
X191778Y73420D01*
X191826Y73439D01*
X191920Y73467D01*
X191987Y73486D01*
X192025Y73496D01*
X192139Y73515D01*
X192176Y73524D01*
X192357Y73534D01*
X192603Y73524D01*
D02*
G37*
%LPC*%
G36*
X195411Y63499D02*
X195193Y63490D01*
X195145Y63471D01*
X195022Y63404D01*
X194970Y63362D01*
X194894Y63286D01*
X194884Y63267D01*
X194846Y63210D01*
X194827Y63163D01*
X194799Y63068D01*
X194789Y62973D01*
X194799Y62831D01*
X194818Y62783D01*
X194841Y62722D01*
X194889Y62646D01*
X194936Y62589D01*
X195003Y62523D01*
X195022Y62513D01*
X195041Y62494D01*
X195145Y62447D01*
X195211Y62428D01*
X195278Y62418D01*
X195449Y62428D01*
X195458D01*
X195577Y62470D01*
X195657Y62523D01*
X195709Y62565D01*
X195766Y62622D01*
X195776Y62641D01*
X195814Y62698D01*
X195842Y62764D01*
X195861Y62831D01*
X195871Y62869D01*
X195880Y62992D01*
X195871Y63030D01*
X195861Y63106D01*
X195842Y63153D01*
X195776Y63277D01*
X195733Y63329D01*
X195676Y63386D01*
X195657Y63395D01*
X195638Y63414D01*
X195515Y63471D01*
X195449Y63490D01*
X195411Y63499D01*
D02*
G37*
G36*
X189559D02*
X189369Y63490D01*
X189322Y63471D01*
X189179Y63395D01*
X189132Y63348D01*
X189118Y63343D01*
X189108Y63324D01*
X189061Y63277D01*
X189051Y63257D01*
X188985Y63115D01*
X188966Y63001D01*
X188976Y62831D01*
X188985Y62802D01*
X189004Y62755D01*
X189070Y62632D01*
X189118Y62584D01*
X189123Y62570D01*
X189142Y62560D01*
X189189Y62513D01*
X189208Y62503D01*
X189350Y62437D01*
X189388Y62428D01*
X189454Y62418D01*
X189644Y62428D01*
X189692Y62447D01*
X189753Y62470D01*
X189834Y62523D01*
X189886Y62565D01*
X189933Y62613D01*
X189943Y62632D01*
X189962Y62650D01*
X190028Y62793D01*
X190038Y62831D01*
X190047Y62897D01*
X190057Y62983D01*
X190047Y63011D01*
Y63049D01*
Y63058D01*
X190038Y63087D01*
X190023Y63139D01*
X190005Y63186D01*
X189948Y63281D01*
X189933Y63295D01*
X189924Y63314D01*
X189853Y63386D01*
X189834Y63395D01*
X189815Y63414D01*
X189692Y63471D01*
X189625Y63490D01*
X189559Y63499D01*
D02*
G37*
G36*
X184769Y61413D02*
X184660Y61399D01*
X184622Y61389D01*
X184546Y61361D01*
X184451Y61304D01*
X184437Y61290D01*
X184418Y61280D01*
X184357Y61218D01*
X184347Y61199D01*
X184328Y61180D01*
X184319Y61161D01*
X184252Y61019D01*
X184233Y60905D01*
X184243Y60735D01*
X184262Y60687D01*
X184285Y60626D01*
X184352Y60521D01*
X184437Y60436D01*
X184456Y60426D01*
X184475Y60407D01*
X184598Y60351D01*
X184665Y60332D01*
X184760Y60322D01*
X184902Y60332D01*
X184930Y60341D01*
X184992Y60365D01*
X185073Y60407D01*
X185111Y60436D01*
X185115Y60441D01*
X185139Y60464D01*
X185158Y60474D01*
X185182Y60498D01*
X185191Y60517D01*
X185220Y60545D01*
X185229Y60564D01*
X185267Y60621D01*
X185277Y60659D01*
X185296Y60706D01*
X185315Y60782D01*
X185324Y60886D01*
X185315Y60915D01*
X185305Y61010D01*
X185286Y61057D01*
X185220Y61180D01*
X185177Y61233D01*
X185111Y61299D01*
X185092Y61308D01*
X185073Y61327D01*
X184968Y61375D01*
X184902Y61394D01*
X184864Y61403D01*
X184769Y61413D01*
D02*
G37*
G36*
X199024Y61318D02*
X198853Y61308D01*
X198825Y61299D01*
X198735Y61266D01*
X198659Y61218D01*
X198626Y61195D01*
X198536Y61105D01*
X198526Y61086D01*
X198488Y61029D01*
X198450Y60934D01*
X198431Y60820D01*
X198441Y60640D01*
X198460Y60592D01*
X198488Y60526D01*
X198498Y60507D01*
X198545Y60441D01*
X198555Y60422D01*
X198626Y60351D01*
X198645Y60341D01*
X198664Y60322D01*
X198806Y60256D01*
X198882Y60237D01*
X198977Y60227D01*
X199086Y60241D01*
X199124Y60251D01*
X199200Y60279D01*
X199294Y60336D01*
X199328Y60360D01*
X199337Y60370D01*
X199342Y60374D01*
X199408Y60441D01*
X199418Y60460D01*
X199456Y60517D01*
X199484Y60583D01*
X199503Y60649D01*
X199513Y60716D01*
X199517Y60796D01*
X199508Y60882D01*
X199498Y60920D01*
X199470Y60995D01*
X199427Y61076D01*
X199385Y61128D01*
X199361Y61152D01*
X199356Y61166D01*
X199337Y61176D01*
X199299Y61214D01*
X199280Y61223D01*
X199223Y61261D01*
X199128Y61299D01*
X199062Y61308D01*
X199024Y61318D01*
D02*
G37*
G36*
X188231Y58046D02*
X188136Y58036D01*
X188098Y58027D01*
X188008Y57994D01*
X187913Y57937D01*
X187880Y57913D01*
X187809Y57842D01*
X187799Y57823D01*
X187780Y57804D01*
X187771Y57785D01*
X187714Y57662D01*
X187705Y57624D01*
X187686Y57491D01*
X187695Y57425D01*
X187709Y57354D01*
X187719Y57316D01*
X187761Y57225D01*
X187852Y57107D01*
X187871Y57088D01*
X187889Y57078D01*
X187918Y57050D01*
X187937Y57041D01*
X188079Y56974D01*
X188193Y56955D01*
X188364Y56965D01*
X188411Y56984D01*
X188454Y56998D01*
X188459Y57003D01*
X188544Y57050D01*
X188596Y57093D01*
X188672Y57168D01*
X188681Y57188D01*
X188719Y57244D01*
X188757Y57339D01*
X188776Y57453D01*
X188767Y57633D01*
X188748Y57681D01*
X188672Y57823D01*
X188653Y57842D01*
X188643Y57861D01*
X188582Y57923D01*
X188563Y57932D01*
X188544Y57951D01*
X188402Y58017D01*
X188364Y58027D01*
X188231Y58046D01*
D02*
G37*
G36*
X201974Y57771D02*
X201860Y57761D01*
X201831Y57752D01*
X201770Y57728D01*
X201713Y57700D01*
X201637Y57652D01*
X201542Y57557D01*
X201533Y57538D01*
X201514Y57519D01*
X201466Y57415D01*
X201447Y57349D01*
X201438Y57311D01*
X201429Y57188D01*
X201438Y57159D01*
X201447Y57083D01*
X201457Y57055D01*
X201485Y56988D01*
X201495Y56969D01*
X201556Y56879D01*
X201590Y56846D01*
X201594Y56832D01*
X201613Y56822D01*
X201651Y56784D01*
X201670Y56775D01*
X201727Y56737D01*
X201775Y56718D01*
X201841Y56699D01*
X201879Y56690D01*
X201945Y56680D01*
X202097Y56690D01*
X202126Y56699D01*
X202187Y56723D01*
X202268Y56765D01*
X202353Y56832D01*
X202405Y56884D01*
X202415Y56903D01*
X202434Y56922D01*
X202462Y56979D01*
X202467Y56984D01*
X202491Y57045D01*
X202510Y57112D01*
X202519Y57178D01*
X202510Y57349D01*
X202500Y57377D01*
X202477Y57439D01*
X202458Y57486D01*
X202443Y57501D01*
X202415Y57548D01*
X202372Y57600D01*
X202325Y57648D01*
X202306Y57657D01*
X202287Y57676D01*
X202268Y57685D01*
X202145Y57742D01*
X202069Y57761D01*
X201974Y57771D01*
D02*
G37*
G36*
X195970D02*
X195913D01*
X195885Y57761D01*
X195814Y57747D01*
X195738Y57719D01*
X195643Y57662D01*
X195619Y57638D01*
X195600Y57628D01*
X195567Y57595D01*
X195558Y57576D01*
X195520Y57538D01*
X195453Y57396D01*
X195434Y57320D01*
X195425Y57225D01*
X195434Y57112D01*
X195444Y57083D01*
X195477Y56993D01*
X195534Y56898D01*
X195548Y56884D01*
X195558Y56865D01*
X195619Y56803D01*
X195638Y56794D01*
X195657Y56775D01*
X195676Y56765D01*
X195819Y56699D01*
X195885Y56690D01*
X195923Y56680D01*
X196094Y56690D01*
X196122Y56699D01*
X196169Y56718D01*
X196293Y56784D01*
X196312Y56803D01*
X196331Y56813D01*
X196383Y56865D01*
X196392Y56884D01*
X196421Y56912D01*
X196487Y57055D01*
X196506Y57131D01*
X196516Y57225D01*
X196506Y57339D01*
X196497Y57368D01*
X196463Y57458D01*
X196406Y57553D01*
X196373Y57586D01*
X196364Y57605D01*
X196331Y57638D01*
X196312Y57648D01*
X196283Y57676D01*
X196141Y57742D01*
X196065Y57761D01*
X195970Y57771D01*
D02*
G37*
G36*
X192347Y72443D02*
X192281Y72434D01*
X192243Y72424D01*
X192181Y72400D01*
X192134Y72382D01*
X192120Y72367D01*
X192072Y72339D01*
X192020Y72296D01*
X191460Y71737D01*
X191451Y71718D01*
X190664Y70930D01*
X190654Y70911D01*
X189867Y70124D01*
X189858Y70105D01*
X189070Y69318D01*
X189061Y69299D01*
X188274Y68512D01*
X188264Y68493D01*
X187477Y67706D01*
X187467Y67687D01*
X186680Y66899D01*
X186671Y66880D01*
X185884Y66093D01*
X185874Y66074D01*
X185096Y65297D01*
X185087Y65278D01*
X184300Y64490D01*
X184290Y64472D01*
X183503Y63684D01*
X183493Y63665D01*
X182697Y62869D01*
X182687Y62850D01*
X181900Y62063D01*
X181891Y62043D01*
X181113Y61266D01*
X181103Y61247D01*
X180316Y60460D01*
X180307Y60441D01*
X179520Y59653D01*
X179510Y59634D01*
X178723Y58847D01*
X178713Y58828D01*
X177926Y58041D01*
X177917Y58022D01*
X177129Y57235D01*
X177120Y57216D01*
X176333Y56429D01*
X176323Y56410D01*
X175536Y55623D01*
X175527Y55604D01*
X174929Y55006D01*
X174920Y54987D01*
X174901Y54968D01*
X174872Y54902D01*
X174853Y54826D01*
X174863Y54722D01*
X174920Y54617D01*
X174972Y54565D01*
X174991Y54556D01*
X175076Y54518D01*
X175114Y54508D01*
X178875Y54503D01*
X178884Y41766D01*
X178936Y41695D01*
X179003Y41666D01*
X191223Y41671D01*
X189236Y43658D01*
X189198Y43667D01*
X186704Y43658D01*
X186690Y43644D01*
X186680Y43606D01*
X186566Y43388D01*
X186519Y43321D01*
X186509Y43302D01*
X186481Y43274D01*
X186472Y43255D01*
X186443Y43226D01*
X186434Y43208D01*
X186334Y43108D01*
X186315Y43099D01*
X186268Y43051D01*
X186249Y43042D01*
X186220Y43013D01*
X186201Y43004D01*
X186135Y42956D01*
X185898Y42842D01*
X185850Y42823D01*
X185812Y42814D01*
X185746Y42795D01*
X185708Y42786D01*
X185594Y42766D01*
X185528Y42757D01*
X185205Y42766D01*
X185177Y42776D01*
X185101Y42786D01*
X185054Y42804D01*
X184992Y42819D01*
X184945Y42838D01*
X184869Y42866D01*
X184684Y42966D01*
X184594Y43027D01*
X184580Y43042D01*
X184561Y43051D01*
X184522Y43089D01*
X184504Y43099D01*
X184376Y43226D01*
X184366Y43246D01*
X184338Y43274D01*
X184328Y43293D01*
X184309Y43312D01*
X184300Y43331D01*
X184281Y43350D01*
X184271Y43369D01*
X184224Y43445D01*
X184214Y43464D01*
X184148Y43606D01*
X184129Y43653D01*
X184100Y43748D01*
X184072Y43862D01*
X184053Y43995D01*
X184044Y44166D01*
X184053Y44194D01*
X184062Y44336D01*
X184072Y44365D01*
X184086Y44436D01*
X184105Y44512D01*
X184143Y44616D01*
X184162Y44663D01*
X184210Y44768D01*
X184247Y44825D01*
X184295Y44900D01*
X184309Y44915D01*
X184319Y44934D01*
X184338Y44953D01*
X184347Y44972D01*
X184366Y44991D01*
X184376Y45010D01*
X184532Y45166D01*
X184551Y45176D01*
X184570Y45195D01*
X184589Y45204D01*
X184608Y45223D01*
X184627Y45232D01*
X184646Y45251D01*
X184665Y45261D01*
X184741Y45308D01*
X184760Y45318D01*
X184902Y45384D01*
X184949Y45403D01*
X185044Y45432D01*
X185158Y45460D01*
X185248Y45474D01*
X185381Y45484D01*
X185424Y45489D01*
X185452Y45479D01*
X185642Y45470D01*
X185670Y45460D01*
X185770Y45436D01*
X185808Y45427D01*
X185912Y45389D01*
X185959Y45370D01*
X186012Y45346D01*
X186116Y45289D01*
X186234Y45209D01*
X186249Y45195D01*
X186268Y45185D01*
X186306Y45147D01*
X186325Y45138D01*
X186453Y45010D01*
X186462Y44991D01*
X186491Y44962D01*
X186500Y44943D01*
X186519Y44924D01*
X186528Y44905D01*
X186576Y44839D01*
X186585Y44820D01*
X186690Y44602D01*
X186699Y44583D01*
X188307Y44578D01*
X188312Y44583D01*
X185281Y47613D01*
X185234Y47604D01*
X185149Y47566D01*
X185016Y47528D01*
X184940Y47509D01*
X184874Y47499D01*
X184779Y47490D01*
X184475Y47499D01*
X184447Y47509D01*
X184376Y47523D01*
X184262Y47551D01*
X184138Y47599D01*
X184001Y47670D01*
X183882Y47751D01*
X183849Y47774D01*
X183797Y47817D01*
X183773Y47841D01*
X183754Y47850D01*
X183674Y47931D01*
X183664Y47950D01*
X183617Y47997D01*
X183607Y48016D01*
X183588Y48035D01*
X183579Y48054D01*
X183560Y48073D01*
X183550Y48092D01*
X183512Y48149D01*
X183503Y48168D01*
X183408Y48367D01*
X183370Y48490D01*
X183342Y48604D01*
X183323Y48765D01*
X183332Y49059D01*
X183342Y49088D01*
X183356Y49159D01*
X183375Y49235D01*
X183422Y49368D01*
X183441Y49415D01*
X183531Y49581D01*
X183645Y49733D01*
X183688Y49785D01*
X183783Y49880D01*
X183802Y49889D01*
X183840Y49927D01*
X183859Y49937D01*
X183878Y49956D01*
X183897Y49965D01*
X183916Y49984D01*
X183934Y49994D01*
X184010Y50041D01*
X184029Y50051D01*
X184172Y50117D01*
X184219Y50136D01*
X184314Y50164D01*
X184428Y50193D01*
X184518Y50207D01*
X184632Y50216D01*
X184731Y50221D01*
X184760Y50212D01*
X184902Y50202D01*
X184930Y50193D01*
X185002Y50179D01*
X185077Y50160D01*
X185210Y50112D01*
X185262Y50088D01*
X185386Y50022D01*
X185476Y49960D01*
X185533Y49922D01*
X185556Y49899D01*
X185575Y49889D01*
X185732Y49733D01*
X185741Y49714D01*
X185760Y49695D01*
X185770Y49676D01*
X185789Y49657D01*
X185798Y49638D01*
X185817Y49619D01*
X185827Y49600D01*
X185893Y49496D01*
X185921Y49429D01*
X185959Y49344D01*
X185997Y49221D01*
X186026Y49107D01*
X186040Y49017D01*
X186049Y48903D01*
X186054Y48813D01*
X186045Y48784D01*
X186035Y48614D01*
X186026Y48585D01*
X186012Y48524D01*
X186002Y48486D01*
X185955Y48353D01*
X185936Y48305D01*
X185921Y48263D01*
X188961Y45223D01*
X188966Y46916D01*
X188952Y46930D01*
X188904Y46949D01*
X188667Y47072D01*
X188648Y47091D01*
X188629Y47101D01*
X188544Y47167D01*
X188492Y47210D01*
X188387Y47314D01*
X188378Y47333D01*
X188340Y47371D01*
X188330Y47390D01*
X188312Y47409D01*
X188302Y47428D01*
X188255Y47495D01*
X188245Y47513D01*
X188207Y47580D01*
X188150Y47703D01*
X188127Y47765D01*
X188112Y47817D01*
X188093Y47883D01*
X188084Y47921D01*
X188065Y48035D01*
X188055Y48102D01*
X188065Y48424D01*
X188074Y48452D01*
X188084Y48528D01*
X188103Y48576D01*
X188117Y48637D01*
X188141Y48699D01*
X188160Y48746D01*
X188264Y48946D01*
X188378Y49097D01*
X188397Y49116D01*
X188406Y49135D01*
X188506Y49235D01*
X188525Y49244D01*
X188563Y49282D01*
X188582Y49292D01*
X188601Y49311D01*
X188620Y49320D01*
X188639Y49339D01*
X188658Y49349D01*
X188715Y49387D01*
X188734Y49396D01*
X188933Y49491D01*
X188994Y49515D01*
X189070Y49534D01*
X189123Y49548D01*
X189160Y49557D01*
X189260Y49572D01*
X189568Y49576D01*
X189597Y49567D01*
X189734Y49543D01*
X189772Y49534D01*
X189824Y49519D01*
X189872Y49500D01*
X189962Y49467D01*
X190147Y49368D01*
X190237Y49306D01*
X190251Y49292D01*
X190270Y49282D01*
X190308Y49244D01*
X190327Y49235D01*
X190445Y49116D01*
X190455Y49097D01*
X190493Y49059D01*
X190502Y49040D01*
X190521Y49022D01*
X190531Y49002D01*
X190550Y48983D01*
X190588Y48917D01*
X190692Y48699D01*
X190711Y48652D01*
X190730Y48585D01*
X190758Y48471D01*
X190773Y48381D01*
X190782Y48201D01*
X190773Y48049D01*
X190754Y47936D01*
X190744Y47888D01*
X190730Y47836D01*
X190687Y47717D01*
X190668Y47670D01*
X190621Y47566D01*
X190607Y47551D01*
X190559Y47466D01*
X190469Y47347D01*
X190445Y47314D01*
X190308Y47177D01*
X190289Y47167D01*
X190251Y47129D01*
X190232Y47120D01*
X190109Y47035D01*
X189929Y46949D01*
X189876Y46925D01*
X189886Y44298D01*
X191958Y42226D01*
X191963Y49031D01*
X188051Y52943D01*
X185514Y52938D01*
X185490Y52877D01*
X185471Y52829D01*
X185428Y52749D01*
X185390Y52682D01*
X185343Y52616D01*
X185333Y52597D01*
X185315Y52578D01*
X185305Y52559D01*
X185277Y52531D01*
X185267Y52512D01*
X185111Y52355D01*
X185092Y52346D01*
X185063Y52317D01*
X185044Y52308D01*
X185025Y52289D01*
X185006Y52279D01*
X184940Y52232D01*
X184722Y52128D01*
X184660Y52104D01*
X184622Y52094D01*
X184570Y52080D01*
X184532Y52071D01*
X184418Y52052D01*
X184352Y52042D01*
X184176Y52038D01*
X184062Y52047D01*
X183949Y52066D01*
X183835Y52094D01*
X183731Y52132D01*
X183683Y52151D01*
X183569Y52208D01*
X183475Y52265D01*
X183441Y52289D01*
X183356Y52355D01*
X183337Y52374D01*
X183318Y52384D01*
X183200Y52502D01*
X183190Y52521D01*
X183152Y52559D01*
X183143Y52578D01*
X183124Y52597D01*
X183114Y52616D01*
X183095Y52635D01*
X183048Y52720D01*
X182953Y52920D01*
X182929Y52981D01*
X182901Y53095D01*
X182887Y53147D01*
X182872Y53247D01*
X182868Y53545D01*
X182877Y53574D01*
X182891Y53674D01*
X182920Y53787D01*
X182958Y53892D01*
X182986Y53968D01*
X183076Y54134D01*
X183190Y54285D01*
X183218Y54314D01*
X183228Y54333D01*
X183309Y54413D01*
X183328Y54423D01*
X183375Y54470D01*
X183394Y54480D01*
X183413Y54499D01*
X183432Y54508D01*
X183451Y54527D01*
X183470Y54537D01*
X183527Y54575D01*
X183546Y54584D01*
X183726Y54669D01*
X183773Y54688D01*
X183868Y54717D01*
X183982Y54745D01*
X184143Y54764D01*
X184447Y54755D01*
X184475Y54745D01*
X184584Y54722D01*
X184636Y54707D01*
X184698Y54684D01*
X184774Y54655D01*
X184959Y54556D01*
X185025Y54508D01*
X185044Y54499D01*
X185063Y54480D01*
X185082Y54470D01*
X185111Y54442D01*
X185130Y54432D01*
X185267Y54295D01*
X185277Y54276D01*
X185305Y54247D01*
X185315Y54228D01*
X185333Y54209D01*
X185343Y54190D01*
X185362Y54172D01*
X185371Y54152D01*
X185419Y54077D01*
X185428Y54058D01*
X185495Y53915D01*
X185528Y53854D01*
X187126Y53858D01*
X187117Y53878D01*
X184319Y56675D01*
X184314Y59582D01*
X184252Y59606D01*
X184205Y59625D01*
X184039Y59715D01*
X183920Y59805D01*
X183863Y59853D01*
X183830Y59886D01*
X183811Y59895D01*
X183787Y59919D01*
X183778Y59938D01*
X183721Y59995D01*
X183712Y60014D01*
X183683Y60042D01*
X183674Y60061D01*
X183655Y60080D01*
X183645Y60099D01*
X183607Y60156D01*
X183598Y60175D01*
X183493Y60393D01*
X183465Y60488D01*
X183446Y60554D01*
X183427Y60668D01*
X183418Y60706D01*
X183408Y60943D01*
X183418Y60981D01*
X183427Y61095D01*
X183437Y61123D01*
X183451Y61195D01*
X183460Y61233D01*
X183475Y61285D01*
X183493Y61332D01*
X183517Y61394D01*
X183565Y61498D01*
X183659Y61650D01*
X183674Y61664D01*
X183683Y61683D01*
X183702Y61702D01*
X183712Y61721D01*
X183731Y61740D01*
X183740Y61759D01*
X183887Y61906D01*
X183906Y61915D01*
X183934Y61944D01*
X183953Y61953D01*
X183972Y61972D01*
X183991Y61982D01*
X184010Y62001D01*
X184029Y62010D01*
X184096Y62048D01*
X184295Y62143D01*
X184357Y62167D01*
X184508Y62205D01*
X184565Y62214D01*
X184693Y62228D01*
X184978Y62219D01*
X185006Y62210D01*
X185082Y62200D01*
X185111Y62190D01*
X185177Y62172D01*
X185239Y62148D01*
X185315Y62119D01*
X185367Y62096D01*
X185490Y62029D01*
X185556Y61982D01*
X185575Y61972D01*
X185594Y61953D01*
X185613Y61944D01*
X185632Y61925D01*
X185651Y61915D01*
X185718Y61849D01*
X185737Y61840D01*
X185760Y61816D01*
X185770Y61797D01*
X185836Y61730D01*
X185846Y61712D01*
X185865Y61693D01*
X185874Y61674D01*
X185893Y61655D01*
X185903Y61636D01*
X185950Y61569D01*
X186045Y61370D01*
X186068Y61308D01*
X186083Y61256D01*
X186121Y61105D01*
X186130Y61010D01*
X186140Y60972D01*
X186130Y60659D01*
X186121Y60630D01*
X186097Y60521D01*
X186087Y60483D01*
X186040Y60351D01*
X186021Y60303D01*
X185931Y60137D01*
X185884Y60071D01*
X185874Y60052D01*
X185846Y60023D01*
X185836Y60004D01*
X185798Y59966D01*
X185789Y59948D01*
X185680Y59838D01*
X185661Y59829D01*
X185623Y59791D01*
X185604Y59781D01*
X185585Y59763D01*
X185566Y59753D01*
X185499Y59706D01*
X185480Y59696D01*
X185405Y59649D01*
X185343Y59625D01*
X185291Y59601D01*
X185243Y59582D01*
X185229Y59578D01*
X185239Y57045D01*
X187776Y54508D01*
X187780Y56211D01*
X187733Y56230D01*
X187657Y56258D01*
X187577Y56301D01*
X187501Y56348D01*
X187482Y56358D01*
X187463Y56377D01*
X187444Y56386D01*
X187358Y56452D01*
X187306Y56495D01*
X187202Y56599D01*
X187192Y56618D01*
X187164Y56647D01*
X187155Y56666D01*
X187126Y56694D01*
X187117Y56713D01*
X187069Y56780D01*
X186955Y57017D01*
X186917Y57140D01*
X186898Y57216D01*
X186879Y57330D01*
X186870Y57425D01*
X186879Y57690D01*
X186889Y57719D01*
X186898Y57794D01*
X186908Y57823D01*
X186927Y57899D01*
X186951Y57961D01*
X186979Y58036D01*
X187036Y58150D01*
X187093Y58245D01*
X187131Y58302D01*
X187145Y58316D01*
X187155Y58335D01*
X187173Y58354D01*
X187183Y58373D01*
X187259Y58449D01*
X187268Y58468D01*
X187302Y58492D01*
X187368Y58558D01*
X187387Y58568D01*
X187406Y58586D01*
X187425Y58596D01*
X187444Y58615D01*
X187463Y58624D01*
X187520Y58662D01*
X187539Y58672D01*
X187605Y58710D01*
X187728Y58767D01*
X187818Y58800D01*
X187970Y58838D01*
X188027Y58847D01*
X188155Y58861D01*
X188430Y58852D01*
X188459Y58843D01*
X188534Y58833D01*
X188563Y58824D01*
X188601Y58814D01*
X188748Y58762D01*
X188795Y58743D01*
X188961Y58653D01*
X189051Y58591D01*
X189066Y58577D01*
X189084Y58568D01*
X189113Y58539D01*
X189132Y58530D01*
X189270Y58392D01*
X189279Y58373D01*
X189307Y58345D01*
X189317Y58326D01*
X189336Y58307D01*
X189345Y58288D01*
X189364Y58269D01*
X189374Y58250D01*
X189440Y58145D01*
X189469Y58079D01*
X189507Y57994D01*
X189554Y57842D01*
X189573Y57766D01*
X189592Y57633D01*
X189601Y57481D01*
X189587Y57316D01*
X189568Y57211D01*
X189559Y57164D01*
X189545Y57112D01*
X189502Y56993D01*
X189483Y56946D01*
X189383Y56761D01*
X189270Y56609D01*
X189231Y56571D01*
X189222Y56552D01*
X189170Y56500D01*
X189151Y56490D01*
X189104Y56443D01*
X189084Y56434D01*
X189056Y56405D01*
X189037Y56396D01*
X189018Y56377D01*
X188999Y56367D01*
X188942Y56329D01*
X188923Y56320D01*
X188705Y56215D01*
X188691Y56211D01*
X188700Y53583D01*
X191958Y50326D01*
X191963Y59862D01*
X190099Y61726D01*
X190033Y61697D01*
X189986Y61678D01*
X189862Y61640D01*
X189786Y61621D01*
X189720Y61612D01*
X189682Y61603D01*
X189502Y61593D01*
X189322Y61603D01*
X189293Y61612D01*
X189213Y61626D01*
X189099Y61655D01*
X189051Y61674D01*
X188976Y61702D01*
X188923Y61726D01*
X188800Y61792D01*
X188710Y61854D01*
X188677Y61877D01*
X188624Y61920D01*
X188601Y61944D01*
X188582Y61953D01*
X188492Y62043D01*
X188482Y62063D01*
X188435Y62110D01*
X188425Y62129D01*
X188406Y62148D01*
X188397Y62167D01*
X188378Y62186D01*
X188368Y62205D01*
X188321Y62281D01*
X188312Y62300D01*
X188245Y62442D01*
X188226Y62489D01*
X188198Y62584D01*
X188188Y62622D01*
X188169Y62688D01*
X188155Y62779D01*
X188146Y62873D01*
X188141Y63039D01*
X188150Y63068D01*
X188160Y63191D01*
X188169Y63220D01*
X188179Y63277D01*
X188188Y63305D01*
X188198Y63343D01*
X188240Y63461D01*
X188259Y63509D01*
X188316Y63623D01*
X188373Y63717D01*
X188397Y63751D01*
X188463Y63836D01*
X188492Y63864D01*
X188501Y63884D01*
X188591Y63974D01*
X188610Y63983D01*
X188658Y64030D01*
X188677Y64040D01*
X188696Y64059D01*
X188715Y64068D01*
X188734Y64087D01*
X188753Y64097D01*
X188829Y64144D01*
X188847Y64154D01*
X189009Y64230D01*
X189070Y64253D01*
X189123Y64268D01*
X189236Y64296D01*
X189303Y64306D01*
X189341Y64315D01*
X189521Y64324D01*
X189692Y64315D01*
X189720Y64306D01*
X189796Y64296D01*
X189824Y64287D01*
X189900Y64268D01*
X189990Y64234D01*
X190066Y64206D01*
X190232Y64116D01*
X190322Y64054D01*
X190336Y64040D01*
X190355Y64030D01*
X190374Y64012D01*
X190393Y64002D01*
X190550Y63846D01*
X190559Y63827D01*
X190588Y63798D01*
X190597Y63779D01*
X190616Y63760D01*
X190626Y63741D01*
X190645Y63722D01*
X190654Y63703D01*
X190692Y63637D01*
X190787Y63438D01*
X190825Y63314D01*
X190853Y63201D01*
X190868Y63092D01*
X190872Y62831D01*
X190863Y62802D01*
X190849Y62693D01*
X190839Y62646D01*
X190825Y62594D01*
X190806Y62527D01*
X190787Y62480D01*
X190763Y62418D01*
X190739Y62375D01*
X190777Y62337D01*
X190782Y62333D01*
X192423Y60692D01*
X194097Y62366D01*
X194088Y62404D01*
X194050Y62489D01*
X194012Y62613D01*
X194002Y62650D01*
X193983Y62764D01*
X193974Y62831D01*
X193964Y63030D01*
X193974Y63058D01*
X193983Y63182D01*
X193993Y63210D01*
X194007Y63281D01*
X194026Y63357D01*
X194045Y63404D01*
X194083Y63509D01*
X194154Y63646D01*
X194235Y63765D01*
X194258Y63798D01*
X194301Y63850D01*
X194325Y63874D01*
X194334Y63893D01*
X194405Y63964D01*
X194424Y63974D01*
X194472Y64021D01*
X194491Y64030D01*
X194510Y64050D01*
X194529Y64059D01*
X194548Y64078D01*
X194566Y64087D01*
X194585Y64106D01*
X194671Y64154D01*
X194832Y64230D01*
X194922Y64263D01*
X195036Y64291D01*
X195083Y64301D01*
X195278Y64324D01*
X195515Y64315D01*
X195543Y64306D01*
X195634Y64291D01*
X195686Y64277D01*
X195724Y64268D01*
X195842Y64225D01*
X195890Y64206D01*
X196079Y64102D01*
X196112Y64078D01*
X196231Y63988D01*
X196383Y63836D01*
X196392Y63817D01*
X196421Y63789D01*
X196430Y63770D01*
X196449Y63751D01*
X196459Y63732D01*
X196497Y63675D01*
X196506Y63656D01*
X196544Y63590D01*
X196601Y63466D01*
X196634Y63376D01*
X196663Y63262D01*
X196677Y63210D01*
X196691Y63101D01*
X196696Y62821D01*
X196686Y62793D01*
X196672Y62684D01*
X196658Y62632D01*
X196639Y62556D01*
X196620Y62508D01*
X196587Y62418D01*
X196530Y62304D01*
X196473Y62210D01*
X196435Y62153D01*
X196421Y62138D01*
X196411Y62119D01*
X196383Y62091D01*
X196373Y62072D01*
X196207Y61906D01*
X196188Y61897D01*
X196169Y61877D01*
X196150Y61868D01*
X196131Y61849D01*
X196112Y61840D01*
X196094Y61821D01*
X196075Y61811D01*
X196008Y61773D01*
X195809Y61678D01*
X195714Y61650D01*
X195676Y61640D01*
X195610Y61621D01*
X195477Y61603D01*
X195382Y61593D01*
X195136Y61603D01*
X195107Y61612D01*
X195026Y61626D01*
X194974Y61640D01*
X194936Y61650D01*
X194875Y61674D01*
X194799Y61702D01*
X194751Y61721D01*
X194747Y61726D01*
X192874Y59853D01*
X192878Y46494D01*
X195150Y48765D01*
X195145Y51483D01*
X195107Y51492D01*
X194870Y51615D01*
X194804Y51663D01*
X194785Y51672D01*
X194756Y51701D01*
X194737Y51710D01*
X194690Y51758D01*
X194671Y51767D01*
X194600Y51838D01*
X194590Y51857D01*
X194543Y51905D01*
X194533Y51924D01*
X194505Y51952D01*
X194495Y51971D01*
X194448Y52038D01*
X194438Y52056D01*
X194401Y52123D01*
X194334Y52265D01*
X194310Y52327D01*
X194301Y52365D01*
X194287Y52417D01*
X194268Y52493D01*
X194258Y52559D01*
X194249Y52597D01*
X194239Y52749D01*
X194249Y52948D01*
X194258Y52976D01*
X194272Y53057D01*
X194301Y53171D01*
X194358Y53323D01*
X194448Y53489D01*
X194495Y53555D01*
X194505Y53574D01*
X194524Y53593D01*
X194533Y53612D01*
X194562Y53640D01*
X194571Y53659D01*
X194718Y53806D01*
X194737Y53816D01*
X194766Y53844D01*
X194785Y53854D01*
X194804Y53873D01*
X194823Y53882D01*
X194841Y53901D01*
X194908Y53939D01*
X195126Y54043D01*
X195188Y54067D01*
X195340Y54105D01*
X195463Y54124D01*
X195743Y54129D01*
X195771Y54119D01*
X195871Y54105D01*
X196022Y54067D01*
X196146Y54020D01*
X196350Y53911D01*
X196501Y53797D01*
X196568Y53730D01*
X196582Y53726D01*
X196591Y53707D01*
X196658Y53640D01*
X196667Y53621D01*
X196686Y53602D01*
X196696Y53583D01*
X196715Y53565D01*
X196724Y53545D01*
X196743Y53527D01*
X196781Y53460D01*
X196885Y53242D01*
X196914Y53147D01*
X196933Y53081D01*
X196942Y53043D01*
X196971Y52844D01*
X196961Y52569D01*
X196952Y52540D01*
X196938Y52460D01*
X196928Y52422D01*
X196914Y52369D01*
X196881Y52279D01*
X196843Y52185D01*
X196800Y52104D01*
X196762Y52038D01*
X196648Y51886D01*
X196629Y51867D01*
X196620Y51848D01*
X196511Y51739D01*
X196492Y51729D01*
X196454Y51691D01*
X196435Y51682D01*
X196416Y51663D01*
X196397Y51653D01*
X196331Y51606D01*
X196312Y51596D01*
X196245Y51558D01*
X196122Y51502D01*
X196075Y51483D01*
X196060Y51478D01*
X196065Y49681D01*
X198517Y52132D01*
X198507Y54039D01*
X196558Y55988D01*
X196435Y55940D01*
X196340Y55912D01*
X196274Y55893D01*
X196160Y55874D01*
X196094Y55864D01*
X195947Y55860D01*
X195814Y55869D01*
X195690Y55888D01*
X195577Y55917D01*
X195425Y55974D01*
X195311Y56030D01*
X195216Y56087D01*
X195183Y56111D01*
X195098Y56177D01*
X195046Y56220D01*
X194932Y56334D01*
X194922Y56353D01*
X194894Y56381D01*
X194884Y56400D01*
X194865Y56419D01*
X194856Y56438D01*
X194837Y56457D01*
X194827Y56476D01*
X194780Y56552D01*
X194704Y56713D01*
X194680Y56775D01*
X194666Y56827D01*
X194647Y56894D01*
X194628Y56969D01*
X194609Y57131D01*
X194604Y57230D01*
X194614Y57382D01*
X194623Y57439D01*
X194642Y57543D01*
X194657Y57595D01*
X194666Y57633D01*
X194690Y57695D01*
X194718Y57771D01*
X194818Y57956D01*
X194879Y58046D01*
X194894Y58060D01*
X194903Y58079D01*
X194951Y58127D01*
X194960Y58145D01*
X195060Y58245D01*
X195079Y58254D01*
X195126Y58302D01*
X195145Y58311D01*
X195164Y58330D01*
X195183Y58340D01*
X195202Y58359D01*
X195287Y58406D01*
X195487Y58501D01*
X195548Y58525D01*
X195662Y58553D01*
X195714Y58568D01*
X195814Y58582D01*
X196122Y58586D01*
X196150Y58577D01*
X196274Y58558D01*
X196302Y58548D01*
X196378Y58530D01*
X196425Y58511D01*
X196516Y58477D01*
X196653Y58406D01*
X196729Y58359D01*
X196748Y58349D01*
X196767Y58330D01*
X196786Y58321D01*
X196805Y58302D01*
X196824Y58292D01*
X196871Y58245D01*
X196890Y58236D01*
X196999Y58127D01*
X197009Y58108D01*
X197047Y58070D01*
X197056Y58051D01*
X197075Y58032D01*
X197085Y58013D01*
X197104Y57994D01*
X197151Y57908D01*
X197246Y57709D01*
X197265Y57662D01*
X197284Y57586D01*
X197303Y57519D01*
X197312Y57481D01*
X197327Y57382D01*
X197331Y57064D01*
X197322Y57036D01*
X197307Y56946D01*
X197279Y56832D01*
X197241Y56727D01*
X197222Y56680D01*
X197208Y56637D01*
X197217Y56618D01*
X198512Y55324D01*
X198517Y59483D01*
X198503Y59497D01*
X198450Y59511D01*
X198228Y59630D01*
X198109Y59720D01*
X198095Y59734D01*
X198076Y59743D01*
X197929Y59891D01*
X197919Y59910D01*
X197891Y59938D01*
X197881Y59957D01*
X197862Y59976D01*
X197853Y59995D01*
X197805Y60061D01*
X197701Y60279D01*
X197682Y60327D01*
X197644Y60460D01*
X197625Y60573D01*
X197616Y60611D01*
X197606Y60820D01*
X197621Y60958D01*
X197630Y61014D01*
X197640Y61062D01*
X197668Y61176D01*
X197706Y61280D01*
X197725Y61327D01*
X197796Y61465D01*
X197876Y61583D01*
X197900Y61617D01*
X197943Y61669D01*
X197986Y61712D01*
X197995Y61730D01*
X198028Y61764D01*
X198047Y61773D01*
X198114Y61840D01*
X198133Y61849D01*
X198152Y61868D01*
X198171Y61877D01*
X198190Y61897D01*
X198209Y61906D01*
X198313Y61972D01*
X198455Y62039D01*
X198545Y62072D01*
X198597Y62086D01*
X198711Y62115D01*
X198801Y62129D01*
X198896Y62138D01*
X199043Y62143D01*
X199072Y62134D01*
X199195Y62124D01*
X199223Y62115D01*
X199294Y62100D01*
X199370Y62081D01*
X199522Y62024D01*
X199660Y61953D01*
X199778Y61873D01*
X199811Y61849D01*
X199863Y61806D01*
X199887Y61783D01*
X199906Y61773D01*
X199987Y61693D01*
X199996Y61674D01*
X200044Y61626D01*
X200053Y61607D01*
X200072Y61588D01*
X200082Y61569D01*
X200101Y61550D01*
X200110Y61531D01*
X200158Y61455D01*
X200167Y61437D01*
X200243Y61275D01*
X200267Y61214D01*
X200281Y61161D01*
X200319Y61010D01*
X200333Y60901D01*
X200338Y60649D01*
X200328Y60621D01*
X200314Y60512D01*
X200305Y60464D01*
X200290Y60412D01*
X200271Y60346D01*
X200252Y60298D01*
X200229Y60237D01*
X200205Y60185D01*
X200139Y60061D01*
X200091Y59995D01*
X200082Y59976D01*
X200063Y59957D01*
X200053Y59938D01*
X200034Y59919D01*
X200025Y59900D01*
X199958Y59834D01*
X199949Y59815D01*
X199935Y59801D01*
X199916Y59791D01*
X199840Y59715D01*
X199821Y59706D01*
X199792Y59677D01*
X199773Y59668D01*
X199707Y59620D01*
X199688Y59611D01*
X199612Y59563D01*
X199527Y59525D01*
X199479Y59506D01*
X199427Y59483D01*
X199432Y55324D01*
X200746Y56637D01*
X200698Y56742D01*
X200660Y56865D01*
X200641Y56941D01*
X200622Y57055D01*
X200613Y57178D01*
X200622Y57415D01*
X200632Y57444D01*
X200641Y57519D01*
X200651Y57548D01*
X200670Y57624D01*
X200693Y57685D01*
X200722Y57761D01*
X200746Y57814D01*
X200812Y57937D01*
X200874Y58027D01*
X200888Y58041D01*
X200897Y58060D01*
X200916Y58079D01*
X200926Y58098D01*
X200973Y58145D01*
X200983Y58164D01*
X201044Y58226D01*
X201063Y58236D01*
X201120Y58292D01*
X201139Y58302D01*
X201158Y58321D01*
X201177Y58330D01*
X201196Y58349D01*
X201215Y58359D01*
X201291Y58406D01*
X201310Y58416D01*
X201471Y58492D01*
X201518Y58511D01*
X201613Y58539D01*
X201727Y58568D01*
X201888Y58586D01*
X202183Y58577D01*
X202211Y58568D01*
X202287Y58558D01*
X202315Y58548D01*
X202353Y58539D01*
X202443Y58506D01*
X202519Y58477D01*
X202633Y58421D01*
X202728Y58364D01*
X202761Y58340D01*
X202880Y58250D01*
X203031Y58098D01*
X203041Y58079D01*
X203060Y58060D01*
X203069Y58041D01*
X203088Y58022D01*
X203098Y58003D01*
X203117Y57984D01*
X203164Y57899D01*
X203249Y57719D01*
X203273Y57657D01*
X203287Y57605D01*
X203316Y57491D01*
X203335Y57358D01*
X203344Y57235D01*
X203335Y57055D01*
X203325Y57026D01*
X203311Y56936D01*
X203283Y56822D01*
X203264Y56775D01*
X203226Y56671D01*
X203136Y56505D01*
X203074Y56414D01*
X203060Y56400D01*
X203050Y56381D01*
X203031Y56362D01*
X203022Y56343D01*
X202846Y56168D01*
X202827Y56158D01*
X202808Y56139D01*
X202789Y56130D01*
X202771Y56111D01*
X202752Y56101D01*
X202733Y56083D01*
X202647Y56035D01*
X202467Y55950D01*
X202344Y55912D01*
X202230Y55883D01*
X202140Y55869D01*
X201960Y55860D01*
X201808Y55869D01*
X201694Y55888D01*
X201580Y55917D01*
X201429Y55974D01*
X201386Y55988D01*
X199427Y54029D01*
X199418Y51743D01*
X196715Y49040D01*
X200504Y49036D01*
X200527Y49088D01*
X200565Y49173D01*
X200622Y49278D01*
X200703Y49396D01*
X200727Y49429D01*
X200755Y49458D01*
X200765Y49477D01*
X200912Y49624D01*
X200931Y49633D01*
X200959Y49662D01*
X200978Y49671D01*
X200997Y49690D01*
X201016Y49700D01*
X201082Y49747D01*
X201300Y49851D01*
X201348Y49870D01*
X201386Y49880D01*
X201452Y49899D01*
X201528Y49918D01*
X201661Y49937D01*
X201813Y49946D01*
X201969Y49932D01*
X202083Y49913D01*
X202197Y49885D01*
X202348Y49828D01*
X202538Y49723D01*
X202571Y49700D01*
X202690Y49609D01*
X202742Y49557D01*
X202761Y49548D01*
X202785Y49515D01*
X202851Y49448D01*
X202861Y49429D01*
X202880Y49410D01*
X202889Y49391D01*
X202908Y49372D01*
X202917Y49353D01*
X202936Y49334D01*
X202984Y49249D01*
X203069Y49069D01*
X203107Y48946D01*
X203117Y48908D01*
X203136Y48841D01*
X203155Y48680D01*
X203164Y48528D01*
X203155Y48500D01*
X203145Y48358D01*
X203136Y48329D01*
X203121Y48258D01*
X203102Y48182D01*
X203046Y48030D01*
X202974Y47893D01*
X202894Y47774D01*
X202870Y47741D01*
X202827Y47689D01*
X202804Y47665D01*
X202794Y47646D01*
X202723Y47575D01*
X202704Y47566D01*
X202647Y47509D01*
X202628Y47499D01*
X202609Y47480D01*
X202590Y47471D01*
X202571Y47452D01*
X202552Y47442D01*
X202448Y47376D01*
X202344Y47329D01*
X202296Y47309D01*
X202235Y47286D01*
X202183Y47272D01*
X202145Y47262D01*
X202078Y47243D01*
X202012Y47234D01*
X201974Y47224D01*
X201850Y47215D01*
X201585Y47224D01*
X201556Y47234D01*
X201447Y47257D01*
X201395Y47272D01*
X201305Y47305D01*
X201258Y47324D01*
X201153Y47371D01*
X201139Y47385D01*
X201054Y47433D01*
X200987Y47480D01*
X200968Y47490D01*
X200940Y47518D01*
X200921Y47528D01*
X200864Y47585D01*
X200845Y47594D01*
X200802Y47637D01*
X200793Y47656D01*
X200736Y47713D01*
X200727Y47732D01*
X200698Y47760D01*
X200689Y47779D01*
X200622Y47874D01*
X200518Y48092D01*
X200504Y48125D01*
X195790Y48116D01*
X192874Y45199D01*
X192878Y42216D01*
X195325Y44663D01*
X198142Y44673D01*
X198175Y44753D01*
X198270Y44934D01*
X198318Y45000D01*
X198327Y45019D01*
X198346Y45038D01*
X198356Y45057D01*
X198393Y45095D01*
X198403Y45114D01*
X198550Y45261D01*
X198569Y45270D01*
X198588Y45289D01*
X198607Y45299D01*
X198626Y45318D01*
X198645Y45327D01*
X198711Y45375D01*
X198730Y45384D01*
X198948Y45489D01*
X199072Y45526D01*
X199185Y45555D01*
X199280Y45564D01*
X199318Y45574D01*
X199622Y45564D01*
X199650Y45555D01*
X199726Y45545D01*
X199755Y45536D01*
X199830Y45517D01*
X199878Y45498D01*
X199939Y45474D01*
X199987Y45455D01*
X200124Y45384D01*
X200215Y45322D01*
X200248Y45299D01*
X200333Y45232D01*
X200480Y45086D01*
X200490Y45066D01*
X200508Y45047D01*
X200518Y45029D01*
X200537Y45010D01*
X200546Y44991D01*
X200565Y44972D01*
X200575Y44953D01*
X200622Y44877D01*
X200689Y44735D01*
X200708Y44687D01*
X200746Y44564D01*
X200774Y44450D01*
X200788Y44331D01*
X200793Y44090D01*
X200784Y44061D01*
X200769Y43952D01*
X200760Y43905D01*
X200746Y43853D01*
X200736Y43815D01*
X200703Y43724D01*
X200674Y43649D01*
X200594Y43502D01*
X200532Y43411D01*
X200508Y43378D01*
X200466Y43326D01*
X200452Y43312D01*
X200442Y43293D01*
X200333Y43184D01*
X200314Y43174D01*
X200276Y43136D01*
X200257Y43127D01*
X200238Y43108D01*
X200219Y43099D01*
X200200Y43080D01*
X200181Y43070D01*
X200105Y43023D01*
X200086Y43013D01*
X199925Y42937D01*
X199802Y42899D01*
X199736Y42880D01*
X199698Y42871D01*
X199607Y42857D01*
X199522Y42847D01*
X199347Y42842D01*
X199318Y42852D01*
X199185Y42861D01*
X199157Y42871D01*
X199095Y42885D01*
X199043Y42899D01*
X198925Y42942D01*
X198877Y42961D01*
X198825Y42985D01*
X198721Y43042D01*
X198654Y43089D01*
X198635Y43099D01*
X198583Y43141D01*
X198550Y43165D01*
X198512Y43203D01*
X198493Y43212D01*
X198412Y43293D01*
X198403Y43312D01*
X198365Y43350D01*
X198356Y43369D01*
X198327Y43397D01*
X198318Y43416D01*
X198270Y43483D01*
X198261Y43502D01*
X198213Y43577D01*
X198190Y43639D01*
X198166Y43691D01*
X198147Y43739D01*
X198142Y43753D01*
X195695Y43743D01*
X193623Y41671D01*
X205758Y41666D01*
X205825Y41704D01*
X205848Y41728D01*
X205858Y41747D01*
X205877Y41794D01*
X205881Y54508D01*
X209704Y54518D01*
X209789Y54565D01*
X209808Y54584D01*
X209827Y54594D01*
X209841Y54608D01*
X209851Y54627D01*
X209870Y54646D01*
X209898Y54712D01*
X209907Y54750D01*
X209912Y54821D01*
X209903Y54878D01*
X209893Y54916D01*
X209846Y54992D01*
X209803Y55035D01*
X209794Y55054D01*
X209329Y55518D01*
X209319Y55537D01*
X208855Y56002D01*
X208845Y56021D01*
X208390Y56476D01*
X208381Y56495D01*
X207916Y56960D01*
X207906Y56979D01*
X207442Y57444D01*
X207432Y57463D01*
X206967Y57927D01*
X206958Y57946D01*
X206493Y58411D01*
X206484Y58430D01*
X206028Y58885D01*
X206019Y58904D01*
X205877Y59046D01*
X205867Y65420D01*
X205820Y65486D01*
X205805Y65501D01*
X205739Y65519D01*
X202685Y65510D01*
X202633Y65467D01*
X202605Y65420D01*
X202595Y65382D01*
X202590Y62380D01*
X201580Y63390D01*
X201571Y63409D01*
X200215Y64766D01*
X200205Y64784D01*
X198858Y66131D01*
X198849Y66150D01*
X197502Y67497D01*
X197492Y67516D01*
X196146Y68863D01*
X196136Y68882D01*
X194789Y70229D01*
X194780Y70248D01*
X193424Y71604D01*
X193414Y71623D01*
X192708Y72329D01*
X192689Y72339D01*
X192670Y72358D01*
X192546Y72415D01*
X192470Y72434D01*
X192347Y72443D01*
D02*
G37*
G36*
X184228Y53949D02*
X184115Y53939D01*
X184086Y53930D01*
X184025Y53906D01*
X183977Y53887D01*
X183920Y53849D01*
X183887Y53825D01*
X183859Y53797D01*
X183840Y53787D01*
X183816Y53754D01*
X183787Y53726D01*
X183778Y53707D01*
X183740Y53650D01*
X183716Y53588D01*
X183702Y53536D01*
Y53527D01*
X183693Y53498D01*
X183683Y53375D01*
X183693Y53308D01*
X183707Y53247D01*
X183735Y53171D01*
X183792Y53076D01*
X183816Y53052D01*
X183825Y53033D01*
X183868Y52991D01*
X183887Y52981D01*
X183916Y52953D01*
X183934Y52943D01*
X184058Y52886D01*
X184124Y52867D01*
X184219Y52858D01*
X184352Y52867D01*
X184380Y52877D01*
X184442Y52901D01*
X184522Y52943D01*
X184608Y53010D01*
X184660Y53062D01*
X184670Y53081D01*
X184708Y53138D01*
X184736Y53204D01*
X184755Y53252D01*
X184764Y53318D01*
X184774Y53356D01*
X184764Y53527D01*
X184745Y53574D01*
X184722Y53636D01*
X184665Y53730D01*
X184651Y53745D01*
X184641Y53764D01*
X184589Y53816D01*
X184570Y53825D01*
X184541Y53854D01*
X184399Y53920D01*
X184323Y53939D01*
X184228Y53949D01*
D02*
G37*
G36*
X195572Y53313D02*
X195543Y53304D01*
X195453Y53289D01*
X195359Y53252D01*
X195278Y53199D01*
X195226Y53157D01*
X195178Y53109D01*
X195169Y53090D01*
X195121Y53024D01*
X195098Y52962D01*
X195074Y52882D01*
X195064Y52815D01*
X195074Y52635D01*
X195083Y52607D01*
X195102Y52559D01*
X195159Y52455D01*
X195202Y52403D01*
X195278Y52327D01*
X195297Y52317D01*
X195354Y52279D01*
X195449Y52241D01*
X195562Y52222D01*
X195733Y52232D01*
X195762Y52241D01*
X195809Y52260D01*
X195932Y52327D01*
X195961Y52355D01*
X195980Y52365D01*
X196013Y52398D01*
X196022Y52417D01*
X196051Y52445D01*
X196060Y52464D01*
X196127Y52607D01*
X196136Y52635D01*
Y52645D01*
X196146Y52682D01*
X196150Y52782D01*
X196141Y52867D01*
X196131Y52915D01*
X196094Y53010D01*
X196046Y53085D01*
X196032Y53100D01*
X196022Y53119D01*
X195951Y53190D01*
X195932Y53199D01*
X195913Y53218D01*
X195894Y53228D01*
X195771Y53285D01*
X195695Y53304D01*
X195572Y53313D01*
D02*
G37*
G36*
X184731Y49396D02*
X184561Y49387D01*
X184513Y49368D01*
X184451Y49344D01*
X184357Y49287D01*
X184333Y49263D01*
X184314Y49254D01*
X184309Y49249D01*
X184304Y49244D01*
X184271Y49211D01*
X184262Y49192D01*
X184243Y49173D01*
X184233Y49154D01*
X184195Y49097D01*
X184176Y49050D01*
X184157Y48983D01*
X184148Y48946D01*
X184138Y48822D01*
X184153Y48732D01*
X184162Y48694D01*
X184200Y48599D01*
X184214Y48585D01*
X184252Y48519D01*
X184290Y48481D01*
X184300Y48462D01*
X184333Y48438D01*
X184361Y48410D01*
X184380Y48400D01*
X184437Y48362D01*
X184499Y48339D01*
X184551Y48324D01*
X184589Y48315D01*
X184684Y48305D01*
X184798Y48315D01*
X184826Y48324D01*
X184916Y48358D01*
X185011Y48415D01*
X185035Y48438D01*
X185054Y48448D01*
X185106Y48500D01*
X185115Y48519D01*
X185134Y48538D01*
X185144Y48557D01*
X185210Y48699D01*
X185220Y48765D01*
X185229Y48803D01*
X185220Y48974D01*
X185210Y49002D01*
X185191Y49050D01*
X185125Y49173D01*
X185106Y49192D01*
X185096Y49211D01*
X185035Y49273D01*
X185016Y49282D01*
X184997Y49301D01*
X184978Y49311D01*
X184835Y49377D01*
X184769Y49387D01*
X184731Y49396D01*
D02*
G37*
G36*
X201841Y49121D02*
X201670Y49112D01*
X201642Y49102D01*
X201580Y49078D01*
X201471Y49017D01*
X201419Y48974D01*
X201372Y48927D01*
X201362Y48908D01*
X201343Y48889D01*
X201334Y48870D01*
X201277Y48746D01*
X201258Y48671D01*
X201248Y48576D01*
X201258Y48462D01*
X201267Y48433D01*
X201291Y48372D01*
X201319Y48315D01*
X201353Y48263D01*
X201395Y48211D01*
X201462Y48144D01*
X201481Y48135D01*
X201500Y48116D01*
X201604Y48068D01*
X201670Y48049D01*
X201708Y48040D01*
X201827Y48035D01*
X201903Y48045D01*
X201941Y48054D01*
X202017Y48082D01*
X202097Y48125D01*
X202149Y48168D01*
X202164Y48182D01*
X202183Y48192D01*
X202230Y48249D01*
X202268Y48305D01*
X202311Y48405D01*
X202330Y48481D01*
X202339Y48547D01*
Y48623D01*
Y48633D01*
X202315Y48742D01*
X202296Y48789D01*
X202268Y48846D01*
X202235Y48898D01*
X202192Y48950D01*
X202135Y49007D01*
X202116Y49017D01*
X202097Y49036D01*
X201974Y49093D01*
X201907Y49112D01*
X201841Y49121D01*
D02*
G37*
G36*
X189417Y48761D02*
X189303Y48751D01*
X189274Y48742D01*
X189213Y48718D01*
X189165Y48699D01*
X189108Y48661D01*
X189075Y48637D01*
X189056Y48618D01*
X189037Y48609D01*
X189013Y48585D01*
X189004Y48566D01*
X188976Y48538D01*
X188966Y48519D01*
X188957Y48509D01*
Y48500D01*
X188937Y48481D01*
X188900Y48386D01*
X188881Y48310D01*
X188871Y48215D01*
X188881Y48102D01*
X188890Y48073D01*
X188923Y47983D01*
X188980Y47888D01*
X189004Y47864D01*
X189013Y47845D01*
X189066Y47793D01*
X189084Y47784D01*
X189104Y47765D01*
X189123Y47755D01*
X189265Y47689D01*
X189331Y47679D01*
X189369Y47670D01*
X189540Y47679D01*
X189568Y47689D01*
X189616Y47708D01*
X189739Y47774D01*
X189758Y47793D01*
X189777Y47803D01*
X189839Y47864D01*
X189848Y47883D01*
X189867Y47902D01*
X189876Y47921D01*
X189943Y48064D01*
X189952Y48130D01*
X189962Y48168D01*
X189952Y48329D01*
X189943Y48358D01*
X189910Y48448D01*
X189853Y48542D01*
X189829Y48566D01*
X189820Y48585D01*
X189777Y48628D01*
X189758Y48637D01*
X189729Y48666D01*
X189587Y48732D01*
X189511Y48751D01*
X189417Y48761D01*
D02*
G37*
G36*
X199399Y44753D02*
X199323Y44744D01*
X199247Y44725D01*
X199157Y44682D01*
X199067Y44621D01*
X199010Y44564D01*
X199000Y44545D01*
X198981Y44526D01*
X198977Y44512D01*
X198972Y44507D01*
X198906Y44365D01*
X198896Y44327D01*
X198887Y44260D01*
X198896Y44080D01*
X198906Y44052D01*
X198925Y44004D01*
X198981Y43900D01*
X199024Y43848D01*
X199100Y43772D01*
X199119Y43762D01*
X199176Y43724D01*
X199271Y43686D01*
X199385Y43667D01*
X199555Y43677D01*
X199584Y43686D01*
X199645Y43710D01*
X199726Y43753D01*
X199778Y43796D01*
X199811Y43819D01*
X199835Y43843D01*
X199845Y43862D01*
X199873Y43890D01*
X199883Y43909D01*
X199921Y43966D01*
X199930Y44004D01*
X199949Y44052D01*
X199968Y44127D01*
X199973Y44227D01*
X199963Y44313D01*
X199944Y44388D01*
X199902Y44478D01*
X199840Y44569D01*
X199773Y44635D01*
X199755Y44644D01*
X199736Y44663D01*
X199716Y44673D01*
X199593Y44730D01*
X199517Y44749D01*
X199399Y44753D01*
D02*
G37*
G36*
X185424Y44663D02*
X185291Y44654D01*
X185262Y44644D01*
X185201Y44621D01*
X185120Y44578D01*
X185035Y44512D01*
X184992Y44469D01*
X184982Y44450D01*
X184964Y44431D01*
X184954Y44412D01*
X184935Y44384D01*
Y44374D01*
X184888Y44270D01*
X184878Y44203D01*
X184869Y44166D01*
X184878Y43995D01*
X184888Y43966D01*
X184907Y43919D01*
X184973Y43796D01*
X184992Y43777D01*
X185002Y43758D01*
X185054Y43706D01*
X185073Y43696D01*
X185101Y43667D01*
X185120Y43658D01*
X185243Y43601D01*
X185319Y43582D01*
X185414Y43573D01*
X185528Y43582D01*
X185556Y43592D01*
X185618Y43615D01*
X185665Y43634D01*
X185722Y43672D01*
X185756Y43696D01*
X185784Y43724D01*
X185803Y43734D01*
X185827Y43767D01*
X185855Y43796D01*
X185865Y43815D01*
X185912Y43890D01*
X185921Y43928D01*
X185940Y43976D01*
X185950Y44042D01*
X185959Y44080D01*
X185950Y44232D01*
X185940Y44260D01*
X185907Y44350D01*
X185860Y44426D01*
X185836Y44460D01*
X185817Y44478D01*
X185808Y44497D01*
X185774Y44531D01*
X185756Y44540D01*
X185727Y44569D01*
X185708Y44578D01*
X185585Y44635D01*
X185518Y44654D01*
X185424Y44663D01*
D02*
G37*
%LPD*%
D10*
X82243Y135000D02*
G03*
X82243Y135000I-4243J0D01*
G01*
D11*
X94200Y77000D02*
Y92000D01*
X95500Y73500D02*
X144500D01*
Y41500D02*
Y73500D01*
X95500Y41500D02*
X144500D01*
X95500D02*
Y73500D01*
X28865Y178298D02*
Y210298D01*
Y201298D02*
Y210298D01*
X7115Y178298D02*
Y222298D01*
X192000Y89500D02*
X198000D01*
X192000Y119500D02*
X198000D01*
Y115500D02*
Y119500D01*
Y89500D02*
Y93500D01*
X173000Y101500D02*
Y107500D01*
X158530Y235480D02*
X172530D01*
Y228480D02*
Y235480D01*
X72530D02*
X86530D01*
X72530Y228480D02*
Y235480D01*
X172530Y145480D02*
Y164480D01*
X158530Y145480D02*
X172530D01*
X72530D02*
Y164480D01*
Y145480D02*
X86530D01*
X163850Y80040D02*
Y90454D01*
X151150Y64546D02*
X163850D01*
X151150D02*
Y74960D01*
X163850Y64546D02*
Y74960D01*
X151404Y90454D02*
X163850D01*
X151150Y80040D02*
Y90454D01*
X29350Y104540D02*
Y114954D01*
X16650Y89046D02*
X29350D01*
X16650D02*
Y99460D01*
X29350Y89046D02*
Y99460D01*
X16904Y114954D02*
X29350D01*
X16650Y104540D02*
Y114954D01*
X54366Y178298D02*
Y210298D01*
Y201298D02*
Y210298D01*
X32615Y178298D02*
Y222298D01*
X9516Y146837D02*
Y157251D01*
X9770D02*
X22216D01*
Y131343D02*
Y141757D01*
X9516Y131343D02*
Y141757D01*
Y131343D02*
X22216D01*
Y146837D02*
Y157251D01*
X54047Y11649D02*
X64461D01*
X54047Y11903D02*
Y24349D01*
X69541D02*
X79955D01*
X69541Y11649D02*
X79955D01*
Y24349D01*
X54047D02*
X64461D01*
X203004Y201669D02*
Y209000D01*
X214000D01*
Y201669D01*
X208502Y209000D02*
Y205335D01*
X204836Y198004D02*
X203004Y196171D01*
Y192505D01*
X204836Y190673D01*
X206669D01*
X208502Y192505D01*
Y194338D01*
Y192505D01*
X210334Y190673D01*
X212167D01*
X214000Y192505D01*
Y196171D01*
X212167Y198004D01*
X208502Y187007D02*
Y179676D01*
X203004Y176011D02*
X214000D01*
X208502D01*
Y168680D01*
X203004D01*
X214000D01*
X203004Y159516D02*
Y163181D01*
X204836Y165014D01*
X212167D01*
X214000Y163181D01*
Y159516D01*
X212167Y157683D01*
X204836D01*
X203004Y159516D01*
X214000Y154018D02*
X203004D01*
X206669Y150352D01*
X203004Y146687D01*
X214000D01*
X203004Y135690D02*
Y143021D01*
X214000D01*
Y135690D01*
X208502Y143021D02*
Y139356D01*
Y132025D02*
Y124694D01*
X214000Y121028D02*
X206669D01*
X203004Y117363D01*
X206669Y113698D01*
X214000D01*
X208502D01*
Y121028D01*
X214000Y110032D02*
X206669D01*
X203004Y106367D01*
X206669Y102701D01*
X214000D01*
X208502D01*
Y110032D01*
X204836Y99036D02*
X203004Y97203D01*
Y93537D01*
X204836Y91705D01*
X212167D01*
X214000Y93537D01*
Y97203D01*
X212167Y99036D01*
X204836D01*
X214000Y88039D02*
Y84374D01*
Y86206D01*
X203004D01*
X204836Y88039D01*
X219338Y202669D02*
Y210000D01*
X224836D01*
Y206335D01*
Y210000D01*
X230334D01*
X223004Y199004D02*
X228502D01*
X230334Y197171D01*
Y191673D01*
X223004D01*
X234000Y188007D02*
Y186174D01*
X232167Y184342D01*
X223004D01*
X230334Y177011D02*
Y173345D01*
Y175178D01*
X223004D01*
Y177011D01*
X230334Y156851D02*
X219338D01*
X223004Y153185D01*
X219338Y149520D01*
X230334D01*
X219338Y138523D02*
Y145854D01*
X224836D01*
X223004Y142189D01*
Y140356D01*
X224836Y138523D01*
X228502D01*
X230334Y140356D01*
Y144021D01*
X228502Y145854D01*
X221171Y127527D02*
X219338Y129359D01*
Y133025D01*
X221171Y134858D01*
X223004D01*
X224836Y133025D01*
Y129359D01*
X226669Y127527D01*
X228502D01*
X230334Y129359D01*
Y133025D01*
X228502Y134858D01*
X221171Y122029D02*
X223004D01*
Y123861D01*
Y120196D01*
Y122029D01*
X228502D01*
X230334Y120196D01*
X223004Y112865D02*
Y109199D01*
X224836Y107367D01*
X230334D01*
Y112865D01*
X228502Y114698D01*
X226669Y112865D01*
Y107367D01*
X223004Y96370D02*
Y101868D01*
X224836Y103701D01*
X228502D01*
X230334Y101868D01*
Y96370D01*
Y92705D02*
X219338D01*
X226669D02*
X223004Y87206D01*
X226669Y92705D02*
X230334Y87206D01*
Y70712D02*
X223004D01*
X219338Y67046D01*
X223004Y63381D01*
X230334D01*
X224836D01*
Y70712D01*
X221171Y57882D02*
X223004D01*
Y59715D01*
Y56050D01*
Y57882D01*
X228502D01*
X230334Y56050D01*
Y48719D02*
Y45053D01*
X228502Y43221D01*
X224836D01*
X223004Y45053D01*
Y48719D01*
X224836Y50552D01*
X228502D01*
X230334Y48719D01*
Y39555D02*
X223004D01*
Y37722D01*
X224836Y35890D01*
X230334D01*
X224836D01*
X223004Y34057D01*
X224836Y32224D01*
X230334D01*
D13*
X34983Y123764D02*
X51747D01*
X34983Y159832D02*
X51747D01*
X34983Y123764D02*
Y136718D01*
X51747Y123764D02*
Y136718D01*
Y146878D02*
Y159832D01*
X34983Y146878D02*
Y159832D01*
X49966Y27618D02*
Y44382D01*
X86034Y27618D02*
Y44382D01*
X49966D02*
X62920D01*
X49966Y27618D02*
X62920D01*
X73080D02*
X86034D01*
X73080Y44382D02*
X86034D01*
X71618Y54466D02*
X88382D01*
X71618Y90534D02*
X88382D01*
X71618Y54466D02*
Y67420D01*
X88382Y54466D02*
Y67420D01*
Y77580D02*
Y90534D01*
X71618Y77580D02*
Y90534D01*
X49118Y54466D02*
X65882D01*
X49118Y90534D02*
X65882D01*
X49118Y54466D02*
Y67420D01*
X65882Y54466D02*
Y67420D01*
Y77580D02*
Y90534D01*
X49118Y77580D02*
Y90534D01*
D28*
X101000Y101500D02*
X98334D01*
X99667D01*
Y109497D01*
X101000Y108165D01*
X89004Y101500D02*
X94335D01*
X89004Y106832D01*
Y108165D01*
X90337Y109497D01*
X93003D01*
X94335Y108165D01*
X86338Y109497D02*
Y104166D01*
X83672Y101500D01*
X81006Y104166D01*
Y109497D01*
X123168Y108165D02*
X124501Y109497D01*
X127167D01*
X128500Y108165D01*
Y102833D01*
X127167Y101500D01*
X124501D01*
X123168Y102833D01*
Y105499D01*
X125834D01*
X120503Y101500D02*
Y109497D01*
X115171Y101500D01*
Y109497D01*
X112505D02*
Y101500D01*
X108506D01*
X107174Y102833D01*
Y108165D01*
X108506Y109497D01*
X112505D01*
X156000D02*
Y101500D01*
X150668D01*
X148003Y109497D02*
X145337D01*
X146670D01*
Y101500D01*
X148003D01*
X145337D01*
X141338D02*
Y109497D01*
X136006Y101500D01*
Y109497D01*
M02*
