G04*
G04 #@! TF.GenerationSoftware,Altium Limited,Altium Designer,25.8.1 (18)*
G04*
G04 Layer_Color=65535*
%FSLAX44Y44*%
%MOMM*%
G71*
G04*
G04 #@! TF.SameCoordinates,ACFAF3E9-8082-44EF-AA5D-C20FC646A692*
G04*
G04*
G04 #@! TF.FilePolarity,Positive*
G04*
G01*
G75*
%ADD10C,0.2540*%
%ADD11C,0.2000*%
%ADD12C,0.3000*%
%ADD13C,0.3048*%
D10*
X177828Y144500D02*
G03*
X177828Y144500I-2828J0D01*
G01*
X169250Y190500D02*
X185750D01*
X169250Y234500D02*
X185750D01*
D11*
X76012Y131538D02*
G03*
X76012Y131538I-1000J0D01*
G01*
X183010Y131930D02*
Y157330D01*
X208410D01*
X183010Y30330D02*
X208410D01*
X183010D02*
Y55730D01*
X30840Y106720D02*
Y132120D01*
X56240D01*
X30840Y30520D02*
X56240D01*
Y55920D01*
X49200Y159500D02*
Y214500D01*
X20800Y159500D02*
Y205500D01*
X146349Y19547D02*
Y29961D01*
X133649Y45455D02*
X146349D01*
X133649Y35041D02*
Y45455D01*
X146349Y35041D02*
Y45455D01*
X133903Y19547D02*
X146349D01*
X133649D02*
Y29961D01*
X122046Y234350D02*
X132460D01*
X122046Y221650D02*
Y234096D01*
X137540Y221650D02*
X147954D01*
X137540Y234350D02*
X147954D01*
Y221650D02*
Y234350D01*
X122046Y221650D02*
X132460D01*
X99546Y186850D02*
X109960D01*
X99546Y174150D02*
Y186596D01*
X115040Y174150D02*
X125454D01*
X115040Y186850D02*
X125454D01*
Y174150D02*
Y186850D01*
X99546Y174150D02*
X109960D01*
X60650Y197046D02*
Y207460D01*
X60904Y197046D02*
X73350D01*
Y212540D02*
Y222954D01*
X60650Y212540D02*
Y222954D01*
X73350D01*
Y197046D02*
Y207460D01*
X76151Y212539D02*
Y222953D01*
Y197045D02*
X88851D01*
Y207459D01*
X76151Y197045D02*
Y207459D01*
Y222953D02*
X88597D01*
X88851Y212539D02*
Y222953D01*
X108539Y234349D02*
X118953D01*
X93045Y221649D02*
Y234349D01*
Y221649D02*
X103459D01*
X93045Y234349D02*
X103459D01*
X118953Y221903D02*
Y234349D01*
X108539Y221649D02*
X118953D01*
X128849Y19547D02*
Y29961D01*
X116149Y45455D02*
X128849D01*
X116149Y35041D02*
Y45455D01*
X128849Y35041D02*
Y45455D01*
X116403Y19547D02*
X128849D01*
X116149D02*
Y29961D01*
D12*
X107000Y189500D02*
X122000D01*
X97500Y219500D02*
X122000D01*
D13*
X109907Y166177D02*
X127179D01*
Y143825D02*
Y166177D01*
X110415Y143825D02*
X127052D01*
X72696Y166177D02*
X89333D01*
X72569Y143825D02*
Y166177D01*
Y143825D02*
X89841D01*
X160080Y146618D02*
X173034D01*
X160080Y163382D02*
X173034D01*
X136966D02*
X149920D01*
X136966Y146618D02*
X149920D01*
X173034D02*
Y163382D01*
X136966Y146618D02*
Y163382D01*
X160080Y169118D02*
X173034D01*
X160080Y185882D02*
X173034D01*
X136966D02*
X149920D01*
X136966Y169118D02*
X149920D01*
X173034D02*
Y185882D01*
X136966Y169118D02*
Y185882D01*
M02*
