M48
;Layer_Color=9474304
;FILE_FORMAT=4:4
METRIC,LZ
;TYPE=PLATED
T01F00S00C0.2500
T02F00S00C0.4000
%
T01
X00022Y0001
X00031Y00029
X00047Y00019
X00059Y00049
X0008
X00088Y0001
X00113Y00013
X00041Y00106
X00011Y00111
X00126Y00098
X00184Y00104
X00227Y00079
X00226Y00016
X00158Y0001
X00139Y00013
X00126
X00158Y00057
X00132Y00156
Y00174
Y00183
X00224Y00164
X00223Y00225
X00114Y00207
X0009092Y00190839
X00091Y00184
Y00176
Y00169
X00085Y00232
X00063
X000465Y002285
X0003625
X00026
X00017Y00227
X00008Y00162
X00011Y00121
X00056Y00133
T02
X00021Y00065
X00031
Y00077
X00021
X00058Y00095
X0008
X000925Y001145
X001025
X001175
X001275
X00181Y00154
X00193Y00161
X00195Y00176
M30
